<?xml version="1.0" encoding="utf-8" standalone="no"?>
<!DOCTYPE svg PUBLIC "-//W3C//DTD SVG 1.1//EN"
  "http://www.w3.org/Graphics/SVG/1.1/DTD/svg11.dtd">
<!-- Created with matplotlib (https://matplotlib.org/) -->
<svg height="364.914844pt" version="1.1" viewBox="0 0 578.818188 364.914844" width="578.818188pt" xmlns="http://www.w3.org/2000/svg" xmlns:xlink="http://www.w3.org/1999/xlink">
 <defs>
  <style type="text/css">
*{stroke-linecap:butt;stroke-linejoin:round;}
  </style>
 </defs>
 <g id="figure_1">
  <g id="patch_1">
   <path d="M 0 364.914844 
L 578.818188 364.914844 
L 578.818188 0 
L 0 0 
z
" style="fill:#ffffff;"/>
  </g>
  <g id="axes_1">
   <g id="patch_2">
    <path d="M 30.103125 277.111219 
L 387.223125 277.111219 
L 387.223125 10.999219 
L 30.103125 10.999219 
z
" style="fill:#ffffff;"/>
   </g>
   <g id="matplotlib.axis_1">
    <g id="xtick_1">
     <g id="line2d_1">
      <defs>
       <path d="M 0 0 
L 0 3.5 
" id="m096d8853e4" style="stroke:#000000;stroke-width:0.8;"/>
      </defs>
      <g>
       <use style="stroke:#000000;stroke-width:0.8;" x="30.103125" xlink:href="#m096d8853e4" y="277.111219"/>
      </g>
     </g>
     <g id="text_1">
      <!-- 0.0 -->
      <defs>
       <path d="M 31.78125 66.40625 
Q 24.171875 66.40625 20.328125 58.90625 
Q 16.5 51.421875 16.5 36.375 
Q 16.5 21.390625 20.328125 13.890625 
Q 24.171875 6.390625 31.78125 6.390625 
Q 39.453125 6.390625 43.28125 13.890625 
Q 47.125 21.390625 47.125 36.375 
Q 47.125 51.421875 43.28125 58.90625 
Q 39.453125 66.40625 31.78125 66.40625 
z
M 31.78125 74.21875 
Q 44.046875 74.21875 50.515625 64.515625 
Q 56.984375 54.828125 56.984375 36.375 
Q 56.984375 17.96875 50.515625 8.265625 
Q 44.046875 -1.421875 31.78125 -1.421875 
Q 19.53125 -1.421875 13.0625 8.265625 
Q 6.59375 17.96875 6.59375 36.375 
Q 6.59375 54.828125 13.0625 64.515625 
Q 19.53125 74.21875 31.78125 74.21875 
z
" id="DejaVuSans-48"/>
       <path d="M 10.6875 12.40625 
L 21 12.40625 
L 21 0 
L 10.6875 0 
z
" id="DejaVuSans-46"/>
      </defs>
      <g transform="translate(22.151563 291.709656)scale(0.1 -0.1)">
       <use xlink:href="#DejaVuSans-48"/>
       <use x="63.623047" xlink:href="#DejaVuSans-46"/>
       <use x="95.410156" xlink:href="#DejaVuSans-48"/>
      </g>
     </g>
    </g>
    <g id="xtick_2">
     <g id="line2d_2">
      <g>
       <use style="stroke:#000000;stroke-width:0.8;" x="101.527125" xlink:href="#m096d8853e4" y="277.111219"/>
      </g>
     </g>
     <g id="text_2">
      <!-- 0.2 -->
      <defs>
       <path d="M 19.1875 8.296875 
L 53.609375 8.296875 
L 53.609375 0 
L 7.328125 0 
L 7.328125 8.296875 
Q 12.9375 14.109375 22.625 23.890625 
Q 32.328125 33.6875 34.8125 36.53125 
Q 39.546875 41.84375 41.421875 45.53125 
Q 43.3125 49.21875 43.3125 52.78125 
Q 43.3125 58.59375 39.234375 62.25 
Q 35.15625 65.921875 28.609375 65.921875 
Q 23.96875 65.921875 18.8125 64.3125 
Q 13.671875 62.703125 7.8125 59.421875 
L 7.8125 69.390625 
Q 13.765625 71.78125 18.9375 73 
Q 24.125 74.21875 28.421875 74.21875 
Q 39.75 74.21875 46.484375 68.546875 
Q 53.21875 62.890625 53.21875 53.421875 
Q 53.21875 48.921875 51.53125 44.890625 
Q 49.859375 40.875 45.40625 35.40625 
Q 44.1875 33.984375 37.640625 27.21875 
Q 31.109375 20.453125 19.1875 8.296875 
z
" id="DejaVuSans-50"/>
      </defs>
      <g transform="translate(93.575563 291.709656)scale(0.1 -0.1)">
       <use xlink:href="#DejaVuSans-48"/>
       <use x="63.623047" xlink:href="#DejaVuSans-46"/>
       <use x="95.410156" xlink:href="#DejaVuSans-50"/>
      </g>
     </g>
    </g>
    <g id="xtick_3">
     <g id="line2d_3">
      <g>
       <use style="stroke:#000000;stroke-width:0.8;" x="172.951125" xlink:href="#m096d8853e4" y="277.111219"/>
      </g>
     </g>
     <g id="text_3">
      <!-- 0.4 -->
      <defs>
       <path d="M 37.796875 64.3125 
L 12.890625 25.390625 
L 37.796875 25.390625 
z
M 35.203125 72.90625 
L 47.609375 72.90625 
L 47.609375 25.390625 
L 58.015625 25.390625 
L 58.015625 17.1875 
L 47.609375 17.1875 
L 47.609375 0 
L 37.796875 0 
L 37.796875 17.1875 
L 4.890625 17.1875 
L 4.890625 26.703125 
z
" id="DejaVuSans-52"/>
      </defs>
      <g transform="translate(164.999563 291.709656)scale(0.1 -0.1)">
       <use xlink:href="#DejaVuSans-48"/>
       <use x="63.623047" xlink:href="#DejaVuSans-46"/>
       <use x="95.410156" xlink:href="#DejaVuSans-52"/>
      </g>
     </g>
    </g>
    <g id="xtick_4">
     <g id="line2d_4">
      <g>
       <use style="stroke:#000000;stroke-width:0.8;" x="244.375125" xlink:href="#m096d8853e4" y="277.111219"/>
      </g>
     </g>
     <g id="text_4">
      <!-- 0.6 -->
      <defs>
       <path d="M 33.015625 40.375 
Q 26.375 40.375 22.484375 35.828125 
Q 18.609375 31.296875 18.609375 23.390625 
Q 18.609375 15.53125 22.484375 10.953125 
Q 26.375 6.390625 33.015625 6.390625 
Q 39.65625 6.390625 43.53125 10.953125 
Q 47.40625 15.53125 47.40625 23.390625 
Q 47.40625 31.296875 43.53125 35.828125 
Q 39.65625 40.375 33.015625 40.375 
z
M 52.59375 71.296875 
L 52.59375 62.3125 
Q 48.875 64.0625 45.09375 64.984375 
Q 41.3125 65.921875 37.59375 65.921875 
Q 27.828125 65.921875 22.671875 59.328125 
Q 17.53125 52.734375 16.796875 39.40625 
Q 19.671875 43.65625 24.015625 45.921875 
Q 28.375 48.1875 33.59375 48.1875 
Q 44.578125 48.1875 50.953125 41.515625 
Q 57.328125 34.859375 57.328125 23.390625 
Q 57.328125 12.15625 50.6875 5.359375 
Q 44.046875 -1.421875 33.015625 -1.421875 
Q 20.359375 -1.421875 13.671875 8.265625 
Q 6.984375 17.96875 6.984375 36.375 
Q 6.984375 53.65625 15.1875 63.9375 
Q 23.390625 74.21875 37.203125 74.21875 
Q 40.921875 74.21875 44.703125 73.484375 
Q 48.484375 72.75 52.59375 71.296875 
z
" id="DejaVuSans-54"/>
      </defs>
      <g transform="translate(236.423563 291.709656)scale(0.1 -0.1)">
       <use xlink:href="#DejaVuSans-48"/>
       <use x="63.623047" xlink:href="#DejaVuSans-46"/>
       <use x="95.410156" xlink:href="#DejaVuSans-54"/>
      </g>
     </g>
    </g>
    <g id="xtick_5">
     <g id="line2d_5">
      <g>
       <use style="stroke:#000000;stroke-width:0.8;" x="315.799125" xlink:href="#m096d8853e4" y="277.111219"/>
      </g>
     </g>
     <g id="text_5">
      <!-- 0.8 -->
      <defs>
       <path d="M 31.78125 34.625 
Q 24.75 34.625 20.71875 30.859375 
Q 16.703125 27.09375 16.703125 20.515625 
Q 16.703125 13.921875 20.71875 10.15625 
Q 24.75 6.390625 31.78125 6.390625 
Q 38.8125 6.390625 42.859375 10.171875 
Q 46.921875 13.96875 46.921875 20.515625 
Q 46.921875 27.09375 42.890625 30.859375 
Q 38.875 34.625 31.78125 34.625 
z
M 21.921875 38.8125 
Q 15.578125 40.375 12.03125 44.71875 
Q 8.5 49.078125 8.5 55.328125 
Q 8.5 64.0625 14.71875 69.140625 
Q 20.953125 74.21875 31.78125 74.21875 
Q 42.671875 74.21875 48.875 69.140625 
Q 55.078125 64.0625 55.078125 55.328125 
Q 55.078125 49.078125 51.53125 44.71875 
Q 48 40.375 41.703125 38.8125 
Q 48.828125 37.15625 52.796875 32.3125 
Q 56.78125 27.484375 56.78125 20.515625 
Q 56.78125 9.90625 50.3125 4.234375 
Q 43.84375 -1.421875 31.78125 -1.421875 
Q 19.734375 -1.421875 13.25 4.234375 
Q 6.78125 9.90625 6.78125 20.515625 
Q 6.78125 27.484375 10.78125 32.3125 
Q 14.796875 37.15625 21.921875 38.8125 
z
M 18.3125 54.390625 
Q 18.3125 48.734375 21.84375 45.5625 
Q 25.390625 42.390625 31.78125 42.390625 
Q 38.140625 42.390625 41.71875 45.5625 
Q 45.3125 48.734375 45.3125 54.390625 
Q 45.3125 60.0625 41.71875 63.234375 
Q 38.140625 66.40625 31.78125 66.40625 
Q 25.390625 66.40625 21.84375 63.234375 
Q 18.3125 60.0625 18.3125 54.390625 
z
" id="DejaVuSans-56"/>
      </defs>
      <g transform="translate(307.847562 291.709656)scale(0.1 -0.1)">
       <use xlink:href="#DejaVuSans-48"/>
       <use x="63.623047" xlink:href="#DejaVuSans-46"/>
       <use x="95.410156" xlink:href="#DejaVuSans-56"/>
      </g>
     </g>
    </g>
    <g id="xtick_6">
     <g id="line2d_6">
      <g>
       <use style="stroke:#000000;stroke-width:0.8;" x="387.223125" xlink:href="#m096d8853e4" y="277.111219"/>
      </g>
     </g>
     <g id="text_6">
      <!-- 1.0 -->
      <defs>
       <path d="M 12.40625 8.296875 
L 28.515625 8.296875 
L 28.515625 63.921875 
L 10.984375 60.40625 
L 10.984375 69.390625 
L 28.421875 72.90625 
L 38.28125 72.90625 
L 38.28125 8.296875 
L 54.390625 8.296875 
L 54.390625 0 
L 12.40625 0 
z
" id="DejaVuSans-49"/>
      </defs>
      <g transform="translate(379.271562 291.709656)scale(0.1 -0.1)">
       <use xlink:href="#DejaVuSans-49"/>
       <use x="63.623047" xlink:href="#DejaVuSans-46"/>
       <use x="95.410156" xlink:href="#DejaVuSans-48"/>
      </g>
     </g>
    </g>
   </g>
   <g id="matplotlib.axis_2">
    <g id="ytick_1">
     <g id="line2d_7">
      <defs>
       <path d="M 0 0 
L -3.5 0 
" id="m2ff5764d7b" style="stroke:#000000;stroke-width:0.8;"/>
      </defs>
      <g>
       <use style="stroke:#000000;stroke-width:0.8;" x="30.103125" xlink:href="#m2ff5764d7b" y="277.111219"/>
      </g>
     </g>
     <g id="text_7">
      <!-- 0.0 -->
      <g transform="translate(7.2 280.910437)scale(0.1 -0.1)">
       <use xlink:href="#DejaVuSans-48"/>
       <use x="63.623047" xlink:href="#DejaVuSans-46"/>
       <use x="95.410156" xlink:href="#DejaVuSans-48"/>
      </g>
     </g>
    </g>
    <g id="ytick_2">
     <g id="line2d_8">
      <g>
       <use style="stroke:#000000;stroke-width:0.8;" x="30.103125" xlink:href="#m2ff5764d7b" y="223.888819"/>
      </g>
     </g>
     <g id="text_8">
      <!-- 0.2 -->
      <g transform="translate(7.2 227.688037)scale(0.1 -0.1)">
       <use xlink:href="#DejaVuSans-48"/>
       <use x="63.623047" xlink:href="#DejaVuSans-46"/>
       <use x="95.410156" xlink:href="#DejaVuSans-50"/>
      </g>
     </g>
    </g>
    <g id="ytick_3">
     <g id="line2d_9">
      <g>
       <use style="stroke:#000000;stroke-width:0.8;" x="30.103125" xlink:href="#m2ff5764d7b" y="170.666419"/>
      </g>
     </g>
     <g id="text_9">
      <!-- 0.4 -->
      <g transform="translate(7.2 174.465637)scale(0.1 -0.1)">
       <use xlink:href="#DejaVuSans-48"/>
       <use x="63.623047" xlink:href="#DejaVuSans-46"/>
       <use x="95.410156" xlink:href="#DejaVuSans-52"/>
      </g>
     </g>
    </g>
    <g id="ytick_4">
     <g id="line2d_10">
      <g>
       <use style="stroke:#000000;stroke-width:0.8;" x="30.103125" xlink:href="#m2ff5764d7b" y="117.444019"/>
      </g>
     </g>
     <g id="text_10">
      <!-- 0.6 -->
      <g transform="translate(7.2 121.243237)scale(0.1 -0.1)">
       <use xlink:href="#DejaVuSans-48"/>
       <use x="63.623047" xlink:href="#DejaVuSans-46"/>
       <use x="95.410156" xlink:href="#DejaVuSans-54"/>
      </g>
     </g>
    </g>
    <g id="ytick_5">
     <g id="line2d_11">
      <g>
       <use style="stroke:#000000;stroke-width:0.8;" x="30.103125" xlink:href="#m2ff5764d7b" y="64.221619"/>
      </g>
     </g>
     <g id="text_11">
      <!-- 0.8 -->
      <g transform="translate(7.2 68.020837)scale(0.1 -0.1)">
       <use xlink:href="#DejaVuSans-48"/>
       <use x="63.623047" xlink:href="#DejaVuSans-46"/>
       <use x="95.410156" xlink:href="#DejaVuSans-56"/>
      </g>
     </g>
    </g>
    <g id="ytick_6">
     <g id="line2d_12">
      <g>
       <use style="stroke:#000000;stroke-width:0.8;" x="30.103125" xlink:href="#m2ff5764d7b" y="10.999219"/>
      </g>
     </g>
     <g id="text_12">
      <!-- 1.0 -->
      <g transform="translate(7.2 14.798437)scale(0.1 -0.1)">
       <use xlink:href="#DejaVuSans-49"/>
       <use x="63.623047" xlink:href="#DejaVuSans-46"/>
       <use x="95.410156" xlink:href="#DejaVuSans-48"/>
      </g>
     </g>
    </g>
   </g>
   <g id="patch_3">
    <path d="M 30.103125 277.111219 
L 30.103125 10.999219 
" style="fill:none;stroke:#000000;stroke-linecap:square;stroke-linejoin:miter;stroke-width:0.8;"/>
   </g>
   <g id="patch_4">
    <path d="M 387.223125 277.111219 
L 387.223125 10.999219 
" style="fill:none;stroke:#000000;stroke-linecap:square;stroke-linejoin:miter;stroke-width:0.8;"/>
   </g>
   <g id="patch_5">
    <path d="M 30.103125 277.111219 
L 387.223125 277.111219 
" style="fill:none;stroke:#000000;stroke-linecap:square;stroke-linejoin:miter;stroke-width:0.8;"/>
   </g>
   <g id="patch_6">
    <path d="M 30.103125 10.999219 
L 387.223125 10.999219 
" style="fill:none;stroke:#000000;stroke-linecap:square;stroke-linejoin:miter;stroke-width:0.8;"/>
   </g>
   <g id="legend_1">
    <g id="patch_7">
     <path d="M 407.079125 357.714844 
L 569.618187 357.714844 
Q 571.618187 357.714844 571.618187 355.714844 
L 571.618187 12.999219 
Q 571.618187 10.999219 569.618187 10.999219 
L 407.079125 10.999219 
Q 405.079125 10.999219 405.079125 12.999219 
L 405.079125 355.714844 
Q 405.079125 357.714844 407.079125 357.714844 
z
" style="fill:#ffffff;opacity:0.8;stroke:#cccccc;stroke-linejoin:miter;"/>
    </g>
    <g id="line2d_13">
     <path d="M 409.079125 19.097656 
L 429.079125 19.097656 
" style="fill:none;stroke:#cd1414;stroke-linecap:square;stroke-width:1.5;"/>
    </g>
    <g id="line2d_14">
     <defs>
      <path d="M 0 10.606602 
L 10.606602 0 
L 0 -10.606602 
L -10.606602 0 
z
" id="mac6db210a6" style="stroke:#cd1414;stroke-linejoin:miter;"/>
     </defs>
     <g>
      <use style="fill:#cd1414;stroke:#cd1414;stroke-linejoin:miter;" x="419.079125" xlink:href="#mac6db210a6" y="19.097656"/>
     </g>
    </g>
    <g id="text_13">
     <!-- TimePointNum -->
     <defs>
      <path d="M -0.296875 72.90625 
L 61.375 72.90625 
L 61.375 64.59375 
L 35.5 64.59375 
L 35.5 0 
L 25.59375 0 
L 25.59375 64.59375 
L -0.296875 64.59375 
z
" id="DejaVuSans-84"/>
      <path d="M 9.421875 54.6875 
L 18.40625 54.6875 
L 18.40625 0 
L 9.421875 0 
z
M 9.421875 75.984375 
L 18.40625 75.984375 
L 18.40625 64.59375 
L 9.421875 64.59375 
z
" id="DejaVuSans-105"/>
      <path d="M 52 44.1875 
Q 55.375 50.25 60.0625 53.125 
Q 64.75 56 71.09375 56 
Q 79.640625 56 84.28125 50.015625 
Q 88.921875 44.046875 88.921875 33.015625 
L 88.921875 0 
L 79.890625 0 
L 79.890625 32.71875 
Q 79.890625 40.578125 77.09375 44.375 
Q 74.3125 48.1875 68.609375 48.1875 
Q 61.625 48.1875 57.5625 43.546875 
Q 53.515625 38.921875 53.515625 30.90625 
L 53.515625 0 
L 44.484375 0 
L 44.484375 32.71875 
Q 44.484375 40.625 41.703125 44.40625 
Q 38.921875 48.1875 33.109375 48.1875 
Q 26.21875 48.1875 22.15625 43.53125 
Q 18.109375 38.875 18.109375 30.90625 
L 18.109375 0 
L 9.078125 0 
L 9.078125 54.6875 
L 18.109375 54.6875 
L 18.109375 46.1875 
Q 21.1875 51.21875 25.484375 53.609375 
Q 29.78125 56 35.6875 56 
Q 41.65625 56 45.828125 52.96875 
Q 50 49.953125 52 44.1875 
z
" id="DejaVuSans-109"/>
      <path d="M 56.203125 29.59375 
L 56.203125 25.203125 
L 14.890625 25.203125 
Q 15.484375 15.921875 20.484375 11.0625 
Q 25.484375 6.203125 34.421875 6.203125 
Q 39.59375 6.203125 44.453125 7.46875 
Q 49.3125 8.734375 54.109375 11.28125 
L 54.109375 2.78125 
Q 49.265625 0.734375 44.1875 -0.34375 
Q 39.109375 -1.421875 33.890625 -1.421875 
Q 20.796875 -1.421875 13.15625 6.1875 
Q 5.515625 13.8125 5.515625 26.8125 
Q 5.515625 40.234375 12.765625 48.109375 
Q 20.015625 56 32.328125 56 
Q 43.359375 56 49.78125 48.890625 
Q 56.203125 41.796875 56.203125 29.59375 
z
M 47.21875 32.234375 
Q 47.125 39.59375 43.09375 43.984375 
Q 39.0625 48.390625 32.421875 48.390625 
Q 24.90625 48.390625 20.390625 44.140625 
Q 15.875 39.890625 15.1875 32.171875 
z
" id="DejaVuSans-101"/>
      <path d="M 19.671875 64.796875 
L 19.671875 37.40625 
L 32.078125 37.40625 
Q 38.96875 37.40625 42.71875 40.96875 
Q 46.484375 44.53125 46.484375 51.125 
Q 46.484375 57.671875 42.71875 61.234375 
Q 38.96875 64.796875 32.078125 64.796875 
z
M 9.8125 72.90625 
L 32.078125 72.90625 
Q 44.34375 72.90625 50.609375 67.359375 
Q 56.890625 61.8125 56.890625 51.125 
Q 56.890625 40.328125 50.609375 34.8125 
Q 44.34375 29.296875 32.078125 29.296875 
L 19.671875 29.296875 
L 19.671875 0 
L 9.8125 0 
z
" id="DejaVuSans-80"/>
      <path d="M 30.609375 48.390625 
Q 23.390625 48.390625 19.1875 42.75 
Q 14.984375 37.109375 14.984375 27.296875 
Q 14.984375 17.484375 19.15625 11.84375 
Q 23.34375 6.203125 30.609375 6.203125 
Q 37.796875 6.203125 41.984375 11.859375 
Q 46.1875 17.53125 46.1875 27.296875 
Q 46.1875 37.015625 41.984375 42.703125 
Q 37.796875 48.390625 30.609375 48.390625 
z
M 30.609375 56 
Q 42.328125 56 49.015625 48.375 
Q 55.71875 40.765625 55.71875 27.296875 
Q 55.71875 13.875 49.015625 6.21875 
Q 42.328125 -1.421875 30.609375 -1.421875 
Q 18.84375 -1.421875 12.171875 6.21875 
Q 5.515625 13.875 5.515625 27.296875 
Q 5.515625 40.765625 12.171875 48.375 
Q 18.84375 56 30.609375 56 
z
" id="DejaVuSans-111"/>
      <path d="M 54.890625 33.015625 
L 54.890625 0 
L 45.90625 0 
L 45.90625 32.71875 
Q 45.90625 40.484375 42.875 44.328125 
Q 39.84375 48.1875 33.796875 48.1875 
Q 26.515625 48.1875 22.3125 43.546875 
Q 18.109375 38.921875 18.109375 30.90625 
L 18.109375 0 
L 9.078125 0 
L 9.078125 54.6875 
L 18.109375 54.6875 
L 18.109375 46.1875 
Q 21.34375 51.125 25.703125 53.5625 
Q 30.078125 56 35.796875 56 
Q 45.21875 56 50.046875 50.171875 
Q 54.890625 44.34375 54.890625 33.015625 
z
" id="DejaVuSans-110"/>
      <path d="M 18.3125 70.21875 
L 18.3125 54.6875 
L 36.8125 54.6875 
L 36.8125 47.703125 
L 18.3125 47.703125 
L 18.3125 18.015625 
Q 18.3125 11.328125 20.140625 9.421875 
Q 21.96875 7.515625 27.59375 7.515625 
L 36.8125 7.515625 
L 36.8125 0 
L 27.59375 0 
Q 17.1875 0 13.234375 3.875 
Q 9.28125 7.765625 9.28125 18.015625 
L 9.28125 47.703125 
L 2.6875 47.703125 
L 2.6875 54.6875 
L 9.28125 54.6875 
L 9.28125 70.21875 
z
" id="DejaVuSans-116"/>
      <path d="M 9.8125 72.90625 
L 23.09375 72.90625 
L 55.421875 11.921875 
L 55.421875 72.90625 
L 64.984375 72.90625 
L 64.984375 0 
L 51.703125 0 
L 19.390625 60.984375 
L 19.390625 0 
L 9.8125 0 
z
" id="DejaVuSans-78"/>
      <path d="M 8.5 21.578125 
L 8.5 54.6875 
L 17.484375 54.6875 
L 17.484375 21.921875 
Q 17.484375 14.15625 20.5 10.265625 
Q 23.53125 6.390625 29.59375 6.390625 
Q 36.859375 6.390625 41.078125 11.03125 
Q 45.3125 15.671875 45.3125 23.6875 
L 45.3125 54.6875 
L 54.296875 54.6875 
L 54.296875 0 
L 45.3125 0 
L 45.3125 8.40625 
Q 42.046875 3.421875 37.71875 1 
Q 33.40625 -1.421875 27.6875 -1.421875 
Q 18.265625 -1.421875 13.375 4.4375 
Q 8.5 10.296875 8.5 21.578125 
z
M 31.109375 56 
z
" id="DejaVuSans-117"/>
     </defs>
     <g transform="translate(437.079125 22.597656)scale(0.1 -0.1)">
      <use xlink:href="#DejaVuSans-84"/>
      <use x="61.037109" xlink:href="#DejaVuSans-105"/>
      <use x="88.820312" xlink:href="#DejaVuSans-109"/>
      <use x="186.232422" xlink:href="#DejaVuSans-101"/>
      <use x="247.755859" xlink:href="#DejaVuSans-80"/>
      <use x="308.011719" xlink:href="#DejaVuSans-111"/>
      <use x="369.193359" xlink:href="#DejaVuSans-105"/>
      <use x="396.976562" xlink:href="#DejaVuSans-110"/>
      <use x="460.355469" xlink:href="#DejaVuSans-116"/>
      <use x="499.564453" xlink:href="#DejaVuSans-78"/>
      <use x="574.369141" xlink:href="#DejaVuSans-117"/>
      <use x="637.748047" xlink:href="#DejaVuSans-109"/>
     </g>
    </g>
    <g id="line2d_15">
     <path d="M 409.079125 33.775781 
L 429.079125 33.775781 
" style="fill:none;stroke:#ee831e;stroke-linecap:square;stroke-width:1.5;"/>
    </g>
    <g id="line2d_16">
     <defs>
      <path d="M 0 7.5 
C 1.989023 7.5 3.896849 6.709753 5.303301 5.303301 
C 6.709753 3.896849 7.5 1.989023 7.5 0 
C 7.5 -1.989023 6.709753 -3.896849 5.303301 -5.303301 
C 3.896849 -6.709753 1.989023 -7.5 0 -7.5 
C -1.989023 -7.5 -3.896849 -6.709753 -5.303301 -5.303301 
C -6.709753 -3.896849 -7.5 -1.989023 -7.5 0 
C -7.5 1.989023 -6.709753 3.896849 -5.303301 5.303301 
C -3.896849 6.709753 -1.989023 7.5 0 7.5 
z
" id="m95b57c2f0e" style="stroke:#ee831e;"/>
     </defs>
     <g>
      <use style="fill:#ee831e;stroke:#ee831e;" x="419.079125" xlink:href="#m95b57c2f0e" y="33.775781"/>
     </g>
    </g>
    <g id="text_14">
     <!-- f__Lachnospiraceae -->
     <defs>
      <path d="M 37.109375 75.984375 
L 37.109375 68.5 
L 28.515625 68.5 
Q 23.6875 68.5 21.796875 66.546875 
Q 19.921875 64.59375 19.921875 59.515625 
L 19.921875 54.6875 
L 34.71875 54.6875 
L 34.71875 47.703125 
L 19.921875 47.703125 
L 19.921875 0 
L 10.890625 0 
L 10.890625 47.703125 
L 2.296875 47.703125 
L 2.296875 54.6875 
L 10.890625 54.6875 
L 10.890625 58.5 
Q 10.890625 67.625 15.140625 71.796875 
Q 19.390625 75.984375 28.609375 75.984375 
z
" id="DejaVuSans-102"/>
      <path d="M 50.984375 -16.609375 
L 50.984375 -23.578125 
L -0.984375 -23.578125 
L -0.984375 -16.609375 
z
" id="DejaVuSans-95"/>
      <path d="M 9.8125 72.90625 
L 19.671875 72.90625 
L 19.671875 8.296875 
L 55.171875 8.296875 
L 55.171875 0 
L 9.8125 0 
z
" id="DejaVuSans-76"/>
      <path d="M 34.28125 27.484375 
Q 23.390625 27.484375 19.1875 25 
Q 14.984375 22.515625 14.984375 16.5 
Q 14.984375 11.71875 18.140625 8.90625 
Q 21.296875 6.109375 26.703125 6.109375 
Q 34.1875 6.109375 38.703125 11.40625 
Q 43.21875 16.703125 43.21875 25.484375 
L 43.21875 27.484375 
z
M 52.203125 31.203125 
L 52.203125 0 
L 43.21875 0 
L 43.21875 8.296875 
Q 40.140625 3.328125 35.546875 0.953125 
Q 30.953125 -1.421875 24.3125 -1.421875 
Q 15.921875 -1.421875 10.953125 3.296875 
Q 6 8.015625 6 15.921875 
Q 6 25.140625 12.171875 29.828125 
Q 18.359375 34.515625 30.609375 34.515625 
L 43.21875 34.515625 
L 43.21875 35.40625 
Q 43.21875 41.609375 39.140625 45 
Q 35.0625 48.390625 27.6875 48.390625 
Q 23 48.390625 18.546875 47.265625 
Q 14.109375 46.140625 10.015625 43.890625 
L 10.015625 52.203125 
Q 14.9375 54.109375 19.578125 55.046875 
Q 24.21875 56 28.609375 56 
Q 40.484375 56 46.34375 49.84375 
Q 52.203125 43.703125 52.203125 31.203125 
z
" id="DejaVuSans-97"/>
      <path d="M 48.78125 52.59375 
L 48.78125 44.1875 
Q 44.96875 46.296875 41.140625 47.34375 
Q 37.3125 48.390625 33.40625 48.390625 
Q 24.65625 48.390625 19.8125 42.84375 
Q 14.984375 37.3125 14.984375 27.296875 
Q 14.984375 17.28125 19.8125 11.734375 
Q 24.65625 6.203125 33.40625 6.203125 
Q 37.3125 6.203125 41.140625 7.25 
Q 44.96875 8.296875 48.78125 10.40625 
L 48.78125 2.09375 
Q 45.015625 0.34375 40.984375 -0.53125 
Q 36.96875 -1.421875 32.421875 -1.421875 
Q 20.0625 -1.421875 12.78125 6.34375 
Q 5.515625 14.109375 5.515625 27.296875 
Q 5.515625 40.671875 12.859375 48.328125 
Q 20.21875 56 33.015625 56 
Q 37.15625 56 41.109375 55.140625 
Q 45.0625 54.296875 48.78125 52.59375 
z
" id="DejaVuSans-99"/>
      <path d="M 54.890625 33.015625 
L 54.890625 0 
L 45.90625 0 
L 45.90625 32.71875 
Q 45.90625 40.484375 42.875 44.328125 
Q 39.84375 48.1875 33.796875 48.1875 
Q 26.515625 48.1875 22.3125 43.546875 
Q 18.109375 38.921875 18.109375 30.90625 
L 18.109375 0 
L 9.078125 0 
L 9.078125 75.984375 
L 18.109375 75.984375 
L 18.109375 46.1875 
Q 21.34375 51.125 25.703125 53.5625 
Q 30.078125 56 35.796875 56 
Q 45.21875 56 50.046875 50.171875 
Q 54.890625 44.34375 54.890625 33.015625 
z
" id="DejaVuSans-104"/>
      <path d="M 44.28125 53.078125 
L 44.28125 44.578125 
Q 40.484375 46.53125 36.375 47.5 
Q 32.28125 48.484375 27.875 48.484375 
Q 21.1875 48.484375 17.84375 46.4375 
Q 14.5 44.390625 14.5 40.28125 
Q 14.5 37.15625 16.890625 35.375 
Q 19.28125 33.59375 26.515625 31.984375 
L 29.59375 31.296875 
Q 39.15625 29.25 43.1875 25.515625 
Q 47.21875 21.78125 47.21875 15.09375 
Q 47.21875 7.46875 41.1875 3.015625 
Q 35.15625 -1.421875 24.609375 -1.421875 
Q 20.21875 -1.421875 15.453125 -0.5625 
Q 10.6875 0.296875 5.421875 2 
L 5.421875 11.28125 
Q 10.40625 8.6875 15.234375 7.390625 
Q 20.0625 6.109375 24.8125 6.109375 
Q 31.15625 6.109375 34.5625 8.28125 
Q 37.984375 10.453125 37.984375 14.40625 
Q 37.984375 18.0625 35.515625 20.015625 
Q 33.0625 21.96875 24.703125 23.78125 
L 21.578125 24.515625 
Q 13.234375 26.265625 9.515625 29.90625 
Q 5.8125 33.546875 5.8125 39.890625 
Q 5.8125 47.609375 11.28125 51.796875 
Q 16.75 56 26.8125 56 
Q 31.78125 56 36.171875 55.265625 
Q 40.578125 54.546875 44.28125 53.078125 
z
" id="DejaVuSans-115"/>
      <path d="M 18.109375 8.203125 
L 18.109375 -20.796875 
L 9.078125 -20.796875 
L 9.078125 54.6875 
L 18.109375 54.6875 
L 18.109375 46.390625 
Q 20.953125 51.265625 25.265625 53.625 
Q 29.59375 56 35.59375 56 
Q 45.5625 56 51.78125 48.09375 
Q 58.015625 40.1875 58.015625 27.296875 
Q 58.015625 14.40625 51.78125 6.484375 
Q 45.5625 -1.421875 35.59375 -1.421875 
Q 29.59375 -1.421875 25.265625 0.953125 
Q 20.953125 3.328125 18.109375 8.203125 
z
M 48.6875 27.296875 
Q 48.6875 37.203125 44.609375 42.84375 
Q 40.53125 48.484375 33.40625 48.484375 
Q 26.265625 48.484375 22.1875 42.84375 
Q 18.109375 37.203125 18.109375 27.296875 
Q 18.109375 17.390625 22.1875 11.75 
Q 26.265625 6.109375 33.40625 6.109375 
Q 40.53125 6.109375 44.609375 11.75 
Q 48.6875 17.390625 48.6875 27.296875 
z
" id="DejaVuSans-112"/>
      <path d="M 41.109375 46.296875 
Q 39.59375 47.171875 37.8125 47.578125 
Q 36.03125 48 33.890625 48 
Q 26.265625 48 22.1875 43.046875 
Q 18.109375 38.09375 18.109375 28.8125 
L 18.109375 0 
L 9.078125 0 
L 9.078125 54.6875 
L 18.109375 54.6875 
L 18.109375 46.1875 
Q 20.953125 51.171875 25.484375 53.578125 
Q 30.03125 56 36.53125 56 
Q 37.453125 56 38.578125 55.875 
Q 39.703125 55.765625 41.0625 55.515625 
z
" id="DejaVuSans-114"/>
     </defs>
     <g transform="translate(437.079125 37.275781)scale(0.1 -0.1)">
      <use xlink:href="#DejaVuSans-102"/>
      <use x="35.205078" xlink:href="#DejaVuSans-95"/>
      <use x="85.205078" xlink:href="#DejaVuSans-95"/>
      <use x="135.205078" xlink:href="#DejaVuSans-76"/>
      <use x="190.917969" xlink:href="#DejaVuSans-97"/>
      <use x="252.197266" xlink:href="#DejaVuSans-99"/>
      <use x="307.177734" xlink:href="#DejaVuSans-104"/>
      <use x="370.556641" xlink:href="#DejaVuSans-110"/>
      <use x="433.935547" xlink:href="#DejaVuSans-111"/>
      <use x="495.117188" xlink:href="#DejaVuSans-115"/>
      <use x="547.216797" xlink:href="#DejaVuSans-112"/>
      <use x="610.693359" xlink:href="#DejaVuSans-105"/>
      <use x="638.476562" xlink:href="#DejaVuSans-114"/>
      <use x="679.589844" xlink:href="#DejaVuSans-97"/>
      <use x="740.869141" xlink:href="#DejaVuSans-99"/>
      <use x="795.849609" xlink:href="#DejaVuSans-101"/>
      <use x="857.373047" xlink:href="#DejaVuSans-97"/>
      <use x="918.652344" xlink:href="#DejaVuSans-101"/>
     </g>
    </g>
    <g id="line2d_17">
     <path d="M 409.079125 48.732031 
L 429.079125 48.732031 
" style="fill:none;stroke:#f0e31e;stroke-linecap:square;stroke-width:1.5;"/>
    </g>
    <g id="line2d_18">
     <defs>
      <path d="M 0 -7.5 
L -1.683855 -2.317627 
L -7.132924 -2.317627 
L -2.724534 0.885255 
L -4.408389 6.067627 
L -0 2.864745 
L 4.408389 6.067627 
L 2.724534 0.885255 
L 7.132924 -2.317627 
L 1.683855 -2.317627 
z
" id="m14d1c8d642" style="stroke:#f0e31e;stroke-linejoin:bevel;"/>
     </defs>
     <g>
      <use style="fill:#f0e31e;stroke:#f0e31e;stroke-linejoin:bevel;" x="419.079125" xlink:href="#m14d1c8d642" y="48.732031"/>
     </g>
    </g>
    <g id="text_15">
     <!-- f__Peptostreptococcaceae -->
     <g transform="translate(437.079125 52.232031)scale(0.1 -0.1)">
      <use xlink:href="#DejaVuSans-102"/>
      <use x="35.205078" xlink:href="#DejaVuSans-95"/>
      <use x="85.205078" xlink:href="#DejaVuSans-95"/>
      <use x="135.205078" xlink:href="#DejaVuSans-80"/>
      <use x="195.460938" xlink:href="#DejaVuSans-101"/>
      <use x="256.984375" xlink:href="#DejaVuSans-112"/>
      <use x="320.460938" xlink:href="#DejaVuSans-116"/>
      <use x="359.669922" xlink:href="#DejaVuSans-111"/>
      <use x="420.851562" xlink:href="#DejaVuSans-115"/>
      <use x="472.951172" xlink:href="#DejaVuSans-116"/>
      <use x="512.160156" xlink:href="#DejaVuSans-114"/>
      <use x="553.242188" xlink:href="#DejaVuSans-101"/>
      <use x="614.765625" xlink:href="#DejaVuSans-112"/>
      <use x="678.242188" xlink:href="#DejaVuSans-116"/>
      <use x="717.451172" xlink:href="#DejaVuSans-111"/>
      <use x="778.632812" xlink:href="#DejaVuSans-99"/>
      <use x="833.613281" xlink:href="#DejaVuSans-111"/>
      <use x="894.794922" xlink:href="#DejaVuSans-99"/>
      <use x="949.775391" xlink:href="#DejaVuSans-99"/>
      <use x="1004.755859" xlink:href="#DejaVuSans-97"/>
      <use x="1066.035156" xlink:href="#DejaVuSans-99"/>
      <use x="1121.015625" xlink:href="#DejaVuSans-101"/>
      <use x="1182.539062" xlink:href="#DejaVuSans-97"/>
      <use x="1243.818359" xlink:href="#DejaVuSans-101"/>
     </g>
    </g>
    <g id="line2d_19">
     <path d="M 409.079125 63.688281 
L 429.079125 63.688281 
" style="fill:none;stroke:#91f01e;stroke-linecap:square;stroke-width:1.5;"/>
    </g>
    <g id="line2d_20">
     <defs>
      <path d="M 0 -7.5 
L -7.5 7.5 
L 7.5 7.5 
z
" id="m767e93f58e" style="stroke:#91f01e;stroke-linejoin:miter;"/>
     </defs>
     <g>
      <use style="fill:#91f01e;stroke:#91f01e;stroke-linejoin:miter;" x="419.079125" xlink:href="#m767e93f58e" y="63.688281"/>
     </g>
    </g>
    <g id="text_16">
     <!-- f__Ruminococcaceae -->
     <defs>
      <path d="M 44.390625 34.1875 
Q 47.5625 33.109375 50.5625 29.59375 
Q 53.5625 26.078125 56.59375 19.921875 
L 66.609375 0 
L 56 0 
L 46.6875 18.703125 
Q 43.0625 26.03125 39.671875 28.421875 
Q 36.28125 30.8125 30.421875 30.8125 
L 19.671875 30.8125 
L 19.671875 0 
L 9.8125 0 
L 9.8125 72.90625 
L 32.078125 72.90625 
Q 44.578125 72.90625 50.734375 67.671875 
Q 56.890625 62.453125 56.890625 51.90625 
Q 56.890625 45.015625 53.6875 40.46875 
Q 50.484375 35.9375 44.390625 34.1875 
z
M 19.671875 64.796875 
L 19.671875 38.921875 
L 32.078125 38.921875 
Q 39.203125 38.921875 42.84375 42.21875 
Q 46.484375 45.515625 46.484375 51.90625 
Q 46.484375 58.296875 42.84375 61.546875 
Q 39.203125 64.796875 32.078125 64.796875 
z
" id="DejaVuSans-82"/>
     </defs>
     <g transform="translate(437.079125 67.188281)scale(0.1 -0.1)">
      <use xlink:href="#DejaVuSans-102"/>
      <use x="35.205078" xlink:href="#DejaVuSans-95"/>
      <use x="85.205078" xlink:href="#DejaVuSans-95"/>
      <use x="135.205078" xlink:href="#DejaVuSans-82"/>
      <use x="204.625" xlink:href="#DejaVuSans-117"/>
      <use x="268.003906" xlink:href="#DejaVuSans-109"/>
      <use x="365.416016" xlink:href="#DejaVuSans-105"/>
      <use x="393.199219" xlink:href="#DejaVuSans-110"/>
      <use x="456.578125" xlink:href="#DejaVuSans-111"/>
      <use x="517.759766" xlink:href="#DejaVuSans-99"/>
      <use x="572.740234" xlink:href="#DejaVuSans-111"/>
      <use x="633.921875" xlink:href="#DejaVuSans-99"/>
      <use x="688.902344" xlink:href="#DejaVuSans-99"/>
      <use x="743.882812" xlink:href="#DejaVuSans-97"/>
      <use x="805.162109" xlink:href="#DejaVuSans-99"/>
      <use x="860.142578" xlink:href="#DejaVuSans-101"/>
      <use x="921.666016" xlink:href="#DejaVuSans-97"/>
      <use x="982.945312" xlink:href="#DejaVuSans-101"/>
     </g>
    </g>
    <g id="line2d_21">
     <path d="M 409.079125 78.644531 
L 429.079125 78.644531 
" style="fill:none;stroke:#1ef08d;stroke-linecap:square;stroke-width:1.5;"/>
    </g>
    <g id="line2d_22">
     <defs>
      <path d="M -0 7.5 
L 7.5 -7.5 
L -7.5 -7.5 
z
" id="mfab6a9c24b" style="stroke:#1ef08d;stroke-linejoin:miter;"/>
     </defs>
     <g>
      <use style="fill:#1ef08d;stroke:#1ef08d;stroke-linejoin:miter;" x="419.079125" xlink:href="#mfab6a9c24b" y="78.644531"/>
     </g>
    </g>
    <g id="text_17">
     <!-- g__ -->
     <defs>
      <path d="M 45.40625 27.984375 
Q 45.40625 37.75 41.375 43.109375 
Q 37.359375 48.484375 30.078125 48.484375 
Q 22.859375 48.484375 18.828125 43.109375 
Q 14.796875 37.75 14.796875 27.984375 
Q 14.796875 18.265625 18.828125 12.890625 
Q 22.859375 7.515625 30.078125 7.515625 
Q 37.359375 7.515625 41.375 12.890625 
Q 45.40625 18.265625 45.40625 27.984375 
z
M 54.390625 6.78125 
Q 54.390625 -7.171875 48.1875 -13.984375 
Q 42 -20.796875 29.203125 -20.796875 
Q 24.46875 -20.796875 20.265625 -20.09375 
Q 16.0625 -19.390625 12.109375 -17.921875 
L 12.109375 -9.1875 
Q 16.0625 -11.328125 19.921875 -12.34375 
Q 23.78125 -13.375 27.78125 -13.375 
Q 36.625 -13.375 41.015625 -8.765625 
Q 45.40625 -4.15625 45.40625 5.171875 
L 45.40625 9.625 
Q 42.625 4.78125 38.28125 2.390625 
Q 33.9375 0 27.875 0 
Q 17.828125 0 11.671875 7.65625 
Q 5.515625 15.328125 5.515625 27.984375 
Q 5.515625 40.671875 11.671875 48.328125 
Q 17.828125 56 27.875 56 
Q 33.9375 56 38.28125 53.609375 
Q 42.625 51.21875 45.40625 46.390625 
L 45.40625 54.6875 
L 54.390625 54.6875 
z
" id="DejaVuSans-103"/>
     </defs>
     <g transform="translate(437.079125 82.144531)scale(0.1 -0.1)">
      <use xlink:href="#DejaVuSans-103"/>
      <use x="63.476562" xlink:href="#DejaVuSans-95"/>
      <use x="113.476562" xlink:href="#DejaVuSans-95"/>
     </g>
    </g>
    <g id="line2d_23">
     <path d="M 409.079125 93.600781 
L 429.079125 93.600781 
" style="fill:none;stroke:#1edaf0;stroke-linecap:square;stroke-width:1.5;"/>
    </g>
    <g id="line2d_24">
     <defs>
      <path d="M 0 10.606602 
L 10.606602 0 
L 0 -10.606602 
L -10.606602 0 
z
" id="mdc6c50eec9" style="stroke:#1edaf0;stroke-linejoin:miter;"/>
     </defs>
     <g>
      <use style="fill:#1edaf0;stroke:#1edaf0;stroke-linejoin:miter;" x="419.079125" xlink:href="#mdc6c50eec9" y="93.600781"/>
     </g>
    </g>
    <g id="text_18">
     <!-- g__Acinetobacter -->
     <defs>
      <path d="M 34.1875 63.1875 
L 20.796875 26.90625 
L 47.609375 26.90625 
z
M 28.609375 72.90625 
L 39.796875 72.90625 
L 67.578125 0 
L 57.328125 0 
L 50.6875 18.703125 
L 17.828125 18.703125 
L 11.1875 0 
L 0.78125 0 
z
" id="DejaVuSans-65"/>
      <path d="M 48.6875 27.296875 
Q 48.6875 37.203125 44.609375 42.84375 
Q 40.53125 48.484375 33.40625 48.484375 
Q 26.265625 48.484375 22.1875 42.84375 
Q 18.109375 37.203125 18.109375 27.296875 
Q 18.109375 17.390625 22.1875 11.75 
Q 26.265625 6.109375 33.40625 6.109375 
Q 40.53125 6.109375 44.609375 11.75 
Q 48.6875 17.390625 48.6875 27.296875 
z
M 18.109375 46.390625 
Q 20.953125 51.265625 25.265625 53.625 
Q 29.59375 56 35.59375 56 
Q 45.5625 56 51.78125 48.09375 
Q 58.015625 40.1875 58.015625 27.296875 
Q 58.015625 14.40625 51.78125 6.484375 
Q 45.5625 -1.421875 35.59375 -1.421875 
Q 29.59375 -1.421875 25.265625 0.953125 
Q 20.953125 3.328125 18.109375 8.203125 
L 18.109375 0 
L 9.078125 0 
L 9.078125 75.984375 
L 18.109375 75.984375 
z
" id="DejaVuSans-98"/>
     </defs>
     <g transform="translate(437.079125 97.100781)scale(0.1 -0.1)">
      <use xlink:href="#DejaVuSans-103"/>
      <use x="63.476562" xlink:href="#DejaVuSans-95"/>
      <use x="113.476562" xlink:href="#DejaVuSans-95"/>
      <use x="163.476562" xlink:href="#DejaVuSans-65"/>
      <use x="231.869141" xlink:href="#DejaVuSans-99"/>
      <use x="286.849609" xlink:href="#DejaVuSans-105"/>
      <use x="314.632812" xlink:href="#DejaVuSans-110"/>
      <use x="378.011719" xlink:href="#DejaVuSans-101"/>
      <use x="439.535156" xlink:href="#DejaVuSans-116"/>
      <use x="478.744141" xlink:href="#DejaVuSans-111"/>
      <use x="539.925781" xlink:href="#DejaVuSans-98"/>
      <use x="603.402344" xlink:href="#DejaVuSans-97"/>
      <use x="664.681641" xlink:href="#DejaVuSans-99"/>
      <use x="719.662109" xlink:href="#DejaVuSans-116"/>
      <use x="758.871094" xlink:href="#DejaVuSans-101"/>
      <use x="820.394531" xlink:href="#DejaVuSans-114"/>
     </g>
    </g>
    <g id="line2d_25">
     <path d="M 409.079125 108.557031 
L 429.079125 108.557031 
" style="fill:none;stroke:#1e4ef0;stroke-linecap:square;stroke-width:1.5;"/>
    </g>
    <g id="line2d_26">
     <defs>
      <path d="M 0 7.5 
C 1.989023 7.5 3.896849 6.709753 5.303301 5.303301 
C 6.709753 3.896849 7.5 1.989023 7.5 0 
C 7.5 -1.989023 6.709753 -3.896849 5.303301 -5.303301 
C 3.896849 -6.709753 1.989023 -7.5 0 -7.5 
C -1.989023 -7.5 -3.896849 -6.709753 -5.303301 -5.303301 
C -6.709753 -3.896849 -7.5 -1.989023 -7.5 0 
C -7.5 1.989023 -6.709753 3.896849 -5.303301 5.303301 
C -3.896849 6.709753 -1.989023 7.5 0 7.5 
z
" id="ma0b7cc1a0d" style="stroke:#1e4ef0;"/>
     </defs>
     <g>
      <use style="fill:#1e4ef0;stroke:#1e4ef0;" x="419.079125" xlink:href="#ma0b7cc1a0d" y="108.557031"/>
     </g>
    </g>
    <g id="text_19">
     <!-- g__Aggregatibacter -->
     <g transform="translate(437.079125 112.057031)scale(0.1 -0.1)">
      <use xlink:href="#DejaVuSans-103"/>
      <use x="63.476562" xlink:href="#DejaVuSans-95"/>
      <use x="113.476562" xlink:href="#DejaVuSans-95"/>
      <use x="163.476562" xlink:href="#DejaVuSans-65"/>
      <use x="231.884766" xlink:href="#DejaVuSans-103"/>
      <use x="295.361328" xlink:href="#DejaVuSans-103"/>
      <use x="358.837891" xlink:href="#DejaVuSans-114"/>
      <use x="399.919922" xlink:href="#DejaVuSans-101"/>
      <use x="461.443359" xlink:href="#DejaVuSans-103"/>
      <use x="524.919922" xlink:href="#DejaVuSans-97"/>
      <use x="586.199219" xlink:href="#DejaVuSans-116"/>
      <use x="625.408203" xlink:href="#DejaVuSans-105"/>
      <use x="653.191406" xlink:href="#DejaVuSans-98"/>
      <use x="716.667969" xlink:href="#DejaVuSans-97"/>
      <use x="777.947266" xlink:href="#DejaVuSans-99"/>
      <use x="832.927734" xlink:href="#DejaVuSans-116"/>
      <use x="872.136719" xlink:href="#DejaVuSans-101"/>
      <use x="933.660156" xlink:href="#DejaVuSans-114"/>
     </g>
    </g>
    <g id="line2d_27">
     <path d="M 409.079125 123.513281 
L 429.079125 123.513281 
" style="fill:none;stroke:#671ef0;stroke-linecap:square;stroke-width:1.5;"/>
    </g>
    <g id="line2d_28">
     <defs>
      <path d="M 0 -7.5 
L -1.683855 -2.317627 
L -7.132924 -2.317627 
L -2.724534 0.885255 
L -4.408389 6.067627 
L -0 2.864745 
L 4.408389 6.067627 
L 2.724534 0.885255 
L 7.132924 -2.317627 
L 1.683855 -2.317627 
z
" id="m4df62f2835" style="stroke:#671ef0;stroke-linejoin:bevel;"/>
     </defs>
     <g>
      <use style="fill:#671ef0;stroke:#671ef0;stroke-linejoin:bevel;" x="419.079125" xlink:href="#m4df62f2835" y="123.513281"/>
     </g>
    </g>
    <g id="text_20">
     <!-- g__Anaerotruncus -->
     <g transform="translate(437.079125 127.013281)scale(0.1 -0.1)">
      <use xlink:href="#DejaVuSans-103"/>
      <use x="63.476562" xlink:href="#DejaVuSans-95"/>
      <use x="113.476562" xlink:href="#DejaVuSans-95"/>
      <use x="163.476562" xlink:href="#DejaVuSans-65"/>
      <use x="231.884766" xlink:href="#DejaVuSans-110"/>
      <use x="295.263672" xlink:href="#DejaVuSans-97"/>
      <use x="356.542969" xlink:href="#DejaVuSans-101"/>
      <use x="418.066406" xlink:href="#DejaVuSans-114"/>
      <use x="459.148438" xlink:href="#DejaVuSans-111"/>
      <use x="520.330078" xlink:href="#DejaVuSans-116"/>
      <use x="559.539062" xlink:href="#DejaVuSans-114"/>
      <use x="600.652344" xlink:href="#DejaVuSans-117"/>
      <use x="664.03125" xlink:href="#DejaVuSans-110"/>
      <use x="727.410156" xlink:href="#DejaVuSans-99"/>
      <use x="782.390625" xlink:href="#DejaVuSans-117"/>
      <use x="845.769531" xlink:href="#DejaVuSans-115"/>
     </g>
    </g>
    <g id="line2d_29">
     <path d="M 409.079125 138.469531 
L 429.079125 138.469531 
" style="fill:none;stroke:#f01ee6;stroke-linecap:square;stroke-width:1.5;"/>
    </g>
    <g id="line2d_30">
     <defs>
      <path d="M 0 -7.5 
L -7.5 7.5 
L 7.5 7.5 
z
" id="m17994b9007" style="stroke:#f01ee6;stroke-linejoin:miter;"/>
     </defs>
     <g>
      <use style="fill:#f01ee6;stroke:#f01ee6;stroke-linejoin:miter;" x="419.079125" xlink:href="#m17994b9007" y="138.469531"/>
     </g>
    </g>
    <g id="text_21">
     <!-- g__Bacteroides -->
     <defs>
      <path d="M 19.671875 34.8125 
L 19.671875 8.109375 
L 35.5 8.109375 
Q 43.453125 8.109375 47.28125 11.40625 
Q 51.125 14.703125 51.125 21.484375 
Q 51.125 28.328125 47.28125 31.5625 
Q 43.453125 34.8125 35.5 34.8125 
z
M 19.671875 64.796875 
L 19.671875 42.828125 
L 34.28125 42.828125 
Q 41.5 42.828125 45.03125 45.53125 
Q 48.578125 48.25 48.578125 53.8125 
Q 48.578125 59.328125 45.03125 62.0625 
Q 41.5 64.796875 34.28125 64.796875 
z
M 9.8125 72.90625 
L 35.015625 72.90625 
Q 46.296875 72.90625 52.390625 68.21875 
Q 58.5 63.53125 58.5 54.890625 
Q 58.5 48.1875 55.375 44.234375 
Q 52.25 40.28125 46.1875 39.3125 
Q 53.46875 37.75 57.5 32.78125 
Q 61.53125 27.828125 61.53125 20.40625 
Q 61.53125 10.640625 54.890625 5.3125 
Q 48.25 0 35.984375 0 
L 9.8125 0 
z
" id="DejaVuSans-66"/>
      <path d="M 45.40625 46.390625 
L 45.40625 75.984375 
L 54.390625 75.984375 
L 54.390625 0 
L 45.40625 0 
L 45.40625 8.203125 
Q 42.578125 3.328125 38.25 0.953125 
Q 33.9375 -1.421875 27.875 -1.421875 
Q 17.96875 -1.421875 11.734375 6.484375 
Q 5.515625 14.40625 5.515625 27.296875 
Q 5.515625 40.1875 11.734375 48.09375 
Q 17.96875 56 27.875 56 
Q 33.9375 56 38.25 53.625 
Q 42.578125 51.265625 45.40625 46.390625 
z
M 14.796875 27.296875 
Q 14.796875 17.390625 18.875 11.75 
Q 22.953125 6.109375 30.078125 6.109375 
Q 37.203125 6.109375 41.296875 11.75 
Q 45.40625 17.390625 45.40625 27.296875 
Q 45.40625 37.203125 41.296875 42.84375 
Q 37.203125 48.484375 30.078125 48.484375 
Q 22.953125 48.484375 18.875 42.84375 
Q 14.796875 37.203125 14.796875 27.296875 
z
" id="DejaVuSans-100"/>
     </defs>
     <g transform="translate(437.079125 141.969531)scale(0.1 -0.1)">
      <use xlink:href="#DejaVuSans-103"/>
      <use x="63.476562" xlink:href="#DejaVuSans-95"/>
      <use x="113.476562" xlink:href="#DejaVuSans-95"/>
      <use x="163.476562" xlink:href="#DejaVuSans-66"/>
      <use x="232.080078" xlink:href="#DejaVuSans-97"/>
      <use x="293.359375" xlink:href="#DejaVuSans-99"/>
      <use x="348.339844" xlink:href="#DejaVuSans-116"/>
      <use x="387.548828" xlink:href="#DejaVuSans-101"/>
      <use x="449.072266" xlink:href="#DejaVuSans-114"/>
      <use x="490.154297" xlink:href="#DejaVuSans-111"/>
      <use x="551.335938" xlink:href="#DejaVuSans-105"/>
      <use x="579.119141" xlink:href="#DejaVuSans-100"/>
      <use x="642.595703" xlink:href="#DejaVuSans-101"/>
      <use x="704.119141" xlink:href="#DejaVuSans-115"/>
     </g>
    </g>
    <g id="line2d_31">
     <path d="M 409.079125 153.425781 
L 429.079125 153.425781 
" style="fill:none;stroke:#f01e5a;stroke-linecap:square;stroke-width:1.5;"/>
    </g>
    <g id="line2d_32">
     <defs>
      <path d="M -0 7.5 
L 7.5 -7.5 
L -7.5 -7.5 
z
" id="mf385c3d486" style="stroke:#f01e5a;stroke-linejoin:miter;"/>
     </defs>
     <g>
      <use style="fill:#f01e5a;stroke:#f01e5a;stroke-linejoin:miter;" x="419.079125" xlink:href="#mf385c3d486" y="153.425781"/>
     </g>
    </g>
    <g id="text_22">
     <!-- g__Blautia -->
     <defs>
      <path d="M 9.421875 75.984375 
L 18.40625 75.984375 
L 18.40625 0 
L 9.421875 0 
z
" id="DejaVuSans-108"/>
     </defs>
     <g transform="translate(437.079125 156.925781)scale(0.1 -0.1)">
      <use xlink:href="#DejaVuSans-103"/>
      <use x="63.476562" xlink:href="#DejaVuSans-95"/>
      <use x="113.476562" xlink:href="#DejaVuSans-95"/>
      <use x="163.476562" xlink:href="#DejaVuSans-66"/>
      <use x="232.080078" xlink:href="#DejaVuSans-108"/>
      <use x="259.863281" xlink:href="#DejaVuSans-97"/>
      <use x="321.142578" xlink:href="#DejaVuSans-117"/>
      <use x="384.521484" xlink:href="#DejaVuSans-116"/>
      <use x="423.730469" xlink:href="#DejaVuSans-105"/>
      <use x="451.513672" xlink:href="#DejaVuSans-97"/>
     </g>
    </g>
    <g id="line2d_33">
     <path d="M 409.079125 168.382031 
L 429.079125 168.382031 
" style="fill:none;stroke:#773326;stroke-linecap:square;stroke-width:1.5;"/>
    </g>
    <g id="line2d_34">
     <defs>
      <path d="M 0 10.606602 
L 10.606602 0 
L 0 -10.606602 
L -10.606602 0 
z
" id="me63da76aa7" style="stroke:#773326;stroke-linejoin:miter;"/>
     </defs>
     <g>
      <use style="fill:#773326;stroke:#773326;stroke-linejoin:miter;" x="419.079125" xlink:href="#me63da76aa7" y="168.382031"/>
     </g>
    </g>
    <g id="text_23">
     <!-- g__Chryseobacterium -->
     <defs>
      <path d="M 64.40625 67.28125 
L 64.40625 56.890625 
Q 59.421875 61.53125 53.78125 63.8125 
Q 48.140625 66.109375 41.796875 66.109375 
Q 29.296875 66.109375 22.65625 58.46875 
Q 16.015625 50.828125 16.015625 36.375 
Q 16.015625 21.96875 22.65625 14.328125 
Q 29.296875 6.6875 41.796875 6.6875 
Q 48.140625 6.6875 53.78125 8.984375 
Q 59.421875 11.28125 64.40625 15.921875 
L 64.40625 5.609375 
Q 59.234375 2.09375 53.4375 0.328125 
Q 47.65625 -1.421875 41.21875 -1.421875 
Q 24.65625 -1.421875 15.125 8.703125 
Q 5.609375 18.84375 5.609375 36.375 
Q 5.609375 53.953125 15.125 64.078125 
Q 24.65625 74.21875 41.21875 74.21875 
Q 47.75 74.21875 53.53125 72.484375 
Q 59.328125 70.75 64.40625 67.28125 
z
" id="DejaVuSans-67"/>
      <path d="M 32.171875 -5.078125 
Q 28.375 -14.84375 24.75 -17.8125 
Q 21.140625 -20.796875 15.09375 -20.796875 
L 7.90625 -20.796875 
L 7.90625 -13.28125 
L 13.1875 -13.28125 
Q 16.890625 -13.28125 18.9375 -11.515625 
Q 21 -9.765625 23.484375 -3.21875 
L 25.09375 0.875 
L 2.984375 54.6875 
L 12.5 54.6875 
L 29.59375 11.921875 
L 46.6875 54.6875 
L 56.203125 54.6875 
z
" id="DejaVuSans-121"/>
     </defs>
     <g transform="translate(437.079125 171.882031)scale(0.1 -0.1)">
      <use xlink:href="#DejaVuSans-103"/>
      <use x="63.476562" xlink:href="#DejaVuSans-95"/>
      <use x="113.476562" xlink:href="#DejaVuSans-95"/>
      <use x="163.476562" xlink:href="#DejaVuSans-67"/>
      <use x="233.300781" xlink:href="#DejaVuSans-104"/>
      <use x="296.679688" xlink:href="#DejaVuSans-114"/>
      <use x="337.792969" xlink:href="#DejaVuSans-121"/>
      <use x="396.972656" xlink:href="#DejaVuSans-115"/>
      <use x="449.072266" xlink:href="#DejaVuSans-101"/>
      <use x="510.595703" xlink:href="#DejaVuSans-111"/>
      <use x="571.777344" xlink:href="#DejaVuSans-98"/>
      <use x="635.253906" xlink:href="#DejaVuSans-97"/>
      <use x="696.533203" xlink:href="#DejaVuSans-99"/>
      <use x="751.513672" xlink:href="#DejaVuSans-116"/>
      <use x="790.722656" xlink:href="#DejaVuSans-101"/>
      <use x="852.246094" xlink:href="#DejaVuSans-114"/>
      <use x="893.359375" xlink:href="#DejaVuSans-105"/>
      <use x="921.142578" xlink:href="#DejaVuSans-117"/>
      <use x="984.521484" xlink:href="#DejaVuSans-109"/>
     </g>
    </g>
    <g id="line2d_35">
     <path d="M 409.079125 183.338281 
L 429.079125 183.338281 
" style="fill:none;stroke:#695b18;stroke-linecap:square;stroke-width:1.5;"/>
    </g>
    <g id="line2d_36">
     <defs>
      <path d="M 0 7.5 
C 1.989023 7.5 3.896849 6.709753 5.303301 5.303301 
C 6.709753 3.896849 7.5 1.989023 7.5 0 
C 7.5 -1.989023 6.709753 -3.896849 5.303301 -5.303301 
C 3.896849 -6.709753 1.989023 -7.5 0 -7.5 
C -1.989023 -7.5 -3.896849 -6.709753 -5.303301 -5.303301 
C -6.709753 -3.896849 -7.5 -1.989023 -7.5 0 
C -7.5 1.989023 -6.709753 3.896849 -5.303301 5.303301 
C -3.896849 6.709753 -1.989023 7.5 0 7.5 
z
" id="m487a19449f" style="stroke:#695b18;"/>
     </defs>
     <g>
      <use style="fill:#695b18;stroke:#695b18;" x="419.079125" xlink:href="#m487a19449f" y="183.338281"/>
     </g>
    </g>
    <g id="text_24">
     <!-- g__Dehalobacterium -->
     <defs>
      <path d="M 19.671875 64.796875 
L 19.671875 8.109375 
L 31.59375 8.109375 
Q 46.6875 8.109375 53.6875 14.9375 
Q 60.6875 21.78125 60.6875 36.53125 
Q 60.6875 51.171875 53.6875 57.984375 
Q 46.6875 64.796875 31.59375 64.796875 
z
M 9.8125 72.90625 
L 30.078125 72.90625 
Q 51.265625 72.90625 61.171875 64.09375 
Q 71.09375 55.28125 71.09375 36.53125 
Q 71.09375 17.671875 61.125 8.828125 
Q 51.171875 0 30.078125 0 
L 9.8125 0 
z
" id="DejaVuSans-68"/>
     </defs>
     <g transform="translate(437.079125 186.838281)scale(0.1 -0.1)">
      <use xlink:href="#DejaVuSans-103"/>
      <use x="63.476562" xlink:href="#DejaVuSans-95"/>
      <use x="113.476562" xlink:href="#DejaVuSans-95"/>
      <use x="163.476562" xlink:href="#DejaVuSans-68"/>
      <use x="240.478516" xlink:href="#DejaVuSans-101"/>
      <use x="302.001953" xlink:href="#DejaVuSans-104"/>
      <use x="365.380859" xlink:href="#DejaVuSans-97"/>
      <use x="426.660156" xlink:href="#DejaVuSans-108"/>
      <use x="454.443359" xlink:href="#DejaVuSans-111"/>
      <use x="515.625" xlink:href="#DejaVuSans-98"/>
      <use x="579.101562" xlink:href="#DejaVuSans-97"/>
      <use x="640.380859" xlink:href="#DejaVuSans-99"/>
      <use x="695.361328" xlink:href="#DejaVuSans-116"/>
      <use x="734.570312" xlink:href="#DejaVuSans-101"/>
      <use x="796.09375" xlink:href="#DejaVuSans-114"/>
      <use x="837.207031" xlink:href="#DejaVuSans-105"/>
      <use x="864.990234" xlink:href="#DejaVuSans-117"/>
      <use x="928.369141" xlink:href="#DejaVuSans-109"/>
     </g>
    </g>
    <g id="line2d_37">
     <path d="M 409.079125 198.294531 
L 429.079125 198.294531 
" style="fill:none;stroke:#787a6e;stroke-linecap:square;stroke-width:1.5;"/>
    </g>
    <g id="line2d_38">
     <defs>
      <path d="M 0 -7.5 
L -1.683855 -2.317627 
L -7.132924 -2.317627 
L -2.724534 0.885255 
L -4.408389 6.067627 
L -0 2.864745 
L 4.408389 6.067627 
L 2.724534 0.885255 
L 7.132924 -2.317627 
L 1.683855 -2.317627 
z
" id="m5f0d2687b5" style="stroke:#787a6e;stroke-linejoin:bevel;"/>
     </defs>
     <g>
      <use style="fill:#787a6e;stroke:#787a6e;stroke-linejoin:bevel;" x="419.079125" xlink:href="#m5f0d2687b5" y="198.294531"/>
     </g>
    </g>
    <g id="text_25">
     <!-- g__Desulfovibrio -->
     <defs>
      <path d="M 2.984375 54.6875 
L 12.5 54.6875 
L 29.59375 8.796875 
L 46.6875 54.6875 
L 56.203125 54.6875 
L 35.6875 0 
L 23.484375 0 
z
" id="DejaVuSans-118"/>
     </defs>
     <g transform="translate(437.079125 201.794531)scale(0.1 -0.1)">
      <use xlink:href="#DejaVuSans-103"/>
      <use x="63.476562" xlink:href="#DejaVuSans-95"/>
      <use x="113.476562" xlink:href="#DejaVuSans-95"/>
      <use x="163.476562" xlink:href="#DejaVuSans-68"/>
      <use x="240.478516" xlink:href="#DejaVuSans-101"/>
      <use x="302.001953" xlink:href="#DejaVuSans-115"/>
      <use x="354.101562" xlink:href="#DejaVuSans-117"/>
      <use x="417.480469" xlink:href="#DejaVuSans-108"/>
      <use x="445.263672" xlink:href="#DejaVuSans-102"/>
      <use x="480.46875" xlink:href="#DejaVuSans-111"/>
      <use x="541.650391" xlink:href="#DejaVuSans-118"/>
      <use x="600.830078" xlink:href="#DejaVuSans-105"/>
      <use x="628.613281" xlink:href="#DejaVuSans-98"/>
      <use x="692.089844" xlink:href="#DejaVuSans-114"/>
      <use x="733.203125" xlink:href="#DejaVuSans-105"/>
      <use x="760.986328" xlink:href="#DejaVuSans-111"/>
     </g>
    </g>
    <g id="line2d_39">
     <path d="M 409.079125 213.250781 
L 429.079125 213.250781 
" style="fill:none;stroke:#040404;stroke-linecap:square;stroke-width:1.5;"/>
    </g>
    <g id="line2d_40">
     <defs>
      <path d="M 0 -7.5 
L -7.5 7.5 
L 7.5 7.5 
z
" id="m19f84dc3a2" style="stroke:#040404;stroke-linejoin:miter;"/>
     </defs>
     <g>
      <use style="fill:#040404;stroke:#040404;stroke-linejoin:miter;" x="419.079125" xlink:href="#m19f84dc3a2" y="213.250781"/>
     </g>
    </g>
    <g id="text_26">
     <!-- g__Enterococcus -->
     <defs>
      <path d="M 9.8125 72.90625 
L 55.90625 72.90625 
L 55.90625 64.59375 
L 19.671875 64.59375 
L 19.671875 43.015625 
L 54.390625 43.015625 
L 54.390625 34.71875 
L 19.671875 34.71875 
L 19.671875 8.296875 
L 56.78125 8.296875 
L 56.78125 0 
L 9.8125 0 
z
" id="DejaVuSans-69"/>
     </defs>
     <g transform="translate(437.079125 216.750781)scale(0.1 -0.1)">
      <use xlink:href="#DejaVuSans-103"/>
      <use x="63.476562" xlink:href="#DejaVuSans-95"/>
      <use x="113.476562" xlink:href="#DejaVuSans-95"/>
      <use x="163.476562" xlink:href="#DejaVuSans-69"/>
      <use x="226.660156" xlink:href="#DejaVuSans-110"/>
      <use x="290.039062" xlink:href="#DejaVuSans-116"/>
      <use x="329.248047" xlink:href="#DejaVuSans-101"/>
      <use x="390.771484" xlink:href="#DejaVuSans-114"/>
      <use x="431.853516" xlink:href="#DejaVuSans-111"/>
      <use x="493.035156" xlink:href="#DejaVuSans-99"/>
      <use x="548.015625" xlink:href="#DejaVuSans-111"/>
      <use x="609.197266" xlink:href="#DejaVuSans-99"/>
      <use x="664.177734" xlink:href="#DejaVuSans-99"/>
      <use x="719.158203" xlink:href="#DejaVuSans-117"/>
      <use x="782.537109" xlink:href="#DejaVuSans-115"/>
     </g>
    </g>
    <g id="line2d_41">
     <path d="M 409.079125 228.207031 
L 429.079125 228.207031 
" style="fill:none;stroke:#1c440e;stroke-linecap:square;stroke-width:1.5;"/>
    </g>
    <g id="line2d_42">
     <defs>
      <path d="M -0 7.5 
L 7.5 -7.5 
L -7.5 -7.5 
z
" id="md43ddffd4c" style="stroke:#1c440e;stroke-linejoin:miter;"/>
     </defs>
     <g>
      <use style="fill:#1c440e;stroke:#1c440e;stroke-linejoin:miter;" x="419.079125" xlink:href="#md43ddffd4c" y="228.207031"/>
     </g>
    </g>
    <g id="text_27">
     <!-- g__Haloferula -->
     <defs>
      <path d="M 9.8125 72.90625 
L 19.671875 72.90625 
L 19.671875 43.015625 
L 55.515625 43.015625 
L 55.515625 72.90625 
L 65.375 72.90625 
L 65.375 0 
L 55.515625 0 
L 55.515625 34.71875 
L 19.671875 34.71875 
L 19.671875 0 
L 9.8125 0 
z
" id="DejaVuSans-72"/>
     </defs>
     <g transform="translate(437.079125 231.707031)scale(0.1 -0.1)">
      <use xlink:href="#DejaVuSans-103"/>
      <use x="63.476562" xlink:href="#DejaVuSans-95"/>
      <use x="113.476562" xlink:href="#DejaVuSans-95"/>
      <use x="163.476562" xlink:href="#DejaVuSans-72"/>
      <use x="238.671875" xlink:href="#DejaVuSans-97"/>
      <use x="299.951172" xlink:href="#DejaVuSans-108"/>
      <use x="327.734375" xlink:href="#DejaVuSans-111"/>
      <use x="388.916016" xlink:href="#DejaVuSans-102"/>
      <use x="424.121094" xlink:href="#DejaVuSans-101"/>
      <use x="485.644531" xlink:href="#DejaVuSans-114"/>
      <use x="526.757812" xlink:href="#DejaVuSans-117"/>
      <use x="590.136719" xlink:href="#DejaVuSans-108"/>
      <use x="617.919922" xlink:href="#DejaVuSans-97"/>
     </g>
    </g>
    <g id="line2d_43">
     <path d="M 409.079125 243.163281 
L 429.079125 243.163281 
" style="fill:none;stroke:#abe0d6;stroke-linecap:square;stroke-width:1.5;"/>
    </g>
    <g id="line2d_44">
     <defs>
      <path d="M 0 10.606602 
L 10.606602 0 
L 0 -10.606602 
L -10.606602 0 
z
" id="mce7021d1fd" style="stroke:#abe0d6;stroke-linejoin:miter;"/>
     </defs>
     <g>
      <use style="fill:#abe0d6;stroke:#abe0d6;stroke-linejoin:miter;" x="419.079125" xlink:href="#mce7021d1fd" y="243.163281"/>
     </g>
    </g>
    <g id="text_28">
     <!-- g__Lactococcus -->
     <g transform="translate(437.079125 246.663281)scale(0.1 -0.1)">
      <use xlink:href="#DejaVuSans-103"/>
      <use x="63.476562" xlink:href="#DejaVuSans-95"/>
      <use x="113.476562" xlink:href="#DejaVuSans-95"/>
      <use x="163.476562" xlink:href="#DejaVuSans-76"/>
      <use x="219.189453" xlink:href="#DejaVuSans-97"/>
      <use x="280.46875" xlink:href="#DejaVuSans-99"/>
      <use x="335.449219" xlink:href="#DejaVuSans-116"/>
      <use x="374.658203" xlink:href="#DejaVuSans-111"/>
      <use x="435.839844" xlink:href="#DejaVuSans-99"/>
      <use x="490.820312" xlink:href="#DejaVuSans-111"/>
      <use x="552.001953" xlink:href="#DejaVuSans-99"/>
      <use x="606.982422" xlink:href="#DejaVuSans-99"/>
      <use x="661.962891" xlink:href="#DejaVuSans-117"/>
      <use x="725.341797" xlink:href="#DejaVuSans-115"/>
     </g>
    </g>
    <g id="line2d_45">
     <path d="M 409.079125 258.119531 
L 429.079125 258.119531 
" style="fill:none;stroke:#abbde0;stroke-linecap:square;stroke-width:1.5;"/>
    </g>
    <g id="line2d_46">
     <defs>
      <path d="M 0 7.5 
C 1.989023 7.5 3.896849 6.709753 5.303301 5.303301 
C 6.709753 3.896849 7.5 1.989023 7.5 0 
C 7.5 -1.989023 6.709753 -3.896849 5.303301 -5.303301 
C 3.896849 -6.709753 1.989023 -7.5 0 -7.5 
C -1.989023 -7.5 -3.896849 -6.709753 -5.303301 -5.303301 
C -6.709753 -3.896849 -7.5 -1.989023 -7.5 0 
C -7.5 1.989023 -6.709753 3.896849 -5.303301 5.303301 
C -3.896849 6.709753 -1.989023 7.5 0 7.5 
z
" id="m1c669952f1" style="stroke:#abbde0;"/>
     </defs>
     <g>
      <use style="fill:#abbde0;stroke:#abbde0;" x="419.079125" xlink:href="#m1c669952f1" y="258.119531"/>
     </g>
    </g>
    <g id="text_29">
     <!-- g__Oscillospira -->
     <defs>
      <path d="M 39.40625 66.21875 
Q 28.65625 66.21875 22.328125 58.203125 
Q 16.015625 50.203125 16.015625 36.375 
Q 16.015625 22.609375 22.328125 14.59375 
Q 28.65625 6.59375 39.40625 6.59375 
Q 50.140625 6.59375 56.421875 14.59375 
Q 62.703125 22.609375 62.703125 36.375 
Q 62.703125 50.203125 56.421875 58.203125 
Q 50.140625 66.21875 39.40625 66.21875 
z
M 39.40625 74.21875 
Q 54.734375 74.21875 63.90625 63.9375 
Q 73.09375 53.65625 73.09375 36.375 
Q 73.09375 19.140625 63.90625 8.859375 
Q 54.734375 -1.421875 39.40625 -1.421875 
Q 24.03125 -1.421875 14.8125 8.828125 
Q 5.609375 19.09375 5.609375 36.375 
Q 5.609375 53.65625 14.8125 63.9375 
Q 24.03125 74.21875 39.40625 74.21875 
z
" id="DejaVuSans-79"/>
     </defs>
     <g transform="translate(437.079125 261.619531)scale(0.1 -0.1)">
      <use xlink:href="#DejaVuSans-103"/>
      <use x="63.476562" xlink:href="#DejaVuSans-95"/>
      <use x="113.476562" xlink:href="#DejaVuSans-95"/>
      <use x="163.476562" xlink:href="#DejaVuSans-79"/>
      <use x="242.1875" xlink:href="#DejaVuSans-115"/>
      <use x="294.287109" xlink:href="#DejaVuSans-99"/>
      <use x="349.267578" xlink:href="#DejaVuSans-105"/>
      <use x="377.050781" xlink:href="#DejaVuSans-108"/>
      <use x="404.833984" xlink:href="#DejaVuSans-108"/>
      <use x="432.617188" xlink:href="#DejaVuSans-111"/>
      <use x="493.798828" xlink:href="#DejaVuSans-115"/>
      <use x="545.898438" xlink:href="#DejaVuSans-112"/>
      <use x="609.375" xlink:href="#DejaVuSans-105"/>
      <use x="637.158203" xlink:href="#DejaVuSans-114"/>
      <use x="678.271484" xlink:href="#DejaVuSans-97"/>
     </g>
    </g>
    <g id="line2d_47">
     <path d="M 409.079125 273.075781 
L 429.079125 273.075781 
" style="fill:none;stroke:#dcbfec;stroke-linecap:square;stroke-width:1.5;"/>
    </g>
    <g id="line2d_48">
     <defs>
      <path d="M 0 -7.5 
L -1.683855 -2.317627 
L -7.132924 -2.317627 
L -2.724534 0.885255 
L -4.408389 6.067627 
L -0 2.864745 
L 4.408389 6.067627 
L 2.724534 0.885255 
L 7.132924 -2.317627 
L 1.683855 -2.317627 
z
" id="mb594634009" style="stroke:#dcbfec;stroke-linejoin:bevel;"/>
     </defs>
     <g>
      <use style="fill:#dcbfec;stroke:#dcbfec;stroke-linejoin:bevel;" x="419.079125" xlink:href="#mb594634009" y="273.075781"/>
     </g>
    </g>
    <g id="text_30">
     <!-- g__Ruminococcus -->
     <g transform="translate(437.079125 276.575781)scale(0.1 -0.1)">
      <use xlink:href="#DejaVuSans-103"/>
      <use x="63.476562" xlink:href="#DejaVuSans-95"/>
      <use x="113.476562" xlink:href="#DejaVuSans-95"/>
      <use x="163.476562" xlink:href="#DejaVuSans-82"/>
      <use x="232.896484" xlink:href="#DejaVuSans-117"/>
      <use x="296.275391" xlink:href="#DejaVuSans-109"/>
      <use x="393.6875" xlink:href="#DejaVuSans-105"/>
      <use x="421.470703" xlink:href="#DejaVuSans-110"/>
      <use x="484.849609" xlink:href="#DejaVuSans-111"/>
      <use x="546.03125" xlink:href="#DejaVuSans-99"/>
      <use x="601.011719" xlink:href="#DejaVuSans-111"/>
      <use x="662.193359" xlink:href="#DejaVuSans-99"/>
      <use x="717.173828" xlink:href="#DejaVuSans-99"/>
      <use x="772.154297" xlink:href="#DejaVuSans-117"/>
      <use x="835.533203" xlink:href="#DejaVuSans-115"/>
     </g>
    </g>
    <g id="line2d_49">
     <path d="M 409.079125 288.032031 
L 429.079125 288.032031 
" style="fill:none;stroke:#ecbfd7;stroke-linecap:square;stroke-width:1.5;"/>
    </g>
    <g id="line2d_50">
     <defs>
      <path d="M 0 -7.5 
L -7.5 7.5 
L 7.5 7.5 
z
" id="m8f7a205ebf" style="stroke:#ecbfd7;stroke-linejoin:miter;"/>
     </defs>
     <g>
      <use style="fill:#ecbfd7;stroke:#ecbfd7;stroke-linejoin:miter;" x="419.079125" xlink:href="#m8f7a205ebf" y="288.032031"/>
     </g>
    </g>
    <g id="text_31">
     <!-- g__Sphingomonas -->
     <defs>
      <path d="M 53.515625 70.515625 
L 53.515625 60.890625 
Q 47.90625 63.578125 42.921875 64.890625 
Q 37.9375 66.21875 33.296875 66.21875 
Q 25.25 66.21875 20.875 63.09375 
Q 16.5 59.96875 16.5 54.203125 
Q 16.5 49.359375 19.40625 46.890625 
Q 22.3125 44.4375 30.421875 42.921875 
L 36.375 41.703125 
Q 47.40625 39.59375 52.65625 34.296875 
Q 57.90625 29 57.90625 20.125 
Q 57.90625 9.515625 50.796875 4.046875 
Q 43.703125 -1.421875 29.984375 -1.421875 
Q 24.8125 -1.421875 18.96875 -0.25 
Q 13.140625 0.921875 6.890625 3.21875 
L 6.890625 13.375 
Q 12.890625 10.015625 18.65625 8.296875 
Q 24.421875 6.59375 29.984375 6.59375 
Q 38.421875 6.59375 43.015625 9.90625 
Q 47.609375 13.234375 47.609375 19.390625 
Q 47.609375 24.75 44.3125 27.78125 
Q 41.015625 30.8125 33.5 32.328125 
L 27.484375 33.5 
Q 16.453125 35.6875 11.515625 40.375 
Q 6.59375 45.0625 6.59375 53.421875 
Q 6.59375 63.09375 13.40625 68.65625 
Q 20.21875 74.21875 32.171875 74.21875 
Q 37.3125 74.21875 42.625 73.28125 
Q 47.953125 72.359375 53.515625 70.515625 
z
" id="DejaVuSans-83"/>
     </defs>
     <g transform="translate(437.079125 291.532031)scale(0.1 -0.1)">
      <use xlink:href="#DejaVuSans-103"/>
      <use x="63.476562" xlink:href="#DejaVuSans-95"/>
      <use x="113.476562" xlink:href="#DejaVuSans-95"/>
      <use x="163.476562" xlink:href="#DejaVuSans-83"/>
      <use x="226.953125" xlink:href="#DejaVuSans-112"/>
      <use x="290.429688" xlink:href="#DejaVuSans-104"/>
      <use x="353.808594" xlink:href="#DejaVuSans-105"/>
      <use x="381.591797" xlink:href="#DejaVuSans-110"/>
      <use x="444.970703" xlink:href="#DejaVuSans-103"/>
      <use x="508.447266" xlink:href="#DejaVuSans-111"/>
      <use x="569.628906" xlink:href="#DejaVuSans-109"/>
      <use x="667.041016" xlink:href="#DejaVuSans-111"/>
      <use x="728.222656" xlink:href="#DejaVuSans-110"/>
      <use x="791.601562" xlink:href="#DejaVuSans-97"/>
      <use x="852.880859" xlink:href="#DejaVuSans-115"/>
     </g>
    </g>
    <g id="line2d_51">
     <path d="M 409.079125 302.988281 
L 429.079125 302.988281 
" style="fill:none;stroke:#0400ff;stroke-linecap:square;stroke-width:1.5;"/>
    </g>
    <g id="line2d_52">
     <defs>
      <path d="M -0 7.5 
L 7.5 -7.5 
L -7.5 -7.5 
z
" id="m949e9eba8b" style="stroke:#0400ff;stroke-linejoin:miter;"/>
     </defs>
     <g>
      <use style="fill:#0400ff;stroke:#0400ff;stroke-linejoin:miter;" x="419.079125" xlink:href="#m949e9eba8b" y="302.988281"/>
     </g>
    </g>
    <g id="text_32">
     <!-- g__Victivallis -->
     <defs>
      <path d="M 28.609375 0 
L 0.78125 72.90625 
L 11.078125 72.90625 
L 34.1875 11.53125 
L 57.328125 72.90625 
L 67.578125 72.90625 
L 39.796875 0 
z
" id="DejaVuSans-86"/>
     </defs>
     <g transform="translate(437.079125 306.488281)scale(0.1 -0.1)">
      <use xlink:href="#DejaVuSans-103"/>
      <use x="63.476562" xlink:href="#DejaVuSans-95"/>
      <use x="113.476562" xlink:href="#DejaVuSans-95"/>
      <use x="163.476562" xlink:href="#DejaVuSans-86"/>
      <use x="231.853516" xlink:href="#DejaVuSans-105"/>
      <use x="259.636719" xlink:href="#DejaVuSans-99"/>
      <use x="314.617188" xlink:href="#DejaVuSans-116"/>
      <use x="353.826172" xlink:href="#DejaVuSans-105"/>
      <use x="381.609375" xlink:href="#DejaVuSans-118"/>
      <use x="440.789062" xlink:href="#DejaVuSans-97"/>
      <use x="502.068359" xlink:href="#DejaVuSans-108"/>
      <use x="529.851562" xlink:href="#DejaVuSans-108"/>
      <use x="557.634766" xlink:href="#DejaVuSans-105"/>
      <use x="585.417969" xlink:href="#DejaVuSans-115"/>
     </g>
    </g>
    <g id="line2d_53">
     <path d="M 409.079125 317.944531 
L 429.079125 317.944531 
" style="fill:none;stroke:#cd1414;stroke-linecap:square;stroke-width:1.5;"/>
    </g>
    <g id="line2d_54">
     <g>
      <use style="fill:#cd1414;stroke:#cd1414;stroke-linejoin:miter;" x="419.079125" xlink:href="#mac6db210a6" y="317.944531"/>
     </g>
    </g>
    <g id="text_33">
     <!-- g__Weissella -->
     <defs>
      <path d="M 3.328125 72.90625 
L 13.28125 72.90625 
L 28.609375 11.28125 
L 43.890625 72.90625 
L 54.984375 72.90625 
L 70.3125 11.28125 
L 85.59375 72.90625 
L 95.609375 72.90625 
L 77.296875 0 
L 64.890625 0 
L 49.515625 63.28125 
L 33.984375 0 
L 21.578125 0 
z
" id="DejaVuSans-87"/>
     </defs>
     <g transform="translate(437.079125 321.444531)scale(0.1 -0.1)">
      <use xlink:href="#DejaVuSans-103"/>
      <use x="63.476562" xlink:href="#DejaVuSans-95"/>
      <use x="113.476562" xlink:href="#DejaVuSans-95"/>
      <use x="163.476562" xlink:href="#DejaVuSans-87"/>
      <use x="262.275391" xlink:href="#DejaVuSans-101"/>
      <use x="323.798828" xlink:href="#DejaVuSans-105"/>
      <use x="351.582031" xlink:href="#DejaVuSans-115"/>
      <use x="403.681641" xlink:href="#DejaVuSans-115"/>
      <use x="455.78125" xlink:href="#DejaVuSans-101"/>
      <use x="517.304688" xlink:href="#DejaVuSans-108"/>
      <use x="545.087891" xlink:href="#DejaVuSans-108"/>
      <use x="572.871094" xlink:href="#DejaVuSans-97"/>
     </g>
    </g>
    <g id="line2d_55">
     <path d="M 409.079125 332.900781 
L 429.079125 332.900781 
" style="fill:none;stroke:#ee831e;stroke-linecap:square;stroke-width:1.5;"/>
    </g>
    <g id="line2d_56">
     <g>
      <use style="fill:#ee831e;stroke:#ee831e;" x="419.079125" xlink:href="#m95b57c2f0e" y="332.900781"/>
     </g>
    </g>
    <g id="text_34">
     <!-- o__Bacteroidales -->
     <g transform="translate(437.079125 336.400781)scale(0.1 -0.1)">
      <use xlink:href="#DejaVuSans-111"/>
      <use x="61.181641" xlink:href="#DejaVuSans-95"/>
      <use x="111.181641" xlink:href="#DejaVuSans-95"/>
      <use x="161.181641" xlink:href="#DejaVuSans-66"/>
      <use x="229.785156" xlink:href="#DejaVuSans-97"/>
      <use x="291.064453" xlink:href="#DejaVuSans-99"/>
      <use x="346.044922" xlink:href="#DejaVuSans-116"/>
      <use x="385.253906" xlink:href="#DejaVuSans-101"/>
      <use x="446.777344" xlink:href="#DejaVuSans-114"/>
      <use x="487.859375" xlink:href="#DejaVuSans-111"/>
      <use x="549.041016" xlink:href="#DejaVuSans-105"/>
      <use x="576.824219" xlink:href="#DejaVuSans-100"/>
      <use x="640.300781" xlink:href="#DejaVuSans-97"/>
      <use x="701.580078" xlink:href="#DejaVuSans-108"/>
      <use x="729.363281" xlink:href="#DejaVuSans-101"/>
      <use x="790.886719" xlink:href="#DejaVuSans-115"/>
     </g>
    </g>
    <g id="line2d_57">
     <path d="M 409.079125 347.857031 
L 429.079125 347.857031 
" style="fill:none;stroke:#f0e31e;stroke-linecap:square;stroke-width:1.5;"/>
    </g>
    <g id="line2d_58">
     <g>
      <use style="fill:#f0e31e;stroke:#f0e31e;stroke-linejoin:bevel;" x="419.079125" xlink:href="#m14d1c8d642" y="347.857031"/>
     </g>
    </g>
    <g id="text_35">
     <!-- o__Clostridiales -->
     <g transform="translate(437.079125 351.357031)scale(0.1 -0.1)">
      <use xlink:href="#DejaVuSans-111"/>
      <use x="61.181641" xlink:href="#DejaVuSans-95"/>
      <use x="111.181641" xlink:href="#DejaVuSans-95"/>
      <use x="161.181641" xlink:href="#DejaVuSans-67"/>
      <use x="231.005859" xlink:href="#DejaVuSans-108"/>
      <use x="258.789062" xlink:href="#DejaVuSans-111"/>
      <use x="319.970703" xlink:href="#DejaVuSans-115"/>
      <use x="372.070312" xlink:href="#DejaVuSans-116"/>
      <use x="411.279297" xlink:href="#DejaVuSans-114"/>
      <use x="452.392578" xlink:href="#DejaVuSans-105"/>
      <use x="480.175781" xlink:href="#DejaVuSans-100"/>
      <use x="543.652344" xlink:href="#DejaVuSans-105"/>
      <use x="571.435547" xlink:href="#DejaVuSans-97"/>
      <use x="632.714844" xlink:href="#DejaVuSans-108"/>
      <use x="660.498047" xlink:href="#DejaVuSans-101"/>
      <use x="722.021484" xlink:href="#DejaVuSans-115"/>
     </g>
    </g>
   </g>
  </g>
 </g>
</svg>
