<?xml version="1.0" encoding="utf-8" standalone="no"?>
<!DOCTYPE svg PUBLIC "-//W3C//DTD SVG 1.1//EN"
  "http://www.w3.org/Graphics/SVG/1.1/DTD/svg11.dtd">
<!-- Created with matplotlib (https://matplotlib.org/) -->
<svg height="325.986375pt" version="1.1" viewBox="0 0 338.02625 325.986375" width="338.02625pt" xmlns="http://www.w3.org/2000/svg" xmlns:xlink="http://www.w3.org/1999/xlink">
 <defs>
  <style type="text/css">
*{stroke-linecap:butt;stroke-linejoin:round;}
  </style>
 </defs>
 <g id="figure_1">
  <g id="patch_1">
   <path d="M 0 325.986375 
L 338.02625 325.986375 
L 338.02625 0 
L 0 0 
z
" style="fill:#ffffff;"/>
  </g>
  <g id="axes_1">
   <g id="patch_2">
    <path d="M 94.457188 288.430125 
L 324.857188 288.430125 
L 324.857188 22.318125 
L 94.457188 22.318125 
z
" style="fill:#ffffff;"/>
   </g>
   <g id="patch_3">
    <path clip-path="url(#p249b2f674f)" d="M 215.042279 276.334125 
L 104.929915 276.334125 
L 104.929915 265.461316 
L 215.042279 265.461316 
z
" style="fill:#ff0000;"/>
   </g>
   <g id="patch_4">
    <path clip-path="url(#p249b2f674f)" d="M 215.042279 262.743114 
L 129.055643 262.743114 
L 129.055643 251.870305 
L 215.042279 251.870305 
z
" style="fill:#ff0000;"/>
   </g>
   <g id="patch_5">
    <path clip-path="url(#p249b2f674f)" d="M 215.042279 249.152103 
L 133.692538 249.152103 
L 133.692538 238.279294 
L 215.042279 238.279294 
z
" style="fill:#ff0000;"/>
   </g>
   <g id="patch_6">
    <path clip-path="url(#p249b2f674f)" d="M 215.042279 235.561091 
L 141.708086 235.561091 
L 141.708086 224.688282 
L 215.042279 224.688282 
z
" style="fill:#ff0000;"/>
   </g>
   <g id="patch_7">
    <path clip-path="url(#p249b2f674f)" d="M 215.042279 221.97008 
L 146.172172 221.97008 
L 146.172172 211.097271 
L 215.042279 211.097271 
z
" style="fill:#ff0000;"/>
   </g>
   <g id="patch_8">
    <path clip-path="url(#p249b2f674f)" d="M 215.042279 208.379069 
L 281.83588 208.379069 
L 281.83588 197.50626 
L 215.042279 197.50626 
z
" style="fill:#008000;"/>
   </g>
   <g id="patch_9">
    <path clip-path="url(#p249b2f674f)" d="M 215.042279 194.788058 
L 283.824892 194.788058 
L 283.824892 183.915249 
L 215.042279 183.915249 
z
" style="fill:#008000;"/>
   </g>
   <g id="patch_10">
    <path clip-path="url(#p249b2f674f)" d="M 215.042279 181.197046 
L 287.059568 181.197046 
L 287.059568 170.324237 
L 215.042279 170.324237 
z
" style="fill:#008000;"/>
   </g>
   <g id="patch_11">
    <path clip-path="url(#p249b2f674f)" d="M 215.042279 167.606035 
L 287.221252 167.606035 
L 287.221252 156.733226 
L 215.042279 156.733226 
z
" style="fill:#008000;"/>
   </g>
   <g id="patch_12">
    <path clip-path="url(#p249b2f674f)" d="M 215.042279 154.015024 
L 292.933975 154.015024 
L 292.933975 143.142215 
L 215.042279 143.142215 
z
" style="fill:#008000;"/>
   </g>
   <g id="patch_13">
    <path clip-path="url(#p249b2f674f)" d="M 215.042279 140.424013 
L 293.014557 140.424013 
L 293.014557 129.551204 
L 215.042279 129.551204 
z
" style="fill:#008000;"/>
   </g>
   <g id="patch_14">
    <path clip-path="url(#p249b2f674f)" d="M 215.042279 126.833001 
L 295.107738 126.833001 
L 295.107738 115.960192 
L 215.042279 115.960192 
z
" style="fill:#008000;"/>
   </g>
   <g id="patch_15">
    <path clip-path="url(#p249b2f674f)" d="M 215.042279 113.24199 
L 296.230385 113.24199 
L 296.230385 102.369181 
L 215.042279 102.369181 
z
" style="fill:#008000;"/>
   </g>
   <g id="patch_16">
    <path clip-path="url(#p249b2f674f)" d="M 215.042279 99.650979 
L 303.320999 99.650979 
L 303.320999 88.77817 
L 215.042279 88.77817 
z
" style="fill:#008000;"/>
   </g>
   <g id="patch_17">
    <path clip-path="url(#p249b2f674f)" d="M 215.042279 86.059968 
L 303.632969 86.059968 
L 303.632969 75.187159 
L 215.042279 75.187159 
z
" style="fill:#008000;"/>
   </g>
   <g id="patch_18">
    <path clip-path="url(#p249b2f674f)" d="M 215.042279 72.468956 
L 313.104221 72.468956 
L 313.104221 61.596147 
L 215.042279 61.596147 
z
" style="fill:#008000;"/>
   </g>
   <g id="patch_19">
    <path clip-path="url(#p249b2f674f)" d="M 215.042279 58.877945 
L 313.901559 58.877945 
L 313.901559 48.005136 
L 215.042279 48.005136 
z
" style="fill:#008000;"/>
   </g>
   <g id="patch_20">
    <path clip-path="url(#p249b2f674f)" d="M 215.042279 45.286934 
L 314.38446 45.286934 
L 314.38446 34.414125 
L 215.042279 34.414125 
z
" style="fill:#008000;"/>
   </g>
   <g id="matplotlib.axis_1">
    <g id="xtick_1">
     <g id="line2d_1">
      <defs>
       <path d="M 0 0 
L 0 3.5 
" id="m2524e54918" style="stroke:#000000;stroke-width:0.8;"/>
      </defs>
      <g>
       <use style="stroke:#000000;stroke-width:0.8;" x="121.557573" xlink:href="#m2524e54918" y="288.430125"/>
      </g>
     </g>
     <g id="text_1">
      <!-- −0.2 -->
      <defs>
       <path d="M 10.59375 35.5 
L 73.1875 35.5 
L 73.1875 27.203125 
L 10.59375 27.203125 
z
" id="DejaVuSans-8722"/>
       <path d="M 31.78125 66.40625 
Q 24.171875 66.40625 20.328125 58.90625 
Q 16.5 51.421875 16.5 36.375 
Q 16.5 21.390625 20.328125 13.890625 
Q 24.171875 6.390625 31.78125 6.390625 
Q 39.453125 6.390625 43.28125 13.890625 
Q 47.125 21.390625 47.125 36.375 
Q 47.125 51.421875 43.28125 58.90625 
Q 39.453125 66.40625 31.78125 66.40625 
z
M 31.78125 74.21875 
Q 44.046875 74.21875 50.515625 64.515625 
Q 56.984375 54.828125 56.984375 36.375 
Q 56.984375 17.96875 50.515625 8.265625 
Q 44.046875 -1.421875 31.78125 -1.421875 
Q 19.53125 -1.421875 13.0625 8.265625 
Q 6.59375 17.96875 6.59375 36.375 
Q 6.59375 54.828125 13.0625 64.515625 
Q 19.53125 74.21875 31.78125 74.21875 
z
" id="DejaVuSans-48"/>
       <path d="M 10.6875 12.40625 
L 21 12.40625 
L 21 0 
L 10.6875 0 
z
" id="DejaVuSans-46"/>
       <path d="M 19.1875 8.296875 
L 53.609375 8.296875 
L 53.609375 0 
L 7.328125 0 
L 7.328125 8.296875 
Q 12.9375 14.109375 22.625 23.890625 
Q 32.328125 33.6875 34.8125 36.53125 
Q 39.546875 41.84375 41.421875 45.53125 
Q 43.3125 49.21875 43.3125 52.78125 
Q 43.3125 58.59375 39.234375 62.25 
Q 35.15625 65.921875 28.609375 65.921875 
Q 23.96875 65.921875 18.8125 64.3125 
Q 13.671875 62.703125 7.8125 59.421875 
L 7.8125 69.390625 
Q 13.765625 71.78125 18.9375 73 
Q 24.125 74.21875 28.421875 74.21875 
Q 39.75 74.21875 46.484375 68.546875 
Q 53.21875 62.890625 53.21875 53.421875 
Q 53.21875 48.921875 51.53125 44.890625 
Q 49.859375 40.875 45.40625 35.40625 
Q 44.1875 33.984375 37.640625 27.21875 
Q 31.109375 20.453125 19.1875 8.296875 
z
" id="DejaVuSans-50"/>
      </defs>
      <g transform="translate(109.416167 303.028562)scale(0.1 -0.1)">
       <use xlink:href="#DejaVuSans-8722"/>
       <use x="83.789062" xlink:href="#DejaVuSans-48"/>
       <use x="147.412109" xlink:href="#DejaVuSans-46"/>
       <use x="179.199219" xlink:href="#DejaVuSans-50"/>
      </g>
     </g>
    </g>
    <g id="xtick_2">
     <g id="line2d_2">
      <g>
       <use style="stroke:#000000;stroke-width:0.8;" x="168.299926" xlink:href="#m2524e54918" y="288.430125"/>
      </g>
     </g>
     <g id="text_2">
      <!-- −0.1 -->
      <defs>
       <path d="M 12.40625 8.296875 
L 28.515625 8.296875 
L 28.515625 63.921875 
L 10.984375 60.40625 
L 10.984375 69.390625 
L 28.421875 72.90625 
L 38.28125 72.90625 
L 38.28125 8.296875 
L 54.390625 8.296875 
L 54.390625 0 
L 12.40625 0 
z
" id="DejaVuSans-49"/>
      </defs>
      <g transform="translate(156.15852 303.028562)scale(0.1 -0.1)">
       <use xlink:href="#DejaVuSans-8722"/>
       <use x="83.789062" xlink:href="#DejaVuSans-48"/>
       <use x="147.412109" xlink:href="#DejaVuSans-46"/>
       <use x="179.199219" xlink:href="#DejaVuSans-49"/>
      </g>
     </g>
    </g>
    <g id="xtick_3">
     <g id="line2d_3">
      <g>
       <use style="stroke:#000000;stroke-width:0.8;" x="215.042279" xlink:href="#m2524e54918" y="288.430125"/>
      </g>
     </g>
     <g id="text_3">
      <!-- 0.0 -->
      <g transform="translate(207.090717 303.028562)scale(0.1 -0.1)">
       <use xlink:href="#DejaVuSans-48"/>
       <use x="63.623047" xlink:href="#DejaVuSans-46"/>
       <use x="95.410156" xlink:href="#DejaVuSans-48"/>
      </g>
     </g>
    </g>
    <g id="xtick_4">
     <g id="line2d_4">
      <g>
       <use style="stroke:#000000;stroke-width:0.8;" x="261.784632" xlink:href="#m2524e54918" y="288.430125"/>
      </g>
     </g>
     <g id="text_4">
      <!-- 0.1 -->
      <g transform="translate(253.83307 303.028562)scale(0.1 -0.1)">
       <use xlink:href="#DejaVuSans-48"/>
       <use x="63.623047" xlink:href="#DejaVuSans-46"/>
       <use x="95.410156" xlink:href="#DejaVuSans-49"/>
      </g>
     </g>
    </g>
    <g id="xtick_5">
     <g id="line2d_5">
      <g>
       <use style="stroke:#000000;stroke-width:0.8;" x="308.526986" xlink:href="#m2524e54918" y="288.430125"/>
      </g>
     </g>
     <g id="text_5">
      <!-- 0.2 -->
      <g transform="translate(300.575423 303.028562)scale(0.1 -0.1)">
       <use xlink:href="#DejaVuSans-48"/>
       <use x="63.623047" xlink:href="#DejaVuSans-46"/>
       <use x="95.410156" xlink:href="#DejaVuSans-50"/>
      </g>
     </g>
    </g>
    <g id="text_6">
     <!-- Coeff value -->
     <defs>
      <path d="M 64.40625 67.28125 
L 64.40625 56.890625 
Q 59.421875 61.53125 53.78125 63.8125 
Q 48.140625 66.109375 41.796875 66.109375 
Q 29.296875 66.109375 22.65625 58.46875 
Q 16.015625 50.828125 16.015625 36.375 
Q 16.015625 21.96875 22.65625 14.328125 
Q 29.296875 6.6875 41.796875 6.6875 
Q 48.140625 6.6875 53.78125 8.984375 
Q 59.421875 11.28125 64.40625 15.921875 
L 64.40625 5.609375 
Q 59.234375 2.09375 53.4375 0.328125 
Q 47.65625 -1.421875 41.21875 -1.421875 
Q 24.65625 -1.421875 15.125 8.703125 
Q 5.609375 18.84375 5.609375 36.375 
Q 5.609375 53.953125 15.125 64.078125 
Q 24.65625 74.21875 41.21875 74.21875 
Q 47.75 74.21875 53.53125 72.484375 
Q 59.328125 70.75 64.40625 67.28125 
z
" id="DejaVuSans-67"/>
      <path d="M 30.609375 48.390625 
Q 23.390625 48.390625 19.1875 42.75 
Q 14.984375 37.109375 14.984375 27.296875 
Q 14.984375 17.484375 19.15625 11.84375 
Q 23.34375 6.203125 30.609375 6.203125 
Q 37.796875 6.203125 41.984375 11.859375 
Q 46.1875 17.53125 46.1875 27.296875 
Q 46.1875 37.015625 41.984375 42.703125 
Q 37.796875 48.390625 30.609375 48.390625 
z
M 30.609375 56 
Q 42.328125 56 49.015625 48.375 
Q 55.71875 40.765625 55.71875 27.296875 
Q 55.71875 13.875 49.015625 6.21875 
Q 42.328125 -1.421875 30.609375 -1.421875 
Q 18.84375 -1.421875 12.171875 6.21875 
Q 5.515625 13.875 5.515625 27.296875 
Q 5.515625 40.765625 12.171875 48.375 
Q 18.84375 56 30.609375 56 
z
" id="DejaVuSans-111"/>
      <path d="M 56.203125 29.59375 
L 56.203125 25.203125 
L 14.890625 25.203125 
Q 15.484375 15.921875 20.484375 11.0625 
Q 25.484375 6.203125 34.421875 6.203125 
Q 39.59375 6.203125 44.453125 7.46875 
Q 49.3125 8.734375 54.109375 11.28125 
L 54.109375 2.78125 
Q 49.265625 0.734375 44.1875 -0.34375 
Q 39.109375 -1.421875 33.890625 -1.421875 
Q 20.796875 -1.421875 13.15625 6.1875 
Q 5.515625 13.8125 5.515625 26.8125 
Q 5.515625 40.234375 12.765625 48.109375 
Q 20.015625 56 32.328125 56 
Q 43.359375 56 49.78125 48.890625 
Q 56.203125 41.796875 56.203125 29.59375 
z
M 47.21875 32.234375 
Q 47.125 39.59375 43.09375 43.984375 
Q 39.0625 48.390625 32.421875 48.390625 
Q 24.90625 48.390625 20.390625 44.140625 
Q 15.875 39.890625 15.1875 32.171875 
z
" id="DejaVuSans-101"/>
      <path d="M 37.109375 75.984375 
L 37.109375 68.5 
L 28.515625 68.5 
Q 23.6875 68.5 21.796875 66.546875 
Q 19.921875 64.59375 19.921875 59.515625 
L 19.921875 54.6875 
L 34.71875 54.6875 
L 34.71875 47.703125 
L 19.921875 47.703125 
L 19.921875 0 
L 10.890625 0 
L 10.890625 47.703125 
L 2.296875 47.703125 
L 2.296875 54.6875 
L 10.890625 54.6875 
L 10.890625 58.5 
Q 10.890625 67.625 15.140625 71.796875 
Q 19.390625 75.984375 28.609375 75.984375 
z
" id="DejaVuSans-102"/>
      <path id="DejaVuSans-32"/>
      <path d="M 2.984375 54.6875 
L 12.5 54.6875 
L 29.59375 8.796875 
L 46.6875 54.6875 
L 56.203125 54.6875 
L 35.6875 0 
L 23.484375 0 
z
" id="DejaVuSans-118"/>
      <path d="M 34.28125 27.484375 
Q 23.390625 27.484375 19.1875 25 
Q 14.984375 22.515625 14.984375 16.5 
Q 14.984375 11.71875 18.140625 8.90625 
Q 21.296875 6.109375 26.703125 6.109375 
Q 34.1875 6.109375 38.703125 11.40625 
Q 43.21875 16.703125 43.21875 25.484375 
L 43.21875 27.484375 
z
M 52.203125 31.203125 
L 52.203125 0 
L 43.21875 0 
L 43.21875 8.296875 
Q 40.140625 3.328125 35.546875 0.953125 
Q 30.953125 -1.421875 24.3125 -1.421875 
Q 15.921875 -1.421875 10.953125 3.296875 
Q 6 8.015625 6 15.921875 
Q 6 25.140625 12.171875 29.828125 
Q 18.359375 34.515625 30.609375 34.515625 
L 43.21875 34.515625 
L 43.21875 35.40625 
Q 43.21875 41.609375 39.140625 45 
Q 35.0625 48.390625 27.6875 48.390625 
Q 23 48.390625 18.546875 47.265625 
Q 14.109375 46.140625 10.015625 43.890625 
L 10.015625 52.203125 
Q 14.9375 54.109375 19.578125 55.046875 
Q 24.21875 56 28.609375 56 
Q 40.484375 56 46.34375 49.84375 
Q 52.203125 43.703125 52.203125 31.203125 
z
" id="DejaVuSans-97"/>
      <path d="M 9.421875 75.984375 
L 18.40625 75.984375 
L 18.40625 0 
L 9.421875 0 
z
" id="DejaVuSans-108"/>
      <path d="M 8.5 21.578125 
L 8.5 54.6875 
L 17.484375 54.6875 
L 17.484375 21.921875 
Q 17.484375 14.15625 20.5 10.265625 
Q 23.53125 6.390625 29.59375 6.390625 
Q 36.859375 6.390625 41.078125 11.03125 
Q 45.3125 15.671875 45.3125 23.6875 
L 45.3125 54.6875 
L 54.296875 54.6875 
L 54.296875 0 
L 45.3125 0 
L 45.3125 8.40625 
Q 42.046875 3.421875 37.71875 1 
Q 33.40625 -1.421875 27.6875 -1.421875 
Q 18.265625 -1.421875 13.375 4.4375 
Q 8.5 10.296875 8.5 21.578125 
z
M 31.109375 56 
z
" id="DejaVuSans-117"/>
     </defs>
     <g transform="translate(181.262656 316.706687)scale(0.1 -0.1)">
      <use xlink:href="#DejaVuSans-67"/>
      <use x="69.824219" xlink:href="#DejaVuSans-111"/>
      <use x="131.005859" xlink:href="#DejaVuSans-101"/>
      <use x="192.529297" xlink:href="#DejaVuSans-102"/>
      <use x="227.734375" xlink:href="#DejaVuSans-102"/>
      <use x="262.939453" xlink:href="#DejaVuSans-32"/>
      <use x="294.726562" xlink:href="#DejaVuSans-118"/>
      <use x="353.90625" xlink:href="#DejaVuSans-97"/>
      <use x="415.185547" xlink:href="#DejaVuSans-108"/>
      <use x="442.96875" xlink:href="#DejaVuSans-117"/>
      <use x="506.347656" xlink:href="#DejaVuSans-101"/>
     </g>
    </g>
   </g>
   <g id="matplotlib.axis_2">
    <g id="ytick_1">
     <g id="line2d_6">
      <defs>
       <path d="M 0 0 
L -3.5 0 
" id="m60a11a6721" style="stroke:#000000;stroke-width:0.8;"/>
      </defs>
      <g>
       <use style="stroke:#000000;stroke-width:0.8;" x="94.457188" xlink:href="#m60a11a6721" y="270.897721"/>
      </g>
     </g>
     <g id="text_7">
      <!--  g__Parabacteroides -->
      <defs>
       <path d="M 45.40625 27.984375 
Q 45.40625 37.75 41.375 43.109375 
Q 37.359375 48.484375 30.078125 48.484375 
Q 22.859375 48.484375 18.828125 43.109375 
Q 14.796875 37.75 14.796875 27.984375 
Q 14.796875 18.265625 18.828125 12.890625 
Q 22.859375 7.515625 30.078125 7.515625 
Q 37.359375 7.515625 41.375 12.890625 
Q 45.40625 18.265625 45.40625 27.984375 
z
M 54.390625 6.78125 
Q 54.390625 -7.171875 48.1875 -13.984375 
Q 42 -20.796875 29.203125 -20.796875 
Q 24.46875 -20.796875 20.265625 -20.09375 
Q 16.0625 -19.390625 12.109375 -17.921875 
L 12.109375 -9.1875 
Q 16.0625 -11.328125 19.921875 -12.34375 
Q 23.78125 -13.375 27.78125 -13.375 
Q 36.625 -13.375 41.015625 -8.765625 
Q 45.40625 -4.15625 45.40625 5.171875 
L 45.40625 9.625 
Q 42.625 4.78125 38.28125 2.390625 
Q 33.9375 0 27.875 0 
Q 17.828125 0 11.671875 7.65625 
Q 5.515625 15.328125 5.515625 27.984375 
Q 5.515625 40.671875 11.671875 48.328125 
Q 17.828125 56 27.875 56 
Q 33.9375 56 38.28125 53.609375 
Q 42.625 51.21875 45.40625 46.390625 
L 45.40625 54.6875 
L 54.390625 54.6875 
z
" id="DejaVuSans-103"/>
       <path d="M 50.984375 -16.609375 
L 50.984375 -23.578125 
L -0.984375 -23.578125 
L -0.984375 -16.609375 
z
" id="DejaVuSans-95"/>
       <path d="M 19.671875 64.796875 
L 19.671875 37.40625 
L 32.078125 37.40625 
Q 38.96875 37.40625 42.71875 40.96875 
Q 46.484375 44.53125 46.484375 51.125 
Q 46.484375 57.671875 42.71875 61.234375 
Q 38.96875 64.796875 32.078125 64.796875 
z
M 9.8125 72.90625 
L 32.078125 72.90625 
Q 44.34375 72.90625 50.609375 67.359375 
Q 56.890625 61.8125 56.890625 51.125 
Q 56.890625 40.328125 50.609375 34.8125 
Q 44.34375 29.296875 32.078125 29.296875 
L 19.671875 29.296875 
L 19.671875 0 
L 9.8125 0 
z
" id="DejaVuSans-80"/>
       <path d="M 41.109375 46.296875 
Q 39.59375 47.171875 37.8125 47.578125 
Q 36.03125 48 33.890625 48 
Q 26.265625 48 22.1875 43.046875 
Q 18.109375 38.09375 18.109375 28.8125 
L 18.109375 0 
L 9.078125 0 
L 9.078125 54.6875 
L 18.109375 54.6875 
L 18.109375 46.1875 
Q 20.953125 51.171875 25.484375 53.578125 
Q 30.03125 56 36.53125 56 
Q 37.453125 56 38.578125 55.875 
Q 39.703125 55.765625 41.0625 55.515625 
z
" id="DejaVuSans-114"/>
       <path d="M 48.6875 27.296875 
Q 48.6875 37.203125 44.609375 42.84375 
Q 40.53125 48.484375 33.40625 48.484375 
Q 26.265625 48.484375 22.1875 42.84375 
Q 18.109375 37.203125 18.109375 27.296875 
Q 18.109375 17.390625 22.1875 11.75 
Q 26.265625 6.109375 33.40625 6.109375 
Q 40.53125 6.109375 44.609375 11.75 
Q 48.6875 17.390625 48.6875 27.296875 
z
M 18.109375 46.390625 
Q 20.953125 51.265625 25.265625 53.625 
Q 29.59375 56 35.59375 56 
Q 45.5625 56 51.78125 48.09375 
Q 58.015625 40.1875 58.015625 27.296875 
Q 58.015625 14.40625 51.78125 6.484375 
Q 45.5625 -1.421875 35.59375 -1.421875 
Q 29.59375 -1.421875 25.265625 0.953125 
Q 20.953125 3.328125 18.109375 8.203125 
L 18.109375 0 
L 9.078125 0 
L 9.078125 75.984375 
L 18.109375 75.984375 
z
" id="DejaVuSans-98"/>
       <path d="M 48.78125 52.59375 
L 48.78125 44.1875 
Q 44.96875 46.296875 41.140625 47.34375 
Q 37.3125 48.390625 33.40625 48.390625 
Q 24.65625 48.390625 19.8125 42.84375 
Q 14.984375 37.3125 14.984375 27.296875 
Q 14.984375 17.28125 19.8125 11.734375 
Q 24.65625 6.203125 33.40625 6.203125 
Q 37.3125 6.203125 41.140625 7.25 
Q 44.96875 8.296875 48.78125 10.40625 
L 48.78125 2.09375 
Q 45.015625 0.34375 40.984375 -0.53125 
Q 36.96875 -1.421875 32.421875 -1.421875 
Q 20.0625 -1.421875 12.78125 6.34375 
Q 5.515625 14.109375 5.515625 27.296875 
Q 5.515625 40.671875 12.859375 48.328125 
Q 20.21875 56 33.015625 56 
Q 37.15625 56 41.109375 55.140625 
Q 45.0625 54.296875 48.78125 52.59375 
z
" id="DejaVuSans-99"/>
       <path d="M 18.3125 70.21875 
L 18.3125 54.6875 
L 36.8125 54.6875 
L 36.8125 47.703125 
L 18.3125 47.703125 
L 18.3125 18.015625 
Q 18.3125 11.328125 20.140625 9.421875 
Q 21.96875 7.515625 27.59375 7.515625 
L 36.8125 7.515625 
L 36.8125 0 
L 27.59375 0 
Q 17.1875 0 13.234375 3.875 
Q 9.28125 7.765625 9.28125 18.015625 
L 9.28125 47.703125 
L 2.6875 47.703125 
L 2.6875 54.6875 
L 9.28125 54.6875 
L 9.28125 70.21875 
z
" id="DejaVuSans-116"/>
       <path d="M 9.421875 54.6875 
L 18.40625 54.6875 
L 18.40625 0 
L 9.421875 0 
z
M 9.421875 75.984375 
L 18.40625 75.984375 
L 18.40625 64.59375 
L 9.421875 64.59375 
z
" id="DejaVuSans-105"/>
       <path d="M 45.40625 46.390625 
L 45.40625 75.984375 
L 54.390625 75.984375 
L 54.390625 0 
L 45.40625 0 
L 45.40625 8.203125 
Q 42.578125 3.328125 38.25 0.953125 
Q 33.9375 -1.421875 27.875 -1.421875 
Q 17.96875 -1.421875 11.734375 6.484375 
Q 5.515625 14.40625 5.515625 27.296875 
Q 5.515625 40.1875 11.734375 48.09375 
Q 17.96875 56 27.875 56 
Q 33.9375 56 38.25 53.625 
Q 42.578125 51.265625 45.40625 46.390625 
z
M 14.796875 27.296875 
Q 14.796875 17.390625 18.875 11.75 
Q 22.953125 6.109375 30.078125 6.109375 
Q 37.203125 6.109375 41.296875 11.75 
Q 45.40625 17.390625 45.40625 27.296875 
Q 45.40625 37.203125 41.296875 42.84375 
Q 37.203125 48.484375 30.078125 48.484375 
Q 22.953125 48.484375 18.875 42.84375 
Q 14.796875 37.203125 14.796875 27.296875 
z
" id="DejaVuSans-100"/>
       <path d="M 44.28125 53.078125 
L 44.28125 44.578125 
Q 40.484375 46.53125 36.375 47.5 
Q 32.28125 48.484375 27.875 48.484375 
Q 21.1875 48.484375 17.84375 46.4375 
Q 14.5 44.390625 14.5 40.28125 
Q 14.5 37.15625 16.890625 35.375 
Q 19.28125 33.59375 26.515625 31.984375 
L 29.59375 31.296875 
Q 39.15625 29.25 43.1875 25.515625 
Q 47.21875 21.78125 47.21875 15.09375 
Q 47.21875 7.46875 41.1875 3.015625 
Q 35.15625 -1.421875 24.609375 -1.421875 
Q 20.21875 -1.421875 15.453125 -0.5625 
Q 10.6875 0.296875 5.421875 2 
L 5.421875 11.28125 
Q 10.40625 8.6875 15.234375 7.390625 
Q 20.0625 6.109375 24.8125 6.109375 
Q 31.15625 6.109375 34.5625 8.28125 
Q 37.984375 10.453125 37.984375 14.40625 
Q 37.984375 18.0625 35.515625 20.015625 
Q 33.0625 21.96875 24.703125 23.78125 
L 21.578125 24.515625 
Q 13.234375 26.265625 9.515625 29.90625 
Q 5.8125 33.546875 5.8125 39.890625 
Q 5.8125 47.609375 11.28125 51.796875 
Q 16.75 56 26.8125 56 
Q 31.78125 56 36.171875 55.265625 
Q 40.578125 54.546875 44.28125 53.078125 
z
" id="DejaVuSans-115"/>
      </defs>
      <g transform="translate(16.980313 273.557174)scale(0.07 -0.07)">
       <use xlink:href="#DejaVuSans-32"/>
       <use x="31.787109" xlink:href="#DejaVuSans-103"/>
       <use x="95.263672" xlink:href="#DejaVuSans-95"/>
       <use x="145.263672" xlink:href="#DejaVuSans-95"/>
       <use x="195.263672" xlink:href="#DejaVuSans-80"/>
       <use x="255.503906" xlink:href="#DejaVuSans-97"/>
       <use x="316.783203" xlink:href="#DejaVuSans-114"/>
       <use x="357.896484" xlink:href="#DejaVuSans-97"/>
       <use x="419.175781" xlink:href="#DejaVuSans-98"/>
       <use x="482.652344" xlink:href="#DejaVuSans-97"/>
       <use x="543.931641" xlink:href="#DejaVuSans-99"/>
       <use x="598.912109" xlink:href="#DejaVuSans-116"/>
       <use x="638.121094" xlink:href="#DejaVuSans-101"/>
       <use x="699.644531" xlink:href="#DejaVuSans-114"/>
       <use x="740.726562" xlink:href="#DejaVuSans-111"/>
       <use x="801.908203" xlink:href="#DejaVuSans-105"/>
       <use x="829.691406" xlink:href="#DejaVuSans-100"/>
       <use x="893.167969" xlink:href="#DejaVuSans-101"/>
       <use x="954.691406" xlink:href="#DejaVuSans-115"/>
      </g>
     </g>
    </g>
    <g id="ytick_2">
     <g id="line2d_7">
      <g>
       <use style="stroke:#000000;stroke-width:0.8;" x="94.457188" xlink:href="#m60a11a6721" y="257.306709"/>
      </g>
     </g>
     <g id="text_8">
      <!--  f__Enterobacteriaceae -->
      <defs>
       <path d="M 9.8125 72.90625 
L 55.90625 72.90625 
L 55.90625 64.59375 
L 19.671875 64.59375 
L 19.671875 43.015625 
L 54.390625 43.015625 
L 54.390625 34.71875 
L 19.671875 34.71875 
L 19.671875 8.296875 
L 56.78125 8.296875 
L 56.78125 0 
L 9.8125 0 
z
" id="DejaVuSans-69"/>
       <path d="M 54.890625 33.015625 
L 54.890625 0 
L 45.90625 0 
L 45.90625 32.71875 
Q 45.90625 40.484375 42.875 44.328125 
Q 39.84375 48.1875 33.796875 48.1875 
Q 26.515625 48.1875 22.3125 43.546875 
Q 18.109375 38.921875 18.109375 30.90625 
L 18.109375 0 
L 9.078125 0 
L 9.078125 54.6875 
L 18.109375 54.6875 
L 18.109375 46.1875 
Q 21.34375 51.125 25.703125 53.5625 
Q 30.078125 56 35.796875 56 
Q 45.21875 56 50.046875 50.171875 
Q 54.890625 44.34375 54.890625 33.015625 
z
" id="DejaVuSans-110"/>
      </defs>
      <g transform="translate(7.2 259.966162)scale(0.07 -0.07)">
       <use xlink:href="#DejaVuSans-32"/>
       <use x="31.787109" xlink:href="#DejaVuSans-102"/>
       <use x="66.992188" xlink:href="#DejaVuSans-95"/>
       <use x="116.992188" xlink:href="#DejaVuSans-95"/>
       <use x="166.992188" xlink:href="#DejaVuSans-69"/>
       <use x="230.175781" xlink:href="#DejaVuSans-110"/>
       <use x="293.554688" xlink:href="#DejaVuSans-116"/>
       <use x="332.763672" xlink:href="#DejaVuSans-101"/>
       <use x="394.287109" xlink:href="#DejaVuSans-114"/>
       <use x="435.369141" xlink:href="#DejaVuSans-111"/>
       <use x="496.550781" xlink:href="#DejaVuSans-98"/>
       <use x="560.027344" xlink:href="#DejaVuSans-97"/>
       <use x="621.306641" xlink:href="#DejaVuSans-99"/>
       <use x="676.287109" xlink:href="#DejaVuSans-116"/>
       <use x="715.496094" xlink:href="#DejaVuSans-101"/>
       <use x="777.019531" xlink:href="#DejaVuSans-114"/>
       <use x="818.132812" xlink:href="#DejaVuSans-105"/>
       <use x="845.916016" xlink:href="#DejaVuSans-97"/>
       <use x="907.195312" xlink:href="#DejaVuSans-99"/>
       <use x="962.175781" xlink:href="#DejaVuSans-101"/>
       <use x="1023.699219" xlink:href="#DejaVuSans-97"/>
       <use x="1084.978516" xlink:href="#DejaVuSans-101"/>
      </g>
     </g>
    </g>
    <g id="ytick_3">
     <g id="line2d_8">
      <g>
       <use style="stroke:#000000;stroke-width:0.8;" x="94.457188" xlink:href="#m60a11a6721" y="243.715698"/>
      </g>
     </g>
     <g id="text_9">
      <!--  g__Anaerotruncus -->
      <defs>
       <path d="M 34.1875 63.1875 
L 20.796875 26.90625 
L 47.609375 26.90625 
z
M 28.609375 72.90625 
L 39.796875 72.90625 
L 67.578125 0 
L 57.328125 0 
L 50.6875 18.703125 
L 17.828125 18.703125 
L 11.1875 0 
L 0.78125 0 
z
" id="DejaVuSans-65"/>
      </defs>
      <g transform="translate(22.382344 246.277807)scale(0.07 -0.07)">
       <use xlink:href="#DejaVuSans-32"/>
       <use x="31.787109" xlink:href="#DejaVuSans-103"/>
       <use x="95.263672" xlink:href="#DejaVuSans-95"/>
       <use x="145.263672" xlink:href="#DejaVuSans-95"/>
       <use x="195.263672" xlink:href="#DejaVuSans-65"/>
       <use x="263.671875" xlink:href="#DejaVuSans-110"/>
       <use x="327.050781" xlink:href="#DejaVuSans-97"/>
       <use x="388.330078" xlink:href="#DejaVuSans-101"/>
       <use x="449.853516" xlink:href="#DejaVuSans-114"/>
       <use x="490.935547" xlink:href="#DejaVuSans-111"/>
       <use x="552.117188" xlink:href="#DejaVuSans-116"/>
       <use x="591.326172" xlink:href="#DejaVuSans-114"/>
       <use x="632.439453" xlink:href="#DejaVuSans-117"/>
       <use x="695.818359" xlink:href="#DejaVuSans-110"/>
       <use x="759.197266" xlink:href="#DejaVuSans-99"/>
       <use x="814.177734" xlink:href="#DejaVuSans-117"/>
       <use x="877.556641" xlink:href="#DejaVuSans-115"/>
      </g>
     </g>
    </g>
    <g id="ytick_4">
     <g id="line2d_9">
      <g>
       <use style="stroke:#000000;stroke-width:0.8;" x="94.457188" xlink:href="#m60a11a6721" y="230.124687"/>
      </g>
     </g>
     <g id="text_10">
      <!--  g__Rikenella -->
      <defs>
       <path d="M 44.390625 34.1875 
Q 47.5625 33.109375 50.5625 29.59375 
Q 53.5625 26.078125 56.59375 19.921875 
L 66.609375 0 
L 56 0 
L 46.6875 18.703125 
Q 43.0625 26.03125 39.671875 28.421875 
Q 36.28125 30.8125 30.421875 30.8125 
L 19.671875 30.8125 
L 19.671875 0 
L 9.8125 0 
L 9.8125 72.90625 
L 32.078125 72.90625 
Q 44.578125 72.90625 50.734375 67.671875 
Q 56.890625 62.453125 56.890625 51.90625 
Q 56.890625 45.015625 53.6875 40.46875 
Q 50.484375 35.9375 44.390625 34.1875 
z
M 19.671875 64.796875 
L 19.671875 38.921875 
L 32.078125 38.921875 
Q 39.203125 38.921875 42.84375 42.21875 
Q 46.484375 45.515625 46.484375 51.90625 
Q 46.484375 58.296875 42.84375 61.546875 
Q 39.203125 64.796875 32.078125 64.796875 
z
" id="DejaVuSans-82"/>
       <path d="M 9.078125 75.984375 
L 18.109375 75.984375 
L 18.109375 31.109375 
L 44.921875 54.6875 
L 56.390625 54.6875 
L 27.390625 29.109375 
L 57.625 0 
L 45.90625 0 
L 18.109375 26.703125 
L 18.109375 0 
L 9.078125 0 
z
" id="DejaVuSans-107"/>
      </defs>
      <g transform="translate(41.700156 232.78414)scale(0.07 -0.07)">
       <use xlink:href="#DejaVuSans-32"/>
       <use x="31.787109" xlink:href="#DejaVuSans-103"/>
       <use x="95.263672" xlink:href="#DejaVuSans-95"/>
       <use x="145.263672" xlink:href="#DejaVuSans-95"/>
       <use x="195.263672" xlink:href="#DejaVuSans-82"/>
       <use x="264.746094" xlink:href="#DejaVuSans-105"/>
       <use x="292.529297" xlink:href="#DejaVuSans-107"/>
       <use x="350.392578" xlink:href="#DejaVuSans-101"/>
       <use x="411.916016" xlink:href="#DejaVuSans-110"/>
       <use x="475.294922" xlink:href="#DejaVuSans-101"/>
       <use x="536.818359" xlink:href="#DejaVuSans-108"/>
       <use x="564.601562" xlink:href="#DejaVuSans-108"/>
       <use x="592.384766" xlink:href="#DejaVuSans-97"/>
      </g>
     </g>
    </g>
    <g id="ytick_5">
     <g id="line2d_10">
      <g>
       <use style="stroke:#000000;stroke-width:0.8;" x="94.457188" xlink:href="#m60a11a6721" y="216.533676"/>
      </g>
     </g>
     <g id="text_11">
      <!--  g__Cronobacter -->
      <g transform="translate(30.511094 219.193129)scale(0.07 -0.07)">
       <use xlink:href="#DejaVuSans-32"/>
       <use x="31.787109" xlink:href="#DejaVuSans-103"/>
       <use x="95.263672" xlink:href="#DejaVuSans-95"/>
       <use x="145.263672" xlink:href="#DejaVuSans-95"/>
       <use x="195.263672" xlink:href="#DejaVuSans-67"/>
       <use x="265.087891" xlink:href="#DejaVuSans-114"/>
       <use x="306.169922" xlink:href="#DejaVuSans-111"/>
       <use x="367.351562" xlink:href="#DejaVuSans-110"/>
       <use x="430.730469" xlink:href="#DejaVuSans-111"/>
       <use x="491.912109" xlink:href="#DejaVuSans-98"/>
       <use x="555.388672" xlink:href="#DejaVuSans-97"/>
       <use x="616.667969" xlink:href="#DejaVuSans-99"/>
       <use x="671.648438" xlink:href="#DejaVuSans-116"/>
       <use x="710.857422" xlink:href="#DejaVuSans-101"/>
       <use x="772.380859" xlink:href="#DejaVuSans-114"/>
      </g>
     </g>
    </g>
    <g id="ytick_6">
     <g id="line2d_11">
      <g>
       <use style="stroke:#000000;stroke-width:0.8;" x="94.457188" xlink:href="#m60a11a6721" y="202.942664"/>
      </g>
     </g>
     <g id="text_12">
      <!--  g__Prevotella -->
      <g transform="translate(38.729531 205.602117)scale(0.07 -0.07)">
       <use xlink:href="#DejaVuSans-32"/>
       <use x="31.787109" xlink:href="#DejaVuSans-103"/>
       <use x="95.263672" xlink:href="#DejaVuSans-95"/>
       <use x="145.263672" xlink:href="#DejaVuSans-95"/>
       <use x="195.263672" xlink:href="#DejaVuSans-80"/>
       <use x="255.550781" xlink:href="#DejaVuSans-114"/>
       <use x="296.632812" xlink:href="#DejaVuSans-101"/>
       <use x="358.15625" xlink:href="#DejaVuSans-118"/>
       <use x="417.335938" xlink:href="#DejaVuSans-111"/>
       <use x="478.517578" xlink:href="#DejaVuSans-116"/>
       <use x="517.726562" xlink:href="#DejaVuSans-101"/>
       <use x="579.25" xlink:href="#DejaVuSans-108"/>
       <use x="607.033203" xlink:href="#DejaVuSans-108"/>
       <use x="634.816406" xlink:href="#DejaVuSans-97"/>
      </g>
     </g>
    </g>
    <g id="ytick_7">
     <g id="line2d_12">
      <g>
       <use style="stroke:#000000;stroke-width:0.8;" x="94.457188" xlink:href="#m60a11a6721" y="189.351653"/>
      </g>
     </g>
     <g id="text_13">
      <!--  g__Megasphaera -->
      <defs>
       <path d="M 9.8125 72.90625 
L 24.515625 72.90625 
L 43.109375 23.296875 
L 61.8125 72.90625 
L 76.515625 72.90625 
L 76.515625 0 
L 66.890625 0 
L 66.890625 64.015625 
L 48.09375 14.015625 
L 38.1875 14.015625 
L 19.390625 64.015625 
L 19.390625 0 
L 9.8125 0 
z
" id="DejaVuSans-77"/>
       <path d="M 18.109375 8.203125 
L 18.109375 -20.796875 
L 9.078125 -20.796875 
L 9.078125 54.6875 
L 18.109375 54.6875 
L 18.109375 46.390625 
Q 20.953125 51.265625 25.265625 53.625 
Q 29.59375 56 35.59375 56 
Q 45.5625 56 51.78125 48.09375 
Q 58.015625 40.1875 58.015625 27.296875 
Q 58.015625 14.40625 51.78125 6.484375 
Q 45.5625 -1.421875 35.59375 -1.421875 
Q 29.59375 -1.421875 25.265625 0.953125 
Q 20.953125 3.328125 18.109375 8.203125 
z
M 48.6875 27.296875 
Q 48.6875 37.203125 44.609375 42.84375 
Q 40.53125 48.484375 33.40625 48.484375 
Q 26.265625 48.484375 22.1875 42.84375 
Q 18.109375 37.203125 18.109375 27.296875 
Q 18.109375 17.390625 22.1875 11.75 
Q 26.265625 6.109375 33.40625 6.109375 
Q 40.53125 6.109375 44.609375 11.75 
Q 48.6875 17.390625 48.6875 27.296875 
z
" id="DejaVuSans-112"/>
       <path d="M 54.890625 33.015625 
L 54.890625 0 
L 45.90625 0 
L 45.90625 32.71875 
Q 45.90625 40.484375 42.875 44.328125 
Q 39.84375 48.1875 33.796875 48.1875 
Q 26.515625 48.1875 22.3125 43.546875 
Q 18.109375 38.921875 18.109375 30.90625 
L 18.109375 0 
L 9.078125 0 
L 9.078125 75.984375 
L 18.109375 75.984375 
L 18.109375 46.1875 
Q 21.34375 51.125 25.703125 53.5625 
Q 30.078125 56 35.796875 56 
Q 45.21875 56 50.046875 50.171875 
Q 54.890625 44.34375 54.890625 33.015625 
z
" id="DejaVuSans-104"/>
      </defs>
      <g transform="translate(26.417188 192.011106)scale(0.07 -0.07)">
       <use xlink:href="#DejaVuSans-32"/>
       <use x="31.787109" xlink:href="#DejaVuSans-103"/>
       <use x="95.263672" xlink:href="#DejaVuSans-95"/>
       <use x="145.263672" xlink:href="#DejaVuSans-95"/>
       <use x="195.263672" xlink:href="#DejaVuSans-77"/>
       <use x="281.542969" xlink:href="#DejaVuSans-101"/>
       <use x="343.066406" xlink:href="#DejaVuSans-103"/>
       <use x="406.542969" xlink:href="#DejaVuSans-97"/>
       <use x="467.822266" xlink:href="#DejaVuSans-115"/>
       <use x="519.921875" xlink:href="#DejaVuSans-112"/>
       <use x="583.398438" xlink:href="#DejaVuSans-104"/>
       <use x="646.777344" xlink:href="#DejaVuSans-97"/>
       <use x="708.056641" xlink:href="#DejaVuSans-101"/>
       <use x="769.580078" xlink:href="#DejaVuSans-114"/>
       <use x="810.693359" xlink:href="#DejaVuSans-97"/>
      </g>
     </g>
    </g>
    <g id="ytick_8">
     <g id="line2d_13">
      <g>
       <use style="stroke:#000000;stroke-width:0.8;" x="94.457188" xlink:href="#m60a11a6721" y="175.760642"/>
      </g>
     </g>
     <g id="text_14">
      <!--  g__Finegoldia -->
      <defs>
       <path d="M 9.8125 72.90625 
L 51.703125 72.90625 
L 51.703125 64.59375 
L 19.671875 64.59375 
L 19.671875 43.109375 
L 48.578125 43.109375 
L 48.578125 34.8125 
L 19.671875 34.8125 
L 19.671875 0 
L 9.8125 0 
z
" id="DejaVuSans-70"/>
      </defs>
      <g transform="translate(37.732031 178.420095)scale(0.07 -0.07)">
       <use xlink:href="#DejaVuSans-32"/>
       <use x="31.787109" xlink:href="#DejaVuSans-103"/>
       <use x="95.263672" xlink:href="#DejaVuSans-95"/>
       <use x="145.263672" xlink:href="#DejaVuSans-95"/>
       <use x="195.263672" xlink:href="#DejaVuSans-70"/>
       <use x="252.673828" xlink:href="#DejaVuSans-105"/>
       <use x="280.457031" xlink:href="#DejaVuSans-110"/>
       <use x="343.835938" xlink:href="#DejaVuSans-101"/>
       <use x="405.359375" xlink:href="#DejaVuSans-103"/>
       <use x="468.835938" xlink:href="#DejaVuSans-111"/>
       <use x="530.017578" xlink:href="#DejaVuSans-108"/>
       <use x="557.800781" xlink:href="#DejaVuSans-100"/>
       <use x="621.277344" xlink:href="#DejaVuSans-105"/>
       <use x="649.060547" xlink:href="#DejaVuSans-97"/>
      </g>
     </g>
    </g>
    <g id="ytick_9">
     <g id="line2d_14">
      <g>
       <use style="stroke:#000000;stroke-width:0.8;" x="94.457188" xlink:href="#m60a11a6721" y="162.169631"/>
      </g>
     </g>
     <g id="text_15">
      <!--  g__Methylobacterium -->
      <defs>
       <path d="M 32.171875 -5.078125 
Q 28.375 -14.84375 24.75 -17.8125 
Q 21.140625 -20.796875 15.09375 -20.796875 
L 7.90625 -20.796875 
L 7.90625 -13.28125 
L 13.1875 -13.28125 
Q 16.890625 -13.28125 18.9375 -11.515625 
Q 21 -9.765625 23.484375 -3.21875 
L 25.09375 0.875 
L 2.984375 54.6875 
L 12.5 54.6875 
L 29.59375 11.921875 
L 46.6875 54.6875 
L 56.203125 54.6875 
z
" id="DejaVuSans-121"/>
       <path d="M 52 44.1875 
Q 55.375 50.25 60.0625 53.125 
Q 64.75 56 71.09375 56 
Q 79.640625 56 84.28125 50.015625 
Q 88.921875 44.046875 88.921875 33.015625 
L 88.921875 0 
L 79.890625 0 
L 79.890625 32.71875 
Q 79.890625 40.578125 77.09375 44.375 
Q 74.3125 48.1875 68.609375 48.1875 
Q 61.625 48.1875 57.5625 43.546875 
Q 53.515625 38.921875 53.515625 30.90625 
L 53.515625 0 
L 44.484375 0 
L 44.484375 32.71875 
Q 44.484375 40.625 41.703125 44.40625 
Q 38.921875 48.1875 33.109375 48.1875 
Q 26.21875 48.1875 22.15625 43.53125 
Q 18.109375 38.875 18.109375 30.90625 
L 18.109375 0 
L 9.078125 0 
L 9.078125 54.6875 
L 18.109375 54.6875 
L 18.109375 46.1875 
Q 21.1875 51.21875 25.484375 53.609375 
Q 29.78125 56 35.6875 56 
Q 41.65625 56 45.828125 52.96875 
Q 50 49.953125 52 44.1875 
z
" id="DejaVuSans-109"/>
      </defs>
      <g transform="translate(10.179375 164.829084)scale(0.07 -0.07)">
       <use xlink:href="#DejaVuSans-32"/>
       <use x="31.787109" xlink:href="#DejaVuSans-103"/>
       <use x="95.263672" xlink:href="#DejaVuSans-95"/>
       <use x="145.263672" xlink:href="#DejaVuSans-95"/>
       <use x="195.263672" xlink:href="#DejaVuSans-77"/>
       <use x="281.542969" xlink:href="#DejaVuSans-101"/>
       <use x="343.066406" xlink:href="#DejaVuSans-116"/>
       <use x="382.275391" xlink:href="#DejaVuSans-104"/>
       <use x="445.654297" xlink:href="#DejaVuSans-121"/>
       <use x="504.833984" xlink:href="#DejaVuSans-108"/>
       <use x="532.617188" xlink:href="#DejaVuSans-111"/>
       <use x="593.798828" xlink:href="#DejaVuSans-98"/>
       <use x="657.275391" xlink:href="#DejaVuSans-97"/>
       <use x="718.554688" xlink:href="#DejaVuSans-99"/>
       <use x="773.535156" xlink:href="#DejaVuSans-116"/>
       <use x="812.744141" xlink:href="#DejaVuSans-101"/>
       <use x="874.267578" xlink:href="#DejaVuSans-114"/>
       <use x="915.380859" xlink:href="#DejaVuSans-105"/>
       <use x="943.164062" xlink:href="#DejaVuSans-117"/>
       <use x="1006.542969" xlink:href="#DejaVuSans-109"/>
      </g>
     </g>
    </g>
    <g id="ytick_10">
     <g id="line2d_15">
      <g>
       <use style="stroke:#000000;stroke-width:0.8;" x="94.457188" xlink:href="#m60a11a6721" y="148.578619"/>
      </g>
     </g>
     <g id="text_16">
      <!--  g__Succinatimonas -->
      <defs>
       <path d="M 53.515625 70.515625 
L 53.515625 60.890625 
Q 47.90625 63.578125 42.921875 64.890625 
Q 37.9375 66.21875 33.296875 66.21875 
Q 25.25 66.21875 20.875 63.09375 
Q 16.5 59.96875 16.5 54.203125 
Q 16.5 49.359375 19.40625 46.890625 
Q 22.3125 44.4375 30.421875 42.921875 
L 36.375 41.703125 
Q 47.40625 39.59375 52.65625 34.296875 
Q 57.90625 29 57.90625 20.125 
Q 57.90625 9.515625 50.796875 4.046875 
Q 43.703125 -1.421875 29.984375 -1.421875 
Q 24.8125 -1.421875 18.96875 -0.25 
Q 13.140625 0.921875 6.890625 3.21875 
L 6.890625 13.375 
Q 12.890625 10.015625 18.65625 8.296875 
Q 24.421875 6.59375 29.984375 6.59375 
Q 38.421875 6.59375 43.015625 9.90625 
Q 47.609375 13.234375 47.609375 19.390625 
Q 47.609375 24.75 44.3125 27.78125 
Q 41.015625 30.8125 33.5 32.328125 
L 27.484375 33.5 
Q 16.453125 35.6875 11.515625 40.375 
Q 6.59375 45.0625 6.59375 53.421875 
Q 6.59375 63.09375 13.40625 68.65625 
Q 20.21875 74.21875 32.171875 74.21875 
Q 37.3125 74.21875 42.625 73.28125 
Q 47.953125 72.359375 53.515625 70.515625 
z
" id="DejaVuSans-83"/>
      </defs>
      <g transform="translate(18.377031 151.238073)scale(0.07 -0.07)">
       <use xlink:href="#DejaVuSans-32"/>
       <use x="31.787109" xlink:href="#DejaVuSans-103"/>
       <use x="95.263672" xlink:href="#DejaVuSans-95"/>
       <use x="145.263672" xlink:href="#DejaVuSans-95"/>
       <use x="195.263672" xlink:href="#DejaVuSans-83"/>
       <use x="258.740234" xlink:href="#DejaVuSans-117"/>
       <use x="322.119141" xlink:href="#DejaVuSans-99"/>
       <use x="377.099609" xlink:href="#DejaVuSans-99"/>
       <use x="432.080078" xlink:href="#DejaVuSans-105"/>
       <use x="459.863281" xlink:href="#DejaVuSans-110"/>
       <use x="523.242188" xlink:href="#DejaVuSans-97"/>
       <use x="584.521484" xlink:href="#DejaVuSans-116"/>
       <use x="623.730469" xlink:href="#DejaVuSans-105"/>
       <use x="651.513672" xlink:href="#DejaVuSans-109"/>
       <use x="748.925781" xlink:href="#DejaVuSans-111"/>
       <use x="810.107422" xlink:href="#DejaVuSans-110"/>
       <use x="873.486328" xlink:href="#DejaVuSans-97"/>
       <use x="934.765625" xlink:href="#DejaVuSans-115"/>
      </g>
     </g>
    </g>
    <g id="ytick_11">
     <g id="line2d_16">
      <g>
       <use style="stroke:#000000;stroke-width:0.8;" x="94.457188" xlink:href="#m60a11a6721" y="134.987608"/>
      </g>
     </g>
     <g id="text_17">
      <!--  g__Lactobacillus -->
      <defs>
       <path d="M 9.8125 72.90625 
L 19.671875 72.90625 
L 19.671875 8.296875 
L 55.171875 8.296875 
L 55.171875 0 
L 9.8125 0 
z
" id="DejaVuSans-76"/>
      </defs>
      <g transform="translate(28.222969 137.647061)scale(0.07 -0.07)">
       <use xlink:href="#DejaVuSans-32"/>
       <use x="31.787109" xlink:href="#DejaVuSans-103"/>
       <use x="95.263672" xlink:href="#DejaVuSans-95"/>
       <use x="145.263672" xlink:href="#DejaVuSans-95"/>
       <use x="195.263672" xlink:href="#DejaVuSans-76"/>
       <use x="250.976562" xlink:href="#DejaVuSans-97"/>
       <use x="312.255859" xlink:href="#DejaVuSans-99"/>
       <use x="367.236328" xlink:href="#DejaVuSans-116"/>
       <use x="406.445312" xlink:href="#DejaVuSans-111"/>
       <use x="467.626953" xlink:href="#DejaVuSans-98"/>
       <use x="531.103516" xlink:href="#DejaVuSans-97"/>
       <use x="592.382812" xlink:href="#DejaVuSans-99"/>
       <use x="647.363281" xlink:href="#DejaVuSans-105"/>
       <use x="675.146484" xlink:href="#DejaVuSans-108"/>
       <use x="702.929688" xlink:href="#DejaVuSans-108"/>
       <use x="730.712891" xlink:href="#DejaVuSans-117"/>
       <use x="794.091797" xlink:href="#DejaVuSans-115"/>
      </g>
     </g>
    </g>
    <g id="ytick_12">
     <g id="line2d_17">
      <g>
       <use style="stroke:#000000;stroke-width:0.8;" x="94.457188" xlink:href="#m60a11a6721" y="121.396597"/>
      </g>
     </g>
     <g id="text_18">
      <!--  g__Catenibacterium -->
      <g transform="translate(15.467656 124.05605)scale(0.07 -0.07)">
       <use xlink:href="#DejaVuSans-32"/>
       <use x="31.787109" xlink:href="#DejaVuSans-103"/>
       <use x="95.263672" xlink:href="#DejaVuSans-95"/>
       <use x="145.263672" xlink:href="#DejaVuSans-95"/>
       <use x="195.263672" xlink:href="#DejaVuSans-67"/>
       <use x="265.087891" xlink:href="#DejaVuSans-97"/>
       <use x="326.367188" xlink:href="#DejaVuSans-116"/>
       <use x="365.576172" xlink:href="#DejaVuSans-101"/>
       <use x="427.099609" xlink:href="#DejaVuSans-110"/>
       <use x="490.478516" xlink:href="#DejaVuSans-105"/>
       <use x="518.261719" xlink:href="#DejaVuSans-98"/>
       <use x="581.738281" xlink:href="#DejaVuSans-97"/>
       <use x="643.017578" xlink:href="#DejaVuSans-99"/>
       <use x="697.998047" xlink:href="#DejaVuSans-116"/>
       <use x="737.207031" xlink:href="#DejaVuSans-101"/>
       <use x="798.730469" xlink:href="#DejaVuSans-114"/>
       <use x="839.84375" xlink:href="#DejaVuSans-105"/>
       <use x="867.626953" xlink:href="#DejaVuSans-117"/>
       <use x="931.005859" xlink:href="#DejaVuSans-109"/>
      </g>
     </g>
    </g>
    <g id="ytick_13">
     <g id="line2d_18">
      <g>
       <use style="stroke:#000000;stroke-width:0.8;" x="94.457188" xlink:href="#m60a11a6721" y="107.805586"/>
      </g>
     </g>
     <g id="text_19">
      <!--  g__Clostridium -->
      <g transform="translate(33.816406 110.465039)scale(0.07 -0.07)">
       <use xlink:href="#DejaVuSans-32"/>
       <use x="31.787109" xlink:href="#DejaVuSans-103"/>
       <use x="95.263672" xlink:href="#DejaVuSans-95"/>
       <use x="145.263672" xlink:href="#DejaVuSans-95"/>
       <use x="195.263672" xlink:href="#DejaVuSans-67"/>
       <use x="265.087891" xlink:href="#DejaVuSans-108"/>
       <use x="292.871094" xlink:href="#DejaVuSans-111"/>
       <use x="354.052734" xlink:href="#DejaVuSans-115"/>
       <use x="406.152344" xlink:href="#DejaVuSans-116"/>
       <use x="445.361328" xlink:href="#DejaVuSans-114"/>
       <use x="486.474609" xlink:href="#DejaVuSans-105"/>
       <use x="514.257812" xlink:href="#DejaVuSans-100"/>
       <use x="577.734375" xlink:href="#DejaVuSans-105"/>
       <use x="605.517578" xlink:href="#DejaVuSans-117"/>
       <use x="668.896484" xlink:href="#DejaVuSans-109"/>
      </g>
     </g>
    </g>
    <g id="ytick_14">
     <g id="line2d_19">
      <g>
       <use style="stroke:#000000;stroke-width:0.8;" x="94.457188" xlink:href="#m60a11a6721" y="94.214574"/>
      </g>
     </g>
     <g id="text_20">
      <!--  g__Anaerococcus -->
      <g transform="translate(24.895781 96.776684)scale(0.07 -0.07)">
       <use xlink:href="#DejaVuSans-32"/>
       <use x="31.787109" xlink:href="#DejaVuSans-103"/>
       <use x="95.263672" xlink:href="#DejaVuSans-95"/>
       <use x="145.263672" xlink:href="#DejaVuSans-95"/>
       <use x="195.263672" xlink:href="#DejaVuSans-65"/>
       <use x="263.671875" xlink:href="#DejaVuSans-110"/>
       <use x="327.050781" xlink:href="#DejaVuSans-97"/>
       <use x="388.330078" xlink:href="#DejaVuSans-101"/>
       <use x="449.853516" xlink:href="#DejaVuSans-114"/>
       <use x="490.935547" xlink:href="#DejaVuSans-111"/>
       <use x="552.117188" xlink:href="#DejaVuSans-99"/>
       <use x="607.097656" xlink:href="#DejaVuSans-111"/>
       <use x="668.279297" xlink:href="#DejaVuSans-99"/>
       <use x="723.259766" xlink:href="#DejaVuSans-99"/>
       <use x="778.240234" xlink:href="#DejaVuSans-117"/>
       <use x="841.619141" xlink:href="#DejaVuSans-115"/>
      </g>
     </g>
    </g>
    <g id="ytick_15">
     <g id="line2d_20">
      <g>
       <use style="stroke:#000000;stroke-width:0.8;" x="94.457188" xlink:href="#m60a11a6721" y="80.623563"/>
      </g>
     </g>
     <g id="text_21">
      <!--  g__RFN20 -->
      <defs>
       <path d="M 9.8125 72.90625 
L 23.09375 72.90625 
L 55.421875 11.921875 
L 55.421875 72.90625 
L 64.984375 72.90625 
L 64.984375 0 
L 51.703125 0 
L 19.390625 60.984375 
L 19.390625 0 
L 9.8125 0 
z
" id="DejaVuSans-78"/>
      </defs>
      <g transform="translate(50.754219 83.221219)scale(0.07 -0.07)">
       <use xlink:href="#DejaVuSans-32"/>
       <use x="31.787109" xlink:href="#DejaVuSans-103"/>
       <use x="95.263672" xlink:href="#DejaVuSans-95"/>
       <use x="145.263672" xlink:href="#DejaVuSans-95"/>
       <use x="195.263672" xlink:href="#DejaVuSans-82"/>
       <use x="264.746094" xlink:href="#DejaVuSans-70"/>
       <use x="322.265625" xlink:href="#DejaVuSans-78"/>
       <use x="397.070312" xlink:href="#DejaVuSans-50"/>
       <use x="460.693359" xlink:href="#DejaVuSans-48"/>
      </g>
     </g>
    </g>
    <g id="ytick_16">
     <g id="line2d_21">
      <g>
       <use style="stroke:#000000;stroke-width:0.8;" x="94.457188" xlink:href="#m60a11a6721" y="67.032552"/>
      </g>
     </g>
     <g id="text_22">
      <!--  g__Peptoniphilus -->
      <g transform="translate(26.559375 69.692005)scale(0.07 -0.07)">
       <use xlink:href="#DejaVuSans-32"/>
       <use x="31.787109" xlink:href="#DejaVuSans-103"/>
       <use x="95.263672" xlink:href="#DejaVuSans-95"/>
       <use x="145.263672" xlink:href="#DejaVuSans-95"/>
       <use x="195.263672" xlink:href="#DejaVuSans-80"/>
       <use x="255.519531" xlink:href="#DejaVuSans-101"/>
       <use x="317.042969" xlink:href="#DejaVuSans-112"/>
       <use x="380.519531" xlink:href="#DejaVuSans-116"/>
       <use x="419.728516" xlink:href="#DejaVuSans-111"/>
       <use x="480.910156" xlink:href="#DejaVuSans-110"/>
       <use x="544.289062" xlink:href="#DejaVuSans-105"/>
       <use x="572.072266" xlink:href="#DejaVuSans-112"/>
       <use x="635.548828" xlink:href="#DejaVuSans-104"/>
       <use x="698.927734" xlink:href="#DejaVuSans-105"/>
       <use x="726.710938" xlink:href="#DejaVuSans-108"/>
       <use x="754.494141" xlink:href="#DejaVuSans-117"/>
       <use x="817.873047" xlink:href="#DejaVuSans-115"/>
      </g>
     </g>
    </g>
    <g id="ytick_17">
     <g id="line2d_22">
      <g>
       <use style="stroke:#000000;stroke-width:0.8;" x="94.457188" xlink:href="#m60a11a6721" y="53.441541"/>
      </g>
     </g>
     <g id="text_23">
      <!--  g__Mitsuokella -->
      <g transform="translate(34.157656 56.100994)scale(0.07 -0.07)">
       <use xlink:href="#DejaVuSans-32"/>
       <use x="31.787109" xlink:href="#DejaVuSans-103"/>
       <use x="95.263672" xlink:href="#DejaVuSans-95"/>
       <use x="145.263672" xlink:href="#DejaVuSans-95"/>
       <use x="195.263672" xlink:href="#DejaVuSans-77"/>
       <use x="281.542969" xlink:href="#DejaVuSans-105"/>
       <use x="309.326172" xlink:href="#DejaVuSans-116"/>
       <use x="348.535156" xlink:href="#DejaVuSans-115"/>
       <use x="400.634766" xlink:href="#DejaVuSans-117"/>
       <use x="464.013672" xlink:href="#DejaVuSans-111"/>
       <use x="525.195312" xlink:href="#DejaVuSans-107"/>
       <use x="583.058594" xlink:href="#DejaVuSans-101"/>
       <use x="644.582031" xlink:href="#DejaVuSans-108"/>
       <use x="672.365234" xlink:href="#DejaVuSans-108"/>
       <use x="700.148438" xlink:href="#DejaVuSans-97"/>
      </g>
     </g>
    </g>
    <g id="ytick_18">
     <g id="line2d_23">
      <g>
       <use style="stroke:#000000;stroke-width:0.8;" x="94.457188" xlink:href="#m60a11a6721" y="39.850529"/>
      </g>
     </g>
     <g id="text_24">
      <!--  g__1-68 -->
      <defs>
       <path d="M 4.890625 31.390625 
L 31.203125 31.390625 
L 31.203125 23.390625 
L 4.890625 23.390625 
z
" id="DejaVuSans-45"/>
       <path d="M 33.015625 40.375 
Q 26.375 40.375 22.484375 35.828125 
Q 18.609375 31.296875 18.609375 23.390625 
Q 18.609375 15.53125 22.484375 10.953125 
Q 26.375 6.390625 33.015625 6.390625 
Q 39.65625 6.390625 43.53125 10.953125 
Q 47.40625 15.53125 47.40625 23.390625 
Q 47.40625 31.296875 43.53125 35.828125 
Q 39.65625 40.375 33.015625 40.375 
z
M 52.59375 71.296875 
L 52.59375 62.3125 
Q 48.875 64.0625 45.09375 64.984375 
Q 41.3125 65.921875 37.59375 65.921875 
Q 27.828125 65.921875 22.671875 59.328125 
Q 17.53125 52.734375 16.796875 39.40625 
Q 19.671875 43.65625 24.015625 45.921875 
Q 28.375 48.1875 33.59375 48.1875 
Q 44.578125 48.1875 50.953125 41.515625 
Q 57.328125 34.859375 57.328125 23.390625 
Q 57.328125 12.15625 50.6875 5.359375 
Q 44.046875 -1.421875 33.015625 -1.421875 
Q 20.359375 -1.421875 13.671875 8.265625 
Q 6.984375 17.96875 6.984375 36.375 
Q 6.984375 53.65625 15.1875 63.9375 
Q 23.390625 74.21875 37.203125 74.21875 
Q 40.921875 74.21875 44.703125 73.484375 
Q 48.484375 72.75 52.59375 71.296875 
z
" id="DejaVuSans-54"/>
       <path d="M 31.78125 34.625 
Q 24.75 34.625 20.71875 30.859375 
Q 16.703125 27.09375 16.703125 20.515625 
Q 16.703125 13.921875 20.71875 10.15625 
Q 24.75 6.390625 31.78125 6.390625 
Q 38.8125 6.390625 42.859375 10.171875 
Q 46.921875 13.96875 46.921875 20.515625 
Q 46.921875 27.09375 42.890625 30.859375 
Q 38.875 34.625 31.78125 34.625 
z
M 21.921875 38.8125 
Q 15.578125 40.375 12.03125 44.71875 
Q 8.5 49.078125 8.5 55.328125 
Q 8.5 64.0625 14.71875 69.140625 
Q 20.953125 74.21875 31.78125 74.21875 
Q 42.671875 74.21875 48.875 69.140625 
Q 55.078125 64.0625 55.078125 55.328125 
Q 55.078125 49.078125 51.53125 44.71875 
Q 48 40.375 41.703125 38.8125 
Q 48.828125 37.15625 52.796875 32.3125 
Q 56.78125 27.484375 56.78125 20.515625 
Q 56.78125 9.90625 50.3125 4.234375 
Q 43.84375 -1.421875 31.78125 -1.421875 
Q 19.734375 -1.421875 13.25 4.234375 
Q 6.78125 9.90625 6.78125 20.515625 
Q 6.78125 27.484375 10.78125 32.3125 
Q 14.796875 37.15625 21.921875 38.8125 
z
M 18.3125 54.390625 
Q 18.3125 48.734375 21.84375 45.5625 
Q 25.390625 42.390625 31.78125 42.390625 
Q 38.140625 42.390625 41.71875 45.5625 
Q 45.3125 48.734375 45.3125 54.390625 
Q 45.3125 60.0625 41.71875 63.234375 
Q 38.140625 66.40625 31.78125 66.40625 
Q 25.390625 66.40625 21.84375 63.234375 
Q 18.3125 60.0625 18.3125 54.390625 
z
" id="DejaVuSans-56"/>
      </defs>
      <g transform="translate(57.901875 42.448186)scale(0.07 -0.07)">
       <use xlink:href="#DejaVuSans-32"/>
       <use x="31.787109" xlink:href="#DejaVuSans-103"/>
       <use x="95.263672" xlink:href="#DejaVuSans-95"/>
       <use x="145.263672" xlink:href="#DejaVuSans-95"/>
       <use x="195.263672" xlink:href="#DejaVuSans-49"/>
       <use x="258.886719" xlink:href="#DejaVuSans-45"/>
       <use x="294.970703" xlink:href="#DejaVuSans-54"/>
       <use x="358.59375" xlink:href="#DejaVuSans-56"/>
      </g>
     </g>
    </g>
   </g>
   <g id="patch_21">
    <path d="M 94.457188 288.430125 
L 94.457188 22.318125 
" style="fill:none;stroke:#000000;stroke-linecap:square;stroke-linejoin:miter;stroke-width:0.8;"/>
   </g>
   <g id="patch_22">
    <path d="M 324.857188 288.430125 
L 324.857188 22.318125 
" style="fill:none;stroke:#000000;stroke-linecap:square;stroke-linejoin:miter;stroke-width:0.8;"/>
   </g>
   <g id="patch_23">
    <path d="M 94.457188 288.430125 
L 324.857188 288.430125 
" style="fill:none;stroke:#000000;stroke-linecap:square;stroke-linejoin:miter;stroke-width:0.8;"/>
   </g>
   <g id="patch_24">
    <path d="M 94.457188 22.318125 
L 324.857188 22.318125 
" style="fill:none;stroke:#000000;stroke-linecap:square;stroke-linejoin:miter;stroke-width:0.8;"/>
   </g>
   <g id="text_25">
    <!-- Correlation between bacteria and target -->
    <defs>
     <path d="M 4.203125 54.6875 
L 13.1875 54.6875 
L 24.421875 12.015625 
L 35.59375 54.6875 
L 46.1875 54.6875 
L 57.421875 12.015625 
L 68.609375 54.6875 
L 77.59375 54.6875 
L 63.28125 0 
L 52.6875 0 
L 40.921875 44.828125 
L 29.109375 0 
L 18.5 0 
z
" id="DejaVuSans-119"/>
    </defs>
    <g transform="translate(88.488125 16.318125)scale(0.12 -0.12)">
     <use xlink:href="#DejaVuSans-67"/>
     <use x="69.824219" xlink:href="#DejaVuSans-111"/>
     <use x="131.005859" xlink:href="#DejaVuSans-114"/>
     <use x="172.103516" xlink:href="#DejaVuSans-114"/>
     <use x="213.185547" xlink:href="#DejaVuSans-101"/>
     <use x="274.708984" xlink:href="#DejaVuSans-108"/>
     <use x="302.492188" xlink:href="#DejaVuSans-97"/>
     <use x="363.771484" xlink:href="#DejaVuSans-116"/>
     <use x="402.980469" xlink:href="#DejaVuSans-105"/>
     <use x="430.763672" xlink:href="#DejaVuSans-111"/>
     <use x="491.945312" xlink:href="#DejaVuSans-110"/>
     <use x="555.324219" xlink:href="#DejaVuSans-32"/>
     <use x="587.111328" xlink:href="#DejaVuSans-98"/>
     <use x="650.587891" xlink:href="#DejaVuSans-101"/>
     <use x="712.111328" xlink:href="#DejaVuSans-116"/>
     <use x="751.320312" xlink:href="#DejaVuSans-119"/>
     <use x="833.107422" xlink:href="#DejaVuSans-101"/>
     <use x="894.630859" xlink:href="#DejaVuSans-101"/>
     <use x="956.154297" xlink:href="#DejaVuSans-110"/>
     <use x="1019.533203" xlink:href="#DejaVuSans-32"/>
     <use x="1051.320312" xlink:href="#DejaVuSans-98"/>
     <use x="1114.796875" xlink:href="#DejaVuSans-97"/>
     <use x="1176.076172" xlink:href="#DejaVuSans-99"/>
     <use x="1231.056641" xlink:href="#DejaVuSans-116"/>
     <use x="1270.265625" xlink:href="#DejaVuSans-101"/>
     <use x="1331.789062" xlink:href="#DejaVuSans-114"/>
     <use x="1372.902344" xlink:href="#DejaVuSans-105"/>
     <use x="1400.685547" xlink:href="#DejaVuSans-97"/>
     <use x="1461.964844" xlink:href="#DejaVuSans-32"/>
     <use x="1493.751953" xlink:href="#DejaVuSans-97"/>
     <use x="1555.03125" xlink:href="#DejaVuSans-110"/>
     <use x="1618.410156" xlink:href="#DejaVuSans-100"/>
     <use x="1681.886719" xlink:href="#DejaVuSans-32"/>
     <use x="1713.673828" xlink:href="#DejaVuSans-116"/>
     <use x="1752.882812" xlink:href="#DejaVuSans-97"/>
     <use x="1814.162109" xlink:href="#DejaVuSans-114"/>
     <use x="1855.259766" xlink:href="#DejaVuSans-103"/>
     <use x="1918.736328" xlink:href="#DejaVuSans-101"/>
     <use x="1980.259766" xlink:href="#DejaVuSans-116"/>
    </g>
   </g>
  </g>
 </g>
 <defs>
  <clipPath id="p249b2f674f">
   <rect height="266.112" width="230.4" x="94.457188" y="22.318125"/>
  </clipPath>
 </defs>
</svg>
