<?xml version="1.0" encoding="utf-8" standalone="no"?>
<!DOCTYPE svg PUBLIC "-//W3C//DTD SVG 1.1//EN"
  "http://www.w3.org/Graphics/SVG/1.1/DTD/svg11.dtd">
<!-- Created with matplotlib (https://matplotlib.org/) -->
<svg height="325.986375pt" version="1.1" viewBox="0 0 429.815625 325.986375" width="429.815625pt" xmlns="http://www.w3.org/2000/svg" xmlns:xlink="http://www.w3.org/1999/xlink">
 <defs>
  <style type="text/css">
*{stroke-linecap:butt;stroke-linejoin:round;}
  </style>
 </defs>
 <g id="figure_1">
  <g id="patch_1">
   <path d="M 0 325.986375 
L 429.815625 325.986375 
L 429.815625 0 
L 0 0 
z
" style="fill:#ffffff;"/>
  </g>
  <g id="axes_1">
   <g id="patch_2">
    <path d="M 40.603125 288.430125 
L 397.723125 288.430125 
L 397.723125 22.318125 
L 40.603125 22.318125 
z
" style="fill:#ffffff;"/>
   </g>
   <g id="patch_3">
    <path clip-path="url(#p9c6cb6392c)" d="M 90.720099 288.430125 
L 95.109018 288.430125 
L 95.109018 282.999268 
L 90.720099 282.999268 
z
" style="fill:#d95f0e;opacity:0.5;"/>
   </g>
   <g id="patch_4">
    <path clip-path="url(#p9c6cb6392c)" d="M 96.206247 288.430125 
L 100.595166 288.430125 
L 100.595166 281.188982 
L 96.206247 281.188982 
z
" style="fill:#d95f0e;opacity:0.5;"/>
   </g>
   <g id="patch_5">
    <path clip-path="url(#p9c6cb6392c)" d="M 101.692396 288.430125 
L 106.081315 288.430125 
L 106.081315 288.430125 
L 101.692396 288.430125 
z
" style="fill:#d95f0e;opacity:0.5;"/>
   </g>
   <g id="patch_6">
    <path clip-path="url(#p9c6cb6392c)" d="M 107.178545 288.430125 
L 111.567464 288.430125 
L 111.567464 281.188982 
L 107.178545 281.188982 
z
" style="fill:#d95f0e;opacity:0.5;"/>
   </g>
   <g id="patch_7">
    <path clip-path="url(#p9c6cb6392c)" d="M 112.664693 288.430125 
L 117.053612 288.430125 
L 117.053612 273.947839 
L 112.664693 273.947839 
z
" style="fill:#d95f0e;opacity:0.5;"/>
   </g>
   <g id="patch_8">
    <path clip-path="url(#p9c6cb6392c)" d="M 118.150842 288.430125 
L 122.539761 288.430125 
L 122.539761 279.378696 
L 118.150842 279.378696 
z
" style="fill:#d95f0e;opacity:0.5;"/>
   </g>
   <g id="patch_9">
    <path clip-path="url(#p9c6cb6392c)" d="M 123.636991 288.430125 
L 128.025909 288.430125 
L 128.025909 279.378696 
L 123.636991 279.378696 
z
" style="fill:#d95f0e;opacity:0.5;"/>
   </g>
   <g id="patch_10">
    <path clip-path="url(#p9c6cb6392c)" d="M 129.123139 288.430125 
L 133.512058 288.430125 
L 133.512058 264.896411 
L 129.123139 264.896411 
z
" style="fill:#d95f0e;opacity:0.5;"/>
   </g>
   <g id="patch_11">
    <path clip-path="url(#p9c6cb6392c)" d="M 134.609288 288.430125 
L 138.998207 288.430125 
L 138.998207 264.896411 
L 134.609288 264.896411 
z
" style="fill:#d95f0e;opacity:0.5;"/>
   </g>
   <g id="patch_12">
    <path clip-path="url(#p9c6cb6392c)" d="M 140.095436 288.430125 
L 144.484355 288.430125 
L 144.484355 255.844982 
L 140.095436 255.844982 
z
" style="fill:#d95f0e;opacity:0.5;"/>
   </g>
   <g id="patch_13">
    <path clip-path="url(#p9c6cb6392c)" d="M 145.581585 288.430125 
L 149.970504 288.430125 
L 149.970504 226.880411 
L 145.581585 226.880411 
z
" style="fill:#d95f0e;opacity:0.5;"/>
   </g>
   <g id="patch_14">
    <path clip-path="url(#p9c6cb6392c)" d="M 151.067734 288.430125 
L 155.456652 288.430125 
L 155.456652 208.777554 
L 151.067734 208.777554 
z
" style="fill:#d95f0e;opacity:0.5;"/>
   </g>
   <g id="patch_15">
    <path clip-path="url(#p9c6cb6392c)" d="M 156.553882 288.430125 
L 160.942801 288.430125 
L 160.942801 228.690696 
L 156.553882 228.690696 
z
" style="fill:#d95f0e;opacity:0.5;"/>
   </g>
   <g id="patch_16">
    <path clip-path="url(#p9c6cb6392c)" d="M 162.040031 288.430125 
L 166.42895 288.430125 
L 166.42895 225.070125 
L 162.040031 225.070125 
z
" style="fill:#d95f0e;opacity:0.5;"/>
   </g>
   <g id="patch_17">
    <path clip-path="url(#p9c6cb6392c)" d="M 167.526179 288.430125 
L 171.915098 288.430125 
L 171.915098 181.623268 
L 167.526179 181.623268 
z
" style="fill:#d95f0e;opacity:0.5;"/>
   </g>
   <g id="patch_18">
    <path clip-path="url(#p9c6cb6392c)" d="M 173.012328 288.430125 
L 177.401247 288.430125 
L 177.401247 167.140982 
L 173.012328 167.140982 
z
" style="fill:#d95f0e;opacity:0.5;"/>
   </g>
   <g id="patch_19">
    <path clip-path="url(#p9c6cb6392c)" d="M 178.498477 288.430125 
L 182.887396 288.430125 
L 182.887396 170.761554 
L 178.498477 170.761554 
z
" style="fill:#d95f0e;opacity:0.5;"/>
   </g>
   <g id="patch_20">
    <path clip-path="url(#p9c6cb6392c)" d="M 183.984625 288.430125 
L 188.373544 288.430125 
L 188.373544 172.571839 
L 183.984625 172.571839 
z
" style="fill:#d95f0e;opacity:0.5;"/>
   </g>
   <g id="patch_21">
    <path clip-path="url(#p9c6cb6392c)" d="M 189.470774 288.430125 
L 193.859693 288.430125 
L 193.859693 149.038125 
L 189.470774 149.038125 
z
" style="fill:#d95f0e;opacity:0.5;"/>
   </g>
   <g id="patch_22">
    <path clip-path="url(#p9c6cb6392c)" d="M 194.956923 288.430125 
L 199.345841 288.430125 
L 199.345841 125.504411 
L 194.956923 125.504411 
z
" style="fill:#d95f0e;opacity:0.5;"/>
   </g>
   <g id="patch_23">
    <path clip-path="url(#p9c6cb6392c)" d="M 200.443071 288.430125 
L 204.83199 288.430125 
L 204.83199 118.263268 
L 200.443071 118.263268 
z
" style="fill:#d95f0e;opacity:0.5;"/>
   </g>
   <g id="patch_24">
    <path clip-path="url(#p9c6cb6392c)" d="M 205.92922 288.430125 
L 210.318139 288.430125 
L 210.318139 141.796982 
L 205.92922 141.796982 
z
" style="fill:#d95f0e;opacity:0.5;"/>
   </g>
   <g id="patch_25">
    <path clip-path="url(#p9c6cb6392c)" d="M 211.415368 288.430125 
L 215.804287 288.430125 
L 215.804287 138.176411 
L 211.415368 138.176411 
z
" style="fill:#d95f0e;opacity:0.5;"/>
   </g>
   <g id="patch_26">
    <path clip-path="url(#p9c6cb6392c)" d="M 216.901517 288.430125 
L 221.290436 288.430125 
L 221.290436 101.970696 
L 216.901517 101.970696 
z
" style="fill:#d95f0e;opacity:0.5;"/>
   </g>
   <g id="patch_27">
    <path clip-path="url(#p9c6cb6392c)" d="M 222.387666 288.430125 
L 226.776584 288.430125 
L 226.776584 114.642696 
L 222.387666 114.642696 
z
" style="fill:#d95f0e;opacity:0.5;"/>
   </g>
   <g id="patch_28">
    <path clip-path="url(#p9c6cb6392c)" d="M 227.873814 288.430125 
L 232.262733 288.430125 
L 232.262733 132.745554 
L 227.873814 132.745554 
z
" style="fill:#d95f0e;opacity:0.5;"/>
   </g>
   <g id="patch_29">
    <path clip-path="url(#p9c6cb6392c)" d="M 233.359963 288.430125 
L 237.748882 288.430125 
L 237.748882 51.282696 
L 233.359963 51.282696 
z
" style="fill:#d95f0e;opacity:0.5;"/>
   </g>
   <g id="patch_30">
    <path clip-path="url(#p9c6cb6392c)" d="M 238.846111 288.430125 
L 243.23503 288.430125 
L 243.23503 112.832411 
L 238.846111 112.832411 
z
" style="fill:#d95f0e;opacity:0.5;"/>
   </g>
   <g id="patch_31">
    <path clip-path="url(#p9c6cb6392c)" d="M 244.33226 288.430125 
L 248.721179 288.430125 
L 248.721179 100.160411 
L 244.33226 100.160411 
z
" style="fill:#d95f0e;opacity:0.5;"/>
   </g>
   <g id="patch_32">
    <path clip-path="url(#p9c6cb6392c)" d="M 249.818409 288.430125 
L 254.207328 288.430125 
L 254.207328 136.366125 
L 249.818409 136.366125 
z
" style="fill:#d95f0e;opacity:0.5;"/>
   </g>
   <g id="patch_33">
    <path clip-path="url(#p9c6cb6392c)" d="M 255.304557 288.430125 
L 259.693476 288.430125 
L 259.693476 139.986696 
L 255.304557 139.986696 
z
" style="fill:#d95f0e;opacity:0.5;"/>
   </g>
   <g id="patch_34">
    <path clip-path="url(#p9c6cb6392c)" d="M 260.790706 288.430125 
L 265.179625 288.430125 
L 265.179625 141.796982 
L 260.790706 141.796982 
z
" style="fill:#d95f0e;opacity:0.5;"/>
   </g>
   <g id="patch_35">
    <path clip-path="url(#p9c6cb6392c)" d="M 266.276854 288.430125 
L 270.665773 288.430125 
L 270.665773 172.571839 
L 266.276854 172.571839 
z
" style="fill:#d95f0e;opacity:0.5;"/>
   </g>
   <g id="patch_36">
    <path clip-path="url(#p9c6cb6392c)" d="M 271.763003 288.430125 
L 276.151922 288.430125 
L 276.151922 170.761554 
L 271.763003 170.761554 
z
" style="fill:#d95f0e;opacity:0.5;"/>
   </g>
   <g id="patch_37">
    <path clip-path="url(#p9c6cb6392c)" d="M 277.249152 288.430125 
L 281.638071 288.430125 
L 281.638071 179.812982 
L 277.249152 179.812982 
z
" style="fill:#d95f0e;opacity:0.5;"/>
   </g>
   <g id="patch_38">
    <path clip-path="url(#p9c6cb6392c)" d="M 282.7353 288.430125 
L 287.124219 288.430125 
L 287.124219 190.674696 
L 282.7353 190.674696 
z
" style="fill:#d95f0e;opacity:0.5;"/>
   </g>
   <g id="patch_39">
    <path clip-path="url(#p9c6cb6392c)" d="M 288.221449 288.430125 
L 292.610368 288.430125 
L 292.610368 248.603839 
L 288.221449 248.603839 
z
" style="fill:#d95f0e;opacity:0.5;"/>
   </g>
   <g id="patch_40">
    <path clip-path="url(#p9c6cb6392c)" d="M 293.707598 288.430125 
L 298.096516 288.430125 
L 298.096516 165.330696 
L 293.707598 165.330696 
z
" style="fill:#d95f0e;opacity:0.5;"/>
   </g>
   <g id="patch_41">
    <path clip-path="url(#p9c6cb6392c)" d="M 299.193746 288.430125 
L 303.582665 288.430125 
L 303.582665 226.880411 
L 299.193746 226.880411 
z
" style="fill:#d95f0e;opacity:0.5;"/>
   </g>
   <g id="patch_42">
    <path clip-path="url(#p9c6cb6392c)" d="M 304.679895 288.430125 
L 309.068814 288.430125 
L 309.068814 261.275839 
L 304.679895 261.275839 
z
" style="fill:#d95f0e;opacity:0.5;"/>
   </g>
   <g id="patch_43">
    <path clip-path="url(#p9c6cb6392c)" d="M 310.166043 288.430125 
L 314.554962 288.430125 
L 314.554962 268.516982 
L 310.166043 268.516982 
z
" style="fill:#d95f0e;opacity:0.5;"/>
   </g>
   <g id="patch_44">
    <path clip-path="url(#p9c6cb6392c)" d="M 315.652192 288.430125 
L 320.041111 288.430125 
L 320.041111 266.706696 
L 315.652192 266.706696 
z
" style="fill:#d95f0e;opacity:0.5;"/>
   </g>
   <g id="patch_45">
    <path clip-path="url(#p9c6cb6392c)" d="M 321.138341 288.430125 
L 325.527259 288.430125 
L 325.527259 275.758125 
L 321.138341 275.758125 
z
" style="fill:#d95f0e;opacity:0.5;"/>
   </g>
   <g id="patch_46">
    <path clip-path="url(#p9c6cb6392c)" d="M 326.624489 288.430125 
L 331.013408 288.430125 
L 331.013408 273.947839 
L 326.624489 273.947839 
z
" style="fill:#d95f0e;opacity:0.5;"/>
   </g>
   <g id="patch_47">
    <path clip-path="url(#p9c6cb6392c)" d="M 332.110638 288.430125 
L 336.499557 288.430125 
L 336.499557 277.568411 
L 332.110638 277.568411 
z
" style="fill:#d95f0e;opacity:0.5;"/>
   </g>
   <g id="patch_48">
    <path clip-path="url(#p9c6cb6392c)" d="M 337.596786 288.430125 
L 341.985705 288.430125 
L 341.985705 275.758125 
L 337.596786 275.758125 
z
" style="fill:#d95f0e;opacity:0.5;"/>
   </g>
   <g id="patch_49">
    <path clip-path="url(#p9c6cb6392c)" d="M 343.082935 288.430125 
L 347.471854 288.430125 
L 347.471854 284.809554 
L 343.082935 284.809554 
z
" style="fill:#d95f0e;opacity:0.5;"/>
   </g>
   <g id="patch_50">
    <path clip-path="url(#p9c6cb6392c)" d="M 348.569084 288.430125 
L 352.958003 288.430125 
L 352.958003 286.619839 
L 348.569084 286.619839 
z
" style="fill:#d95f0e;opacity:0.5;"/>
   </g>
   <g id="patch_51">
    <path clip-path="url(#p9c6cb6392c)" d="M 354.055232 288.430125 
L 358.444151 288.430125 
L 358.444151 288.430125 
L 354.055232 288.430125 
z
" style="fill:#d95f0e;opacity:0.5;"/>
   </g>
   <g id="patch_52">
    <path clip-path="url(#p9c6cb6392c)" d="M 359.541381 288.430125 
L 363.9303 288.430125 
L 363.9303 286.619839 
L 359.541381 286.619839 
z
" style="fill:#d95f0e;opacity:0.5;"/>
   </g>
   <g id="patch_53">
    <path clip-path="url(#p9c6cb6392c)" d="M 56.835852 288.430125 
L 61.224771 288.430125 
L 61.224771 270.327268 
L 56.835852 270.327268 
z
" style="fill:#43a2ca;opacity:0.8;"/>
   </g>
   <g id="patch_54">
    <path clip-path="url(#p9c6cb6392c)" d="M 63.371885 288.430125 
L 67.760804 288.430125 
L 67.760804 288.430125 
L 63.371885 288.430125 
z
" style="fill:#43a2ca;opacity:0.8;"/>
   </g>
   <g id="patch_55">
    <path clip-path="url(#p9c6cb6392c)" d="M 69.907919 288.430125 
L 74.296838 288.430125 
L 74.296838 288.430125 
L 69.907919 288.430125 
z
" style="fill:#43a2ca;opacity:0.8;"/>
   </g>
   <g id="patch_56">
    <path clip-path="url(#p9c6cb6392c)" d="M 76.443952 288.430125 
L 80.832871 288.430125 
L 80.832871 288.430125 
L 76.443952 288.430125 
z
" style="fill:#43a2ca;opacity:0.8;"/>
   </g>
   <g id="patch_57">
    <path clip-path="url(#p9c6cb6392c)" d="M 82.979985 288.430125 
L 87.368904 288.430125 
L 87.368904 288.430125 
L 82.979985 288.430125 
z
" style="fill:#43a2ca;opacity:0.8;"/>
   </g>
   <g id="patch_58">
    <path clip-path="url(#p9c6cb6392c)" d="M 89.516018 288.430125 
L 93.904937 288.430125 
L 93.904937 270.327268 
L 89.516018 270.327268 
z
" style="fill:#43a2ca;opacity:0.8;"/>
   </g>
   <g id="patch_59">
    <path clip-path="url(#p9c6cb6392c)" d="M 96.052051 288.430125 
L 100.44097 288.430125 
L 100.44097 270.327268 
L 96.052051 270.327268 
z
" style="fill:#43a2ca;opacity:0.8;"/>
   </g>
   <g id="patch_60">
    <path clip-path="url(#p9c6cb6392c)" d="M 102.588085 288.430125 
L 106.977004 288.430125 
L 106.977004 288.430125 
L 102.588085 288.430125 
z
" style="fill:#43a2ca;opacity:0.8;"/>
   </g>
   <g id="patch_61">
    <path clip-path="url(#p9c6cb6392c)" d="M 109.124118 288.430125 
L 113.513037 288.430125 
L 113.513037 270.327268 
L 109.124118 270.327268 
z
" style="fill:#43a2ca;opacity:0.8;"/>
   </g>
   <g id="patch_62">
    <path clip-path="url(#p9c6cb6392c)" d="M 115.660151 288.430125 
L 120.04907 288.430125 
L 120.04907 270.327268 
L 115.660151 270.327268 
z
" style="fill:#43a2ca;opacity:0.8;"/>
   </g>
   <g id="patch_63">
    <path clip-path="url(#p9c6cb6392c)" d="M 122.196184 288.430125 
L 126.585103 288.430125 
L 126.585103 252.224411 
L 122.196184 252.224411 
z
" style="fill:#43a2ca;opacity:0.8;"/>
   </g>
   <g id="patch_64">
    <path clip-path="url(#p9c6cb6392c)" d="M 128.732217 288.430125 
L 133.121136 288.430125 
L 133.121136 234.121554 
L 128.732217 234.121554 
z
" style="fill:#43a2ca;opacity:0.8;"/>
   </g>
   <g id="patch_65">
    <path clip-path="url(#p9c6cb6392c)" d="M 135.268251 288.430125 
L 139.65717 288.430125 
L 139.65717 234.121554 
L 135.268251 234.121554 
z
" style="fill:#43a2ca;opacity:0.8;"/>
   </g>
   <g id="patch_66">
    <path clip-path="url(#p9c6cb6392c)" d="M 141.804284 288.430125 
L 146.193203 288.430125 
L 146.193203 270.327268 
L 141.804284 270.327268 
z
" style="fill:#43a2ca;opacity:0.8;"/>
   </g>
   <g id="patch_67">
    <path clip-path="url(#p9c6cb6392c)" d="M 148.340317 288.430125 
L 152.729236 288.430125 
L 152.729236 270.327268 
L 148.340317 270.327268 
z
" style="fill:#43a2ca;opacity:0.8;"/>
   </g>
   <g id="patch_68">
    <path clip-path="url(#p9c6cb6392c)" d="M 154.87635 288.430125 
L 159.265269 288.430125 
L 159.265269 270.327268 
L 154.87635 270.327268 
z
" style="fill:#43a2ca;opacity:0.8;"/>
   </g>
   <g id="patch_69">
    <path clip-path="url(#p9c6cb6392c)" d="M 161.412383 288.430125 
L 165.801302 288.430125 
L 165.801302 234.121554 
L 161.412383 234.121554 
z
" style="fill:#43a2ca;opacity:0.8;"/>
   </g>
   <g id="patch_70">
    <path clip-path="url(#p9c6cb6392c)" d="M 167.948417 288.430125 
L 172.337335 288.430125 
L 172.337335 143.607268 
L 167.948417 143.607268 
z
" style="fill:#43a2ca;opacity:0.8;"/>
   </g>
   <g id="patch_71">
    <path clip-path="url(#p9c6cb6392c)" d="M 174.48445 288.430125 
L 178.873369 288.430125 
L 178.873369 197.915839 
L 174.48445 197.915839 
z
" style="fill:#43a2ca;opacity:0.8;"/>
   </g>
   <g id="patch_72">
    <path clip-path="url(#p9c6cb6392c)" d="M 181.020483 288.430125 
L 185.409402 288.430125 
L 185.409402 197.915839 
L 181.020483 197.915839 
z
" style="fill:#43a2ca;opacity:0.8;"/>
   </g>
   <g id="patch_73">
    <path clip-path="url(#p9c6cb6392c)" d="M 187.556516 288.430125 
L 191.945435 288.430125 
L 191.945435 252.224411 
L 187.556516 252.224411 
z
" style="fill:#43a2ca;opacity:0.8;"/>
   </g>
   <g id="patch_74">
    <path clip-path="url(#p9c6cb6392c)" d="M 194.092549 288.430125 
L 198.481468 288.430125 
L 198.481468 143.607268 
L 194.092549 143.607268 
z
" style="fill:#43a2ca;opacity:0.8;"/>
   </g>
   <g id="patch_75">
    <path clip-path="url(#p9c6cb6392c)" d="M 200.628583 288.430125 
L 205.017501 288.430125 
L 205.017501 71.195839 
L 200.628583 71.195839 
z
" style="fill:#43a2ca;opacity:0.8;"/>
   </g>
   <g id="patch_76">
    <path clip-path="url(#p9c6cb6392c)" d="M 207.164616 288.430125 
L 211.553535 288.430125 
L 211.553535 71.195839 
L 207.164616 71.195839 
z
" style="fill:#43a2ca;opacity:0.8;"/>
   </g>
   <g id="patch_77">
    <path clip-path="url(#p9c6cb6392c)" d="M 213.700649 288.430125 
L 218.089568 288.430125 
L 218.089568 179.812982 
L 213.700649 179.812982 
z
" style="fill:#43a2ca;opacity:0.8;"/>
   </g>
   <g id="patch_78">
    <path clip-path="url(#p9c6cb6392c)" d="M 220.236682 288.430125 
L 224.625601 288.430125 
L 224.625601 107.401554 
L 220.236682 107.401554 
z
" style="fill:#43a2ca;opacity:0.8;"/>
   </g>
   <g id="patch_79">
    <path clip-path="url(#p9c6cb6392c)" d="M 226.772715 288.430125 
L 231.161634 288.430125 
L 231.161634 125.504411 
L 226.772715 125.504411 
z
" style="fill:#43a2ca;opacity:0.8;"/>
   </g>
   <g id="patch_80">
    <path clip-path="url(#p9c6cb6392c)" d="M 233.308749 288.430125 
L 237.697667 288.430125 
L 237.697667 143.607268 
L 233.308749 143.607268 
z
" style="fill:#43a2ca;opacity:0.8;"/>
   </g>
   <g id="patch_81">
    <path clip-path="url(#p9c6cb6392c)" d="M 239.844782 288.430125 
L 244.233701 288.430125 
L 244.233701 107.401554 
L 239.844782 107.401554 
z
" style="fill:#43a2ca;opacity:0.8;"/>
   </g>
   <g id="patch_82">
    <path clip-path="url(#p9c6cb6392c)" d="M 246.380815 288.430125 
L 250.769734 288.430125 
L 250.769734 107.401554 
L 246.380815 107.401554 
z
" style="fill:#43a2ca;opacity:0.8;"/>
   </g>
   <g id="patch_83">
    <path clip-path="url(#p9c6cb6392c)" d="M 252.916848 288.430125 
L 257.305767 288.430125 
L 257.305767 143.607268 
L 252.916848 143.607268 
z
" style="fill:#43a2ca;opacity:0.8;"/>
   </g>
   <g id="patch_84">
    <path clip-path="url(#p9c6cb6392c)" d="M 259.452881 288.430125 
L 263.8418 288.430125 
L 263.8418 143.607268 
L 259.452881 143.607268 
z
" style="fill:#43a2ca;opacity:0.8;"/>
   </g>
   <g id="patch_85">
    <path clip-path="url(#p9c6cb6392c)" d="M 265.988915 288.430125 
L 270.377833 288.430125 
L 270.377833 53.092982 
L 265.988915 53.092982 
z
" style="fill:#43a2ca;opacity:0.8;"/>
   </g>
   <g id="patch_86">
    <path clip-path="url(#p9c6cb6392c)" d="M 272.524948 288.430125 
L 276.913867 288.430125 
L 276.913867 143.607268 
L 272.524948 143.607268 
z
" style="fill:#43a2ca;opacity:0.8;"/>
   </g>
   <g id="patch_87">
    <path clip-path="url(#p9c6cb6392c)" d="M 279.060981 288.430125 
L 283.4499 288.430125 
L 283.4499 179.812982 
L 279.060981 179.812982 
z
" style="fill:#43a2ca;opacity:0.8;"/>
   </g>
   <g id="patch_88">
    <path clip-path="url(#p9c6cb6392c)" d="M 285.597014 288.430125 
L 289.985933 288.430125 
L 289.985933 161.710125 
L 285.597014 161.710125 
z
" style="fill:#43a2ca;opacity:0.8;"/>
   </g>
   <g id="patch_89">
    <path clip-path="url(#p9c6cb6392c)" d="M 292.133047 288.430125 
L 296.521966 288.430125 
L 296.521966 34.990125 
L 292.133047 34.990125 
z
" style="fill:#43a2ca;opacity:0.8;"/>
   </g>
   <g id="patch_90">
    <path clip-path="url(#p9c6cb6392c)" d="M 298.66908 288.430125 
L 303.057999 288.430125 
L 303.057999 216.018696 
L 298.66908 216.018696 
z
" style="fill:#43a2ca;opacity:0.8;"/>
   </g>
   <g id="patch_91">
    <path clip-path="url(#p9c6cb6392c)" d="M 305.205114 288.430125 
L 309.594033 288.430125 
L 309.594033 252.224411 
L 305.205114 252.224411 
z
" style="fill:#43a2ca;opacity:0.8;"/>
   </g>
   <g id="patch_92">
    <path clip-path="url(#p9c6cb6392c)" d="M 311.741147 288.430125 
L 316.130066 288.430125 
L 316.130066 179.812982 
L 311.741147 179.812982 
z
" style="fill:#43a2ca;opacity:0.8;"/>
   </g>
   <g id="patch_93">
    <path clip-path="url(#p9c6cb6392c)" d="M 318.27718 288.430125 
L 322.666099 288.430125 
L 322.666099 216.018696 
L 318.27718 216.018696 
z
" style="fill:#43a2ca;opacity:0.8;"/>
   </g>
   <g id="patch_94">
    <path clip-path="url(#p9c6cb6392c)" d="M 324.813213 288.430125 
L 329.202132 288.430125 
L 329.202132 234.121554 
L 324.813213 234.121554 
z
" style="fill:#43a2ca;opacity:0.8;"/>
   </g>
   <g id="patch_95">
    <path clip-path="url(#p9c6cb6392c)" d="M 331.349246 288.430125 
L 335.738165 288.430125 
L 335.738165 252.224411 
L 331.349246 252.224411 
z
" style="fill:#43a2ca;opacity:0.8;"/>
   </g>
   <g id="patch_96">
    <path clip-path="url(#p9c6cb6392c)" d="M 337.88528 288.430125 
L 342.274199 288.430125 
L 342.274199 252.224411 
L 337.88528 252.224411 
z
" style="fill:#43a2ca;opacity:0.8;"/>
   </g>
   <g id="patch_97">
    <path clip-path="url(#p9c6cb6392c)" d="M 344.421313 288.430125 
L 348.810232 288.430125 
L 348.810232 252.224411 
L 344.421313 252.224411 
z
" style="fill:#43a2ca;opacity:0.8;"/>
   </g>
   <g id="patch_98">
    <path clip-path="url(#p9c6cb6392c)" d="M 350.957346 288.430125 
L 355.346265 288.430125 
L 355.346265 252.224411 
L 350.957346 252.224411 
z
" style="fill:#43a2ca;opacity:0.8;"/>
   </g>
   <g id="patch_99">
    <path clip-path="url(#p9c6cb6392c)" d="M 357.493379 288.430125 
L 361.882298 288.430125 
L 361.882298 288.430125 
L 357.493379 288.430125 
z
" style="fill:#43a2ca;opacity:0.8;"/>
   </g>
   <g id="patch_100">
    <path clip-path="url(#p9c6cb6392c)" d="M 364.029412 288.430125 
L 368.418331 288.430125 
L 368.418331 252.224411 
L 364.029412 252.224411 
z
" style="fill:#43a2ca;opacity:0.8;"/>
   </g>
   <g id="patch_101">
    <path clip-path="url(#p9c6cb6392c)" d="M 370.565446 288.430125 
L 374.954365 288.430125 
L 374.954365 288.430125 
L 370.565446 288.430125 
z
" style="fill:#43a2ca;opacity:0.8;"/>
   </g>
   <g id="patch_102">
    <path clip-path="url(#p9c6cb6392c)" d="M 377.101479 288.430125 
L 381.490398 288.430125 
L 381.490398 234.121554 
L 377.101479 234.121554 
z
" style="fill:#43a2ca;opacity:0.8;"/>
   </g>
   <g id="matplotlib.axis_1">
    <g id="xtick_1">
     <g id="line2d_1">
      <defs>
       <path d="M 0 0 
L 0 3.5 
" id="mbe61b90181" style="stroke:#000000;stroke-width:0.8;"/>
      </defs>
      <g>
       <use style="stroke:#000000;stroke-width:0.8;" x="84.973632" xlink:href="#mbe61b90181" y="288.430125"/>
      </g>
     </g>
     <g id="text_1">
      <!-- −0.2 -->
      <defs>
       <path d="M 10.59375 35.5 
L 73.1875 35.5 
L 73.1875 27.203125 
L 10.59375 27.203125 
z
" id="DejaVuSans-8722"/>
       <path d="M 31.78125 66.40625 
Q 24.171875 66.40625 20.328125 58.90625 
Q 16.5 51.421875 16.5 36.375 
Q 16.5 21.390625 20.328125 13.890625 
Q 24.171875 6.390625 31.78125 6.390625 
Q 39.453125 6.390625 43.28125 13.890625 
Q 47.125 21.390625 47.125 36.375 
Q 47.125 51.421875 43.28125 58.90625 
Q 39.453125 66.40625 31.78125 66.40625 
z
M 31.78125 74.21875 
Q 44.046875 74.21875 50.515625 64.515625 
Q 56.984375 54.828125 56.984375 36.375 
Q 56.984375 17.96875 50.515625 8.265625 
Q 44.046875 -1.421875 31.78125 -1.421875 
Q 19.53125 -1.421875 13.0625 8.265625 
Q 6.59375 17.96875 6.59375 36.375 
Q 6.59375 54.828125 13.0625 64.515625 
Q 19.53125 74.21875 31.78125 74.21875 
z
" id="DejaVuSans-48"/>
       <path d="M 10.6875 12.40625 
L 21 12.40625 
L 21 0 
L 10.6875 0 
z
" id="DejaVuSans-46"/>
       <path d="M 19.1875 8.296875 
L 53.609375 8.296875 
L 53.609375 0 
L 7.328125 0 
L 7.328125 8.296875 
Q 12.9375 14.109375 22.625 23.890625 
Q 32.328125 33.6875 34.8125 36.53125 
Q 39.546875 41.84375 41.421875 45.53125 
Q 43.3125 49.21875 43.3125 52.78125 
Q 43.3125 58.59375 39.234375 62.25 
Q 35.15625 65.921875 28.609375 65.921875 
Q 23.96875 65.921875 18.8125 64.3125 
Q 13.671875 62.703125 7.8125 59.421875 
L 7.8125 69.390625 
Q 13.765625 71.78125 18.9375 73 
Q 24.125 74.21875 28.421875 74.21875 
Q 39.75 74.21875 46.484375 68.546875 
Q 53.21875 62.890625 53.21875 53.421875 
Q 53.21875 48.921875 51.53125 44.890625 
Q 49.859375 40.875 45.40625 35.40625 
Q 44.1875 33.984375 37.640625 27.21875 
Q 31.109375 20.453125 19.1875 8.296875 
z
" id="DejaVuSans-50"/>
      </defs>
      <g transform="translate(72.832226 303.028562)scale(0.1 -0.1)">
       <use xlink:href="#DejaVuSans-8722"/>
       <use x="83.789062" xlink:href="#DejaVuSans-48"/>
       <use x="147.412109" xlink:href="#DejaVuSans-46"/>
       <use x="179.199219" xlink:href="#DejaVuSans-50"/>
      </g>
     </g>
    </g>
    <g id="xtick_2">
     <g id="line2d_2">
      <g>
       <use style="stroke:#000000;stroke-width:0.8;" x="157.903434" xlink:href="#mbe61b90181" y="288.430125"/>
      </g>
     </g>
     <g id="text_2">
      <!-- −0.1 -->
      <defs>
       <path d="M 12.40625 8.296875 
L 28.515625 8.296875 
L 28.515625 63.921875 
L 10.984375 60.40625 
L 10.984375 69.390625 
L 28.421875 72.90625 
L 38.28125 72.90625 
L 38.28125 8.296875 
L 54.390625 8.296875 
L 54.390625 0 
L 12.40625 0 
z
" id="DejaVuSans-49"/>
      </defs>
      <g transform="translate(145.762028 303.028562)scale(0.1 -0.1)">
       <use xlink:href="#DejaVuSans-8722"/>
       <use x="83.789062" xlink:href="#DejaVuSans-48"/>
       <use x="147.412109" xlink:href="#DejaVuSans-46"/>
       <use x="179.199219" xlink:href="#DejaVuSans-49"/>
      </g>
     </g>
    </g>
    <g id="xtick_3">
     <g id="line2d_3">
      <g>
       <use style="stroke:#000000;stroke-width:0.8;" x="230.833236" xlink:href="#mbe61b90181" y="288.430125"/>
      </g>
     </g>
     <g id="text_3">
      <!-- 0.0 -->
      <g transform="translate(222.881674 303.028562)scale(0.1 -0.1)">
       <use xlink:href="#DejaVuSans-48"/>
       <use x="63.623047" xlink:href="#DejaVuSans-46"/>
       <use x="95.410156" xlink:href="#DejaVuSans-48"/>
      </g>
     </g>
    </g>
    <g id="xtick_4">
     <g id="line2d_4">
      <g>
       <use style="stroke:#000000;stroke-width:0.8;" x="303.763039" xlink:href="#mbe61b90181" y="288.430125"/>
      </g>
     </g>
     <g id="text_4">
      <!-- 0.1 -->
      <g transform="translate(295.811476 303.028562)scale(0.1 -0.1)">
       <use xlink:href="#DejaVuSans-48"/>
       <use x="63.623047" xlink:href="#DejaVuSans-46"/>
       <use x="95.410156" xlink:href="#DejaVuSans-49"/>
      </g>
     </g>
    </g>
    <g id="xtick_5">
     <g id="line2d_5">
      <g>
       <use style="stroke:#000000;stroke-width:0.8;" x="376.692841" xlink:href="#mbe61b90181" y="288.430125"/>
      </g>
     </g>
     <g id="text_5">
      <!-- 0.2 -->
      <g transform="translate(368.741278 303.028562)scale(0.1 -0.1)">
       <use xlink:href="#DejaVuSans-48"/>
       <use x="63.623047" xlink:href="#DejaVuSans-46"/>
       <use x="95.410156" xlink:href="#DejaVuSans-50"/>
      </g>
     </g>
    </g>
    <g id="text_6">
     <!-- Rho value -->
     <defs>
      <path d="M 44.390625 34.1875 
Q 47.5625 33.109375 50.5625 29.59375 
Q 53.5625 26.078125 56.59375 19.921875 
L 66.609375 0 
L 56 0 
L 46.6875 18.703125 
Q 43.0625 26.03125 39.671875 28.421875 
Q 36.28125 30.8125 30.421875 30.8125 
L 19.671875 30.8125 
L 19.671875 0 
L 9.8125 0 
L 9.8125 72.90625 
L 32.078125 72.90625 
Q 44.578125 72.90625 50.734375 67.671875 
Q 56.890625 62.453125 56.890625 51.90625 
Q 56.890625 45.015625 53.6875 40.46875 
Q 50.484375 35.9375 44.390625 34.1875 
z
M 19.671875 64.796875 
L 19.671875 38.921875 
L 32.078125 38.921875 
Q 39.203125 38.921875 42.84375 42.21875 
Q 46.484375 45.515625 46.484375 51.90625 
Q 46.484375 58.296875 42.84375 61.546875 
Q 39.203125 64.796875 32.078125 64.796875 
z
" id="DejaVuSans-82"/>
      <path d="M 54.890625 33.015625 
L 54.890625 0 
L 45.90625 0 
L 45.90625 32.71875 
Q 45.90625 40.484375 42.875 44.328125 
Q 39.84375 48.1875 33.796875 48.1875 
Q 26.515625 48.1875 22.3125 43.546875 
Q 18.109375 38.921875 18.109375 30.90625 
L 18.109375 0 
L 9.078125 0 
L 9.078125 75.984375 
L 18.109375 75.984375 
L 18.109375 46.1875 
Q 21.34375 51.125 25.703125 53.5625 
Q 30.078125 56 35.796875 56 
Q 45.21875 56 50.046875 50.171875 
Q 54.890625 44.34375 54.890625 33.015625 
z
" id="DejaVuSans-104"/>
      <path d="M 30.609375 48.390625 
Q 23.390625 48.390625 19.1875 42.75 
Q 14.984375 37.109375 14.984375 27.296875 
Q 14.984375 17.484375 19.15625 11.84375 
Q 23.34375 6.203125 30.609375 6.203125 
Q 37.796875 6.203125 41.984375 11.859375 
Q 46.1875 17.53125 46.1875 27.296875 
Q 46.1875 37.015625 41.984375 42.703125 
Q 37.796875 48.390625 30.609375 48.390625 
z
M 30.609375 56 
Q 42.328125 56 49.015625 48.375 
Q 55.71875 40.765625 55.71875 27.296875 
Q 55.71875 13.875 49.015625 6.21875 
Q 42.328125 -1.421875 30.609375 -1.421875 
Q 18.84375 -1.421875 12.171875 6.21875 
Q 5.515625 13.875 5.515625 27.296875 
Q 5.515625 40.765625 12.171875 48.375 
Q 18.84375 56 30.609375 56 
z
" id="DejaVuSans-111"/>
      <path id="DejaVuSans-32"/>
      <path d="M 2.984375 54.6875 
L 12.5 54.6875 
L 29.59375 8.796875 
L 46.6875 54.6875 
L 56.203125 54.6875 
L 35.6875 0 
L 23.484375 0 
z
" id="DejaVuSans-118"/>
      <path d="M 34.28125 27.484375 
Q 23.390625 27.484375 19.1875 25 
Q 14.984375 22.515625 14.984375 16.5 
Q 14.984375 11.71875 18.140625 8.90625 
Q 21.296875 6.109375 26.703125 6.109375 
Q 34.1875 6.109375 38.703125 11.40625 
Q 43.21875 16.703125 43.21875 25.484375 
L 43.21875 27.484375 
z
M 52.203125 31.203125 
L 52.203125 0 
L 43.21875 0 
L 43.21875 8.296875 
Q 40.140625 3.328125 35.546875 0.953125 
Q 30.953125 -1.421875 24.3125 -1.421875 
Q 15.921875 -1.421875 10.953125 3.296875 
Q 6 8.015625 6 15.921875 
Q 6 25.140625 12.171875 29.828125 
Q 18.359375 34.515625 30.609375 34.515625 
L 43.21875 34.515625 
L 43.21875 35.40625 
Q 43.21875 41.609375 39.140625 45 
Q 35.0625 48.390625 27.6875 48.390625 
Q 23 48.390625 18.546875 47.265625 
Q 14.109375 46.140625 10.015625 43.890625 
L 10.015625 52.203125 
Q 14.9375 54.109375 19.578125 55.046875 
Q 24.21875 56 28.609375 56 
Q 40.484375 56 46.34375 49.84375 
Q 52.203125 43.703125 52.203125 31.203125 
z
" id="DejaVuSans-97"/>
      <path d="M 9.421875 75.984375 
L 18.40625 75.984375 
L 18.40625 0 
L 9.421875 0 
z
" id="DejaVuSans-108"/>
      <path d="M 8.5 21.578125 
L 8.5 54.6875 
L 17.484375 54.6875 
L 17.484375 21.921875 
Q 17.484375 14.15625 20.5 10.265625 
Q 23.53125 6.390625 29.59375 6.390625 
Q 36.859375 6.390625 41.078125 11.03125 
Q 45.3125 15.671875 45.3125 23.6875 
L 45.3125 54.6875 
L 54.296875 54.6875 
L 54.296875 0 
L 45.3125 0 
L 45.3125 8.40625 
Q 42.046875 3.421875 37.71875 1 
Q 33.40625 -1.421875 27.6875 -1.421875 
Q 18.265625 -1.421875 13.375 4.4375 
Q 8.5 10.296875 8.5 21.578125 
z
M 31.109375 56 
z
" id="DejaVuSans-117"/>
      <path d="M 56.203125 29.59375 
L 56.203125 25.203125 
L 14.890625 25.203125 
Q 15.484375 15.921875 20.484375 11.0625 
Q 25.484375 6.203125 34.421875 6.203125 
Q 39.59375 6.203125 44.453125 7.46875 
Q 49.3125 8.734375 54.109375 11.28125 
L 54.109375 2.78125 
Q 49.265625 0.734375 44.1875 -0.34375 
Q 39.109375 -1.421875 33.890625 -1.421875 
Q 20.796875 -1.421875 13.15625 6.1875 
Q 5.515625 13.8125 5.515625 26.8125 
Q 5.515625 40.234375 12.765625 48.109375 
Q 20.015625 56 32.328125 56 
Q 43.359375 56 49.78125 48.890625 
Q 56.203125 41.796875 56.203125 29.59375 
z
M 47.21875 32.234375 
Q 47.125 39.59375 43.09375 43.984375 
Q 39.0625 48.390625 32.421875 48.390625 
Q 24.90625 48.390625 20.390625 44.140625 
Q 15.875 39.890625 15.1875 32.171875 
z
" id="DejaVuSans-101"/>
     </defs>
     <g transform="translate(194.213906 316.706687)scale(0.1 -0.1)">
      <use xlink:href="#DejaVuSans-82"/>
      <use x="69.482422" xlink:href="#DejaVuSans-104"/>
      <use x="132.861328" xlink:href="#DejaVuSans-111"/>
      <use x="194.042969" xlink:href="#DejaVuSans-32"/>
      <use x="225.830078" xlink:href="#DejaVuSans-118"/>
      <use x="285.009766" xlink:href="#DejaVuSans-97"/>
      <use x="346.289062" xlink:href="#DejaVuSans-108"/>
      <use x="374.072266" xlink:href="#DejaVuSans-117"/>
      <use x="437.451172" xlink:href="#DejaVuSans-101"/>
     </g>
    </g>
   </g>
   <g id="matplotlib.axis_2">
    <g id="ytick_1">
     <g id="line2d_6">
      <defs>
       <path d="M 0 0 
L -3.5 0 
" id="m0979969acf" style="stroke:#000000;stroke-width:0.8;"/>
      </defs>
      <g>
       <use style="stroke:#000000;stroke-width:0.8;" x="40.603125" xlink:href="#m0979969acf" y="288.430125"/>
      </g>
     </g>
     <g id="text_7">
      <!-- 0 -->
      <g transform="translate(27.240625 292.229344)scale(0.1 -0.1)">
       <use xlink:href="#DejaVuSans-48"/>
      </g>
     </g>
    </g>
    <g id="ytick_2">
     <g id="line2d_7">
      <g>
       <use style="stroke:#000000;stroke-width:0.8;" x="40.603125" xlink:href="#m0979969acf" y="252.224411"/>
      </g>
     </g>
     <g id="text_8">
      <!-- 2 -->
      <g transform="translate(27.240625 256.023629)scale(0.1 -0.1)">
       <use xlink:href="#DejaVuSans-50"/>
      </g>
     </g>
    </g>
    <g id="ytick_3">
     <g id="line2d_8">
      <g>
       <use style="stroke:#000000;stroke-width:0.8;" x="40.603125" xlink:href="#m0979969acf" y="216.018696"/>
      </g>
     </g>
     <g id="text_9">
      <!-- 4 -->
      <defs>
       <path d="M 37.796875 64.3125 
L 12.890625 25.390625 
L 37.796875 25.390625 
z
M 35.203125 72.90625 
L 47.609375 72.90625 
L 47.609375 25.390625 
L 58.015625 25.390625 
L 58.015625 17.1875 
L 47.609375 17.1875 
L 47.609375 0 
L 37.796875 0 
L 37.796875 17.1875 
L 4.890625 17.1875 
L 4.890625 26.703125 
z
" id="DejaVuSans-52"/>
      </defs>
      <g transform="translate(27.240625 219.817915)scale(0.1 -0.1)">
       <use xlink:href="#DejaVuSans-52"/>
      </g>
     </g>
    </g>
    <g id="ytick_4">
     <g id="line2d_9">
      <g>
       <use style="stroke:#000000;stroke-width:0.8;" x="40.603125" xlink:href="#m0979969acf" y="179.812982"/>
      </g>
     </g>
     <g id="text_10">
      <!-- 6 -->
      <defs>
       <path d="M 33.015625 40.375 
Q 26.375 40.375 22.484375 35.828125 
Q 18.609375 31.296875 18.609375 23.390625 
Q 18.609375 15.53125 22.484375 10.953125 
Q 26.375 6.390625 33.015625 6.390625 
Q 39.65625 6.390625 43.53125 10.953125 
Q 47.40625 15.53125 47.40625 23.390625 
Q 47.40625 31.296875 43.53125 35.828125 
Q 39.65625 40.375 33.015625 40.375 
z
M 52.59375 71.296875 
L 52.59375 62.3125 
Q 48.875 64.0625 45.09375 64.984375 
Q 41.3125 65.921875 37.59375 65.921875 
Q 27.828125 65.921875 22.671875 59.328125 
Q 17.53125 52.734375 16.796875 39.40625 
Q 19.671875 43.65625 24.015625 45.921875 
Q 28.375 48.1875 33.59375 48.1875 
Q 44.578125 48.1875 50.953125 41.515625 
Q 57.328125 34.859375 57.328125 23.390625 
Q 57.328125 12.15625 50.6875 5.359375 
Q 44.046875 -1.421875 33.015625 -1.421875 
Q 20.359375 -1.421875 13.671875 8.265625 
Q 6.984375 17.96875 6.984375 36.375 
Q 6.984375 53.65625 15.1875 63.9375 
Q 23.390625 74.21875 37.203125 74.21875 
Q 40.921875 74.21875 44.703125 73.484375 
Q 48.484375 72.75 52.59375 71.296875 
z
" id="DejaVuSans-54"/>
      </defs>
      <g transform="translate(27.240625 183.612201)scale(0.1 -0.1)">
       <use xlink:href="#DejaVuSans-54"/>
      </g>
     </g>
    </g>
    <g id="ytick_5">
     <g id="line2d_10">
      <g>
       <use style="stroke:#000000;stroke-width:0.8;" x="40.603125" xlink:href="#m0979969acf" y="143.607268"/>
      </g>
     </g>
     <g id="text_11">
      <!-- 8 -->
      <defs>
       <path d="M 31.78125 34.625 
Q 24.75 34.625 20.71875 30.859375 
Q 16.703125 27.09375 16.703125 20.515625 
Q 16.703125 13.921875 20.71875 10.15625 
Q 24.75 6.390625 31.78125 6.390625 
Q 38.8125 6.390625 42.859375 10.171875 
Q 46.921875 13.96875 46.921875 20.515625 
Q 46.921875 27.09375 42.890625 30.859375 
Q 38.875 34.625 31.78125 34.625 
z
M 21.921875 38.8125 
Q 15.578125 40.375 12.03125 44.71875 
Q 8.5 49.078125 8.5 55.328125 
Q 8.5 64.0625 14.71875 69.140625 
Q 20.953125 74.21875 31.78125 74.21875 
Q 42.671875 74.21875 48.875 69.140625 
Q 55.078125 64.0625 55.078125 55.328125 
Q 55.078125 49.078125 51.53125 44.71875 
Q 48 40.375 41.703125 38.8125 
Q 48.828125 37.15625 52.796875 32.3125 
Q 56.78125 27.484375 56.78125 20.515625 
Q 56.78125 9.90625 50.3125 4.234375 
Q 43.84375 -1.421875 31.78125 -1.421875 
Q 19.734375 -1.421875 13.25 4.234375 
Q 6.78125 9.90625 6.78125 20.515625 
Q 6.78125 27.484375 10.78125 32.3125 
Q 14.796875 37.15625 21.921875 38.8125 
z
M 18.3125 54.390625 
Q 18.3125 48.734375 21.84375 45.5625 
Q 25.390625 42.390625 31.78125 42.390625 
Q 38.140625 42.390625 41.71875 45.5625 
Q 45.3125 48.734375 45.3125 54.390625 
Q 45.3125 60.0625 41.71875 63.234375 
Q 38.140625 66.40625 31.78125 66.40625 
Q 25.390625 66.40625 21.84375 63.234375 
Q 18.3125 60.0625 18.3125 54.390625 
z
" id="DejaVuSans-56"/>
      </defs>
      <g transform="translate(27.240625 147.406487)scale(0.1 -0.1)">
       <use xlink:href="#DejaVuSans-56"/>
      </g>
     </g>
    </g>
    <g id="ytick_6">
     <g id="line2d_11">
      <g>
       <use style="stroke:#000000;stroke-width:0.8;" x="40.603125" xlink:href="#m0979969acf" y="107.401554"/>
      </g>
     </g>
     <g id="text_12">
      <!-- 10 -->
      <g transform="translate(20.878125 111.200772)scale(0.1 -0.1)">
       <use xlink:href="#DejaVuSans-49"/>
       <use x="63.623047" xlink:href="#DejaVuSans-48"/>
      </g>
     </g>
    </g>
    <g id="ytick_7">
     <g id="line2d_12">
      <g>
       <use style="stroke:#000000;stroke-width:0.8;" x="40.603125" xlink:href="#m0979969acf" y="71.195839"/>
      </g>
     </g>
     <g id="text_13">
      <!-- 12 -->
      <g transform="translate(20.878125 74.995058)scale(0.1 -0.1)">
       <use xlink:href="#DejaVuSans-49"/>
       <use x="63.623047" xlink:href="#DejaVuSans-50"/>
      </g>
     </g>
    </g>
    <g id="ytick_8">
     <g id="line2d_13">
      <g>
       <use style="stroke:#000000;stroke-width:0.8;" x="40.603125" xlink:href="#m0979969acf" y="34.990125"/>
      </g>
     </g>
     <g id="text_14">
      <!-- 14 -->
      <g transform="translate(20.878125 38.789344)scale(0.1 -0.1)">
       <use xlink:href="#DejaVuSans-49"/>
       <use x="63.623047" xlink:href="#DejaVuSans-52"/>
      </g>
     </g>
    </g>
    <g id="text_15">
     <!-- Number of bacteria -->
     <defs>
      <path d="M 9.8125 72.90625 
L 23.09375 72.90625 
L 55.421875 11.921875 
L 55.421875 72.90625 
L 64.984375 72.90625 
L 64.984375 0 
L 51.703125 0 
L 19.390625 60.984375 
L 19.390625 0 
L 9.8125 0 
z
" id="DejaVuSans-78"/>
      <path d="M 52 44.1875 
Q 55.375 50.25 60.0625 53.125 
Q 64.75 56 71.09375 56 
Q 79.640625 56 84.28125 50.015625 
Q 88.921875 44.046875 88.921875 33.015625 
L 88.921875 0 
L 79.890625 0 
L 79.890625 32.71875 
Q 79.890625 40.578125 77.09375 44.375 
Q 74.3125 48.1875 68.609375 48.1875 
Q 61.625 48.1875 57.5625 43.546875 
Q 53.515625 38.921875 53.515625 30.90625 
L 53.515625 0 
L 44.484375 0 
L 44.484375 32.71875 
Q 44.484375 40.625 41.703125 44.40625 
Q 38.921875 48.1875 33.109375 48.1875 
Q 26.21875 48.1875 22.15625 43.53125 
Q 18.109375 38.875 18.109375 30.90625 
L 18.109375 0 
L 9.078125 0 
L 9.078125 54.6875 
L 18.109375 54.6875 
L 18.109375 46.1875 
Q 21.1875 51.21875 25.484375 53.609375 
Q 29.78125 56 35.6875 56 
Q 41.65625 56 45.828125 52.96875 
Q 50 49.953125 52 44.1875 
z
" id="DejaVuSans-109"/>
      <path d="M 48.6875 27.296875 
Q 48.6875 37.203125 44.609375 42.84375 
Q 40.53125 48.484375 33.40625 48.484375 
Q 26.265625 48.484375 22.1875 42.84375 
Q 18.109375 37.203125 18.109375 27.296875 
Q 18.109375 17.390625 22.1875 11.75 
Q 26.265625 6.109375 33.40625 6.109375 
Q 40.53125 6.109375 44.609375 11.75 
Q 48.6875 17.390625 48.6875 27.296875 
z
M 18.109375 46.390625 
Q 20.953125 51.265625 25.265625 53.625 
Q 29.59375 56 35.59375 56 
Q 45.5625 56 51.78125 48.09375 
Q 58.015625 40.1875 58.015625 27.296875 
Q 58.015625 14.40625 51.78125 6.484375 
Q 45.5625 -1.421875 35.59375 -1.421875 
Q 29.59375 -1.421875 25.265625 0.953125 
Q 20.953125 3.328125 18.109375 8.203125 
L 18.109375 0 
L 9.078125 0 
L 9.078125 75.984375 
L 18.109375 75.984375 
z
" id="DejaVuSans-98"/>
      <path d="M 41.109375 46.296875 
Q 39.59375 47.171875 37.8125 47.578125 
Q 36.03125 48 33.890625 48 
Q 26.265625 48 22.1875 43.046875 
Q 18.109375 38.09375 18.109375 28.8125 
L 18.109375 0 
L 9.078125 0 
L 9.078125 54.6875 
L 18.109375 54.6875 
L 18.109375 46.1875 
Q 20.953125 51.171875 25.484375 53.578125 
Q 30.03125 56 36.53125 56 
Q 37.453125 56 38.578125 55.875 
Q 39.703125 55.765625 41.0625 55.515625 
z
" id="DejaVuSans-114"/>
      <path d="M 37.109375 75.984375 
L 37.109375 68.5 
L 28.515625 68.5 
Q 23.6875 68.5 21.796875 66.546875 
Q 19.921875 64.59375 19.921875 59.515625 
L 19.921875 54.6875 
L 34.71875 54.6875 
L 34.71875 47.703125 
L 19.921875 47.703125 
L 19.921875 0 
L 10.890625 0 
L 10.890625 47.703125 
L 2.296875 47.703125 
L 2.296875 54.6875 
L 10.890625 54.6875 
L 10.890625 58.5 
Q 10.890625 67.625 15.140625 71.796875 
Q 19.390625 75.984375 28.609375 75.984375 
z
" id="DejaVuSans-102"/>
      <path d="M 48.78125 52.59375 
L 48.78125 44.1875 
Q 44.96875 46.296875 41.140625 47.34375 
Q 37.3125 48.390625 33.40625 48.390625 
Q 24.65625 48.390625 19.8125 42.84375 
Q 14.984375 37.3125 14.984375 27.296875 
Q 14.984375 17.28125 19.8125 11.734375 
Q 24.65625 6.203125 33.40625 6.203125 
Q 37.3125 6.203125 41.140625 7.25 
Q 44.96875 8.296875 48.78125 10.40625 
L 48.78125 2.09375 
Q 45.015625 0.34375 40.984375 -0.53125 
Q 36.96875 -1.421875 32.421875 -1.421875 
Q 20.0625 -1.421875 12.78125 6.34375 
Q 5.515625 14.109375 5.515625 27.296875 
Q 5.515625 40.671875 12.859375 48.328125 
Q 20.21875 56 33.015625 56 
Q 37.15625 56 41.109375 55.140625 
Q 45.0625 54.296875 48.78125 52.59375 
z
" id="DejaVuSans-99"/>
      <path d="M 18.3125 70.21875 
L 18.3125 54.6875 
L 36.8125 54.6875 
L 36.8125 47.703125 
L 18.3125 47.703125 
L 18.3125 18.015625 
Q 18.3125 11.328125 20.140625 9.421875 
Q 21.96875 7.515625 27.59375 7.515625 
L 36.8125 7.515625 
L 36.8125 0 
L 27.59375 0 
Q 17.1875 0 13.234375 3.875 
Q 9.28125 7.765625 9.28125 18.015625 
L 9.28125 47.703125 
L 2.6875 47.703125 
L 2.6875 54.6875 
L 9.28125 54.6875 
L 9.28125 70.21875 
z
" id="DejaVuSans-116"/>
      <path d="M 9.421875 54.6875 
L 18.40625 54.6875 
L 18.40625 0 
L 9.421875 0 
z
M 9.421875 75.984375 
L 18.40625 75.984375 
L 18.40625 64.59375 
L 9.421875 64.59375 
z
" id="DejaVuSans-105"/>
     </defs>
     <g transform="translate(14.798438 203.990531)rotate(-90)scale(0.1 -0.1)">
      <use xlink:href="#DejaVuSans-78"/>
      <use x="74.804688" xlink:href="#DejaVuSans-117"/>
      <use x="138.183594" xlink:href="#DejaVuSans-109"/>
      <use x="235.595703" xlink:href="#DejaVuSans-98"/>
      <use x="299.072266" xlink:href="#DejaVuSans-101"/>
      <use x="360.595703" xlink:href="#DejaVuSans-114"/>
      <use x="401.708984" xlink:href="#DejaVuSans-32"/>
      <use x="433.496094" xlink:href="#DejaVuSans-111"/>
      <use x="494.677734" xlink:href="#DejaVuSans-102"/>
      <use x="529.882812" xlink:href="#DejaVuSans-32"/>
      <use x="561.669922" xlink:href="#DejaVuSans-98"/>
      <use x="625.146484" xlink:href="#DejaVuSans-97"/>
      <use x="686.425781" xlink:href="#DejaVuSans-99"/>
      <use x="741.40625" xlink:href="#DejaVuSans-116"/>
      <use x="780.615234" xlink:href="#DejaVuSans-101"/>
      <use x="842.138672" xlink:href="#DejaVuSans-114"/>
      <use x="883.251953" xlink:href="#DejaVuSans-105"/>
      <use x="911.035156" xlink:href="#DejaVuSans-97"/>
     </g>
    </g>
   </g>
   <g id="patch_103">
    <path d="M 40.603125 288.430125 
L 40.603125 22.318125 
" style="fill:none;stroke:#000000;stroke-linecap:square;stroke-linejoin:miter;stroke-width:0.8;"/>
   </g>
   <g id="patch_104">
    <path d="M 397.723125 288.430125 
L 397.723125 22.318125 
" style="fill:none;stroke:#000000;stroke-linecap:square;stroke-linejoin:miter;stroke-width:0.8;"/>
   </g>
   <g id="patch_105">
    <path d="M 40.603125 288.430125 
L 397.723125 288.430125 
" style="fill:none;stroke:#000000;stroke-linecap:square;stroke-linejoin:miter;stroke-width:0.8;"/>
   </g>
   <g id="patch_106">
    <path d="M 40.603125 22.318125 
L 397.723125 22.318125 
" style="fill:none;stroke:#000000;stroke-linecap:square;stroke-linejoin:miter;stroke-width:0.8;"/>
   </g>
   <g id="text_16">
    <!-- Real tags vs. Mixed tags at Correlation between bacteria and target -->
    <defs>
     <path d="M 45.40625 27.984375 
Q 45.40625 37.75 41.375 43.109375 
Q 37.359375 48.484375 30.078125 48.484375 
Q 22.859375 48.484375 18.828125 43.109375 
Q 14.796875 37.75 14.796875 27.984375 
Q 14.796875 18.265625 18.828125 12.890625 
Q 22.859375 7.515625 30.078125 7.515625 
Q 37.359375 7.515625 41.375 12.890625 
Q 45.40625 18.265625 45.40625 27.984375 
z
M 54.390625 6.78125 
Q 54.390625 -7.171875 48.1875 -13.984375 
Q 42 -20.796875 29.203125 -20.796875 
Q 24.46875 -20.796875 20.265625 -20.09375 
Q 16.0625 -19.390625 12.109375 -17.921875 
L 12.109375 -9.1875 
Q 16.0625 -11.328125 19.921875 -12.34375 
Q 23.78125 -13.375 27.78125 -13.375 
Q 36.625 -13.375 41.015625 -8.765625 
Q 45.40625 -4.15625 45.40625 5.171875 
L 45.40625 9.625 
Q 42.625 4.78125 38.28125 2.390625 
Q 33.9375 0 27.875 0 
Q 17.828125 0 11.671875 7.65625 
Q 5.515625 15.328125 5.515625 27.984375 
Q 5.515625 40.671875 11.671875 48.328125 
Q 17.828125 56 27.875 56 
Q 33.9375 56 38.28125 53.609375 
Q 42.625 51.21875 45.40625 46.390625 
L 45.40625 54.6875 
L 54.390625 54.6875 
z
" id="DejaVuSans-103"/>
     <path d="M 44.28125 53.078125 
L 44.28125 44.578125 
Q 40.484375 46.53125 36.375 47.5 
Q 32.28125 48.484375 27.875 48.484375 
Q 21.1875 48.484375 17.84375 46.4375 
Q 14.5 44.390625 14.5 40.28125 
Q 14.5 37.15625 16.890625 35.375 
Q 19.28125 33.59375 26.515625 31.984375 
L 29.59375 31.296875 
Q 39.15625 29.25 43.1875 25.515625 
Q 47.21875 21.78125 47.21875 15.09375 
Q 47.21875 7.46875 41.1875 3.015625 
Q 35.15625 -1.421875 24.609375 -1.421875 
Q 20.21875 -1.421875 15.453125 -0.5625 
Q 10.6875 0.296875 5.421875 2 
L 5.421875 11.28125 
Q 10.40625 8.6875 15.234375 7.390625 
Q 20.0625 6.109375 24.8125 6.109375 
Q 31.15625 6.109375 34.5625 8.28125 
Q 37.984375 10.453125 37.984375 14.40625 
Q 37.984375 18.0625 35.515625 20.015625 
Q 33.0625 21.96875 24.703125 23.78125 
L 21.578125 24.515625 
Q 13.234375 26.265625 9.515625 29.90625 
Q 5.8125 33.546875 5.8125 39.890625 
Q 5.8125 47.609375 11.28125 51.796875 
Q 16.75 56 26.8125 56 
Q 31.78125 56 36.171875 55.265625 
Q 40.578125 54.546875 44.28125 53.078125 
z
" id="DejaVuSans-115"/>
     <path d="M 9.8125 72.90625 
L 24.515625 72.90625 
L 43.109375 23.296875 
L 61.8125 72.90625 
L 76.515625 72.90625 
L 76.515625 0 
L 66.890625 0 
L 66.890625 64.015625 
L 48.09375 14.015625 
L 38.1875 14.015625 
L 19.390625 64.015625 
L 19.390625 0 
L 9.8125 0 
z
" id="DejaVuSans-77"/>
     <path d="M 54.890625 54.6875 
L 35.109375 28.078125 
L 55.90625 0 
L 45.3125 0 
L 29.390625 21.484375 
L 13.484375 0 
L 2.875 0 
L 24.125 28.609375 
L 4.6875 54.6875 
L 15.28125 54.6875 
L 29.78125 35.203125 
L 44.28125 54.6875 
z
" id="DejaVuSans-120"/>
     <path d="M 45.40625 46.390625 
L 45.40625 75.984375 
L 54.390625 75.984375 
L 54.390625 0 
L 45.40625 0 
L 45.40625 8.203125 
Q 42.578125 3.328125 38.25 0.953125 
Q 33.9375 -1.421875 27.875 -1.421875 
Q 17.96875 -1.421875 11.734375 6.484375 
Q 5.515625 14.40625 5.515625 27.296875 
Q 5.515625 40.1875 11.734375 48.09375 
Q 17.96875 56 27.875 56 
Q 33.9375 56 38.25 53.625 
Q 42.578125 51.265625 45.40625 46.390625 
z
M 14.796875 27.296875 
Q 14.796875 17.390625 18.875 11.75 
Q 22.953125 6.109375 30.078125 6.109375 
Q 37.203125 6.109375 41.296875 11.75 
Q 45.40625 17.390625 45.40625 27.296875 
Q 45.40625 37.203125 41.296875 42.84375 
Q 37.203125 48.484375 30.078125 48.484375 
Q 22.953125 48.484375 18.875 42.84375 
Q 14.796875 37.203125 14.796875 27.296875 
z
" id="DejaVuSans-100"/>
     <path d="M 64.40625 67.28125 
L 64.40625 56.890625 
Q 59.421875 61.53125 53.78125 63.8125 
Q 48.140625 66.109375 41.796875 66.109375 
Q 29.296875 66.109375 22.65625 58.46875 
Q 16.015625 50.828125 16.015625 36.375 
Q 16.015625 21.96875 22.65625 14.328125 
Q 29.296875 6.6875 41.796875 6.6875 
Q 48.140625 6.6875 53.78125 8.984375 
Q 59.421875 11.28125 64.40625 15.921875 
L 64.40625 5.609375 
Q 59.234375 2.09375 53.4375 0.328125 
Q 47.65625 -1.421875 41.21875 -1.421875 
Q 24.65625 -1.421875 15.125 8.703125 
Q 5.609375 18.84375 5.609375 36.375 
Q 5.609375 53.953125 15.125 64.078125 
Q 24.65625 74.21875 41.21875 74.21875 
Q 47.75 74.21875 53.53125 72.484375 
Q 59.328125 70.75 64.40625 67.28125 
z
" id="DejaVuSans-67"/>
     <path d="M 54.890625 33.015625 
L 54.890625 0 
L 45.90625 0 
L 45.90625 32.71875 
Q 45.90625 40.484375 42.875 44.328125 
Q 39.84375 48.1875 33.796875 48.1875 
Q 26.515625 48.1875 22.3125 43.546875 
Q 18.109375 38.921875 18.109375 30.90625 
L 18.109375 0 
L 9.078125 0 
L 9.078125 54.6875 
L 18.109375 54.6875 
L 18.109375 46.1875 
Q 21.34375 51.125 25.703125 53.5625 
Q 30.078125 56 35.796875 56 
Q 45.21875 56 50.046875 50.171875 
Q 54.890625 44.34375 54.890625 33.015625 
z
" id="DejaVuSans-110"/>
     <path d="M 4.203125 54.6875 
L 13.1875 54.6875 
L 24.421875 12.015625 
L 35.59375 54.6875 
L 46.1875 54.6875 
L 57.421875 12.015625 
L 68.609375 54.6875 
L 77.59375 54.6875 
L 63.28125 0 
L 52.6875 0 
L 40.921875 44.828125 
L 29.109375 0 
L 18.5 0 
z
" id="DejaVuSans-119"/>
    </defs>
    <g transform="translate(15.710625 16.318125)scale(0.12 -0.12)">
     <use xlink:href="#DejaVuSans-82"/>
     <use x="64.982422" xlink:href="#DejaVuSans-101"/>
     <use x="126.505859" xlink:href="#DejaVuSans-97"/>
     <use x="187.785156" xlink:href="#DejaVuSans-108"/>
     <use x="215.568359" xlink:href="#DejaVuSans-32"/>
     <use x="247.355469" xlink:href="#DejaVuSans-116"/>
     <use x="286.564453" xlink:href="#DejaVuSans-97"/>
     <use x="347.84375" xlink:href="#DejaVuSans-103"/>
     <use x="411.320312" xlink:href="#DejaVuSans-115"/>
     <use x="463.419922" xlink:href="#DejaVuSans-32"/>
     <use x="495.207031" xlink:href="#DejaVuSans-118"/>
     <use x="554.386719" xlink:href="#DejaVuSans-115"/>
     <use x="606.486328" xlink:href="#DejaVuSans-46"/>
     <use x="638.273438" xlink:href="#DejaVuSans-32"/>
     <use x="670.060547" xlink:href="#DejaVuSans-77"/>
     <use x="756.339844" xlink:href="#DejaVuSans-105"/>
     <use x="784.123047" xlink:href="#DejaVuSans-120"/>
     <use x="840.177734" xlink:href="#DejaVuSans-101"/>
     <use x="901.701172" xlink:href="#DejaVuSans-100"/>
     <use x="965.177734" xlink:href="#DejaVuSans-32"/>
     <use x="996.964844" xlink:href="#DejaVuSans-116"/>
     <use x="1036.173828" xlink:href="#DejaVuSans-97"/>
     <use x="1097.453125" xlink:href="#DejaVuSans-103"/>
     <use x="1160.929688" xlink:href="#DejaVuSans-115"/>
     <use x="1213.029297" xlink:href="#DejaVuSans-32"/>
     <use x="1244.816406" xlink:href="#DejaVuSans-97"/>
     <use x="1306.095703" xlink:href="#DejaVuSans-116"/>
     <use x="1345.304688" xlink:href="#DejaVuSans-32"/>
     <use x="1377.091797" xlink:href="#DejaVuSans-67"/>
     <use x="1446.916016" xlink:href="#DejaVuSans-111"/>
     <use x="1508.097656" xlink:href="#DejaVuSans-114"/>
     <use x="1547.460938" xlink:href="#DejaVuSans-114"/>
     <use x="1586.324219" xlink:href="#DejaVuSans-101"/>
     <use x="1647.847656" xlink:href="#DejaVuSans-108"/>
     <use x="1675.630859" xlink:href="#DejaVuSans-97"/>
     <use x="1736.910156" xlink:href="#DejaVuSans-116"/>
     <use x="1776.119141" xlink:href="#DejaVuSans-105"/>
     <use x="1803.902344" xlink:href="#DejaVuSans-111"/>
     <use x="1865.083984" xlink:href="#DejaVuSans-110"/>
     <use x="1928.462891" xlink:href="#DejaVuSans-32"/>
     <use x="1960.25" xlink:href="#DejaVuSans-98"/>
     <use x="2023.726562" xlink:href="#DejaVuSans-101"/>
     <use x="2085.25" xlink:href="#DejaVuSans-116"/>
     <use x="2124.458984" xlink:href="#DejaVuSans-119"/>
     <use x="2206.246094" xlink:href="#DejaVuSans-101"/>
     <use x="2267.769531" xlink:href="#DejaVuSans-101"/>
     <use x="2329.292969" xlink:href="#DejaVuSans-110"/>
     <use x="2392.671875" xlink:href="#DejaVuSans-32"/>
     <use x="2424.458984" xlink:href="#DejaVuSans-98"/>
     <use x="2487.935547" xlink:href="#DejaVuSans-97"/>
     <use x="2549.214844" xlink:href="#DejaVuSans-99"/>
     <use x="2604.195312" xlink:href="#DejaVuSans-116"/>
     <use x="2643.404297" xlink:href="#DejaVuSans-101"/>
     <use x="2704.927734" xlink:href="#DejaVuSans-114"/>
     <use x="2746.041016" xlink:href="#DejaVuSans-105"/>
     <use x="2773.824219" xlink:href="#DejaVuSans-97"/>
     <use x="2835.103516" xlink:href="#DejaVuSans-32"/>
     <use x="2866.890625" xlink:href="#DejaVuSans-97"/>
     <use x="2928.169922" xlink:href="#DejaVuSans-110"/>
     <use x="2991.548828" xlink:href="#DejaVuSans-100"/>
     <use x="3055.025391" xlink:href="#DejaVuSans-32"/>
     <use x="3086.8125" xlink:href="#DejaVuSans-116"/>
     <use x="3126.021484" xlink:href="#DejaVuSans-97"/>
     <use x="3187.300781" xlink:href="#DejaVuSans-114"/>
     <use x="3226.664062" xlink:href="#DejaVuSans-103"/>
     <use x="3290.140625" xlink:href="#DejaVuSans-101"/>
     <use x="3351.664062" xlink:href="#DejaVuSans-116"/>
    </g>
   </g>
   <g id="legend_1">
    <g id="patch_107">
     <path d="M 303.312188 59.674375 
L 390.723125 59.674375 
Q 392.723125 59.674375 392.723125 57.674375 
L 392.723125 29.318125 
Q 392.723125 27.318125 390.723125 27.318125 
L 303.312188 27.318125 
Q 301.312188 27.318125 301.312188 29.318125 
L 301.312188 57.674375 
Q 301.312188 59.674375 303.312188 59.674375 
z
" style="fill:#ffffff;opacity:0.8;stroke:#cccccc;stroke-linejoin:miter;"/>
    </g>
    <g id="patch_108">
     <path d="M 305.312188 38.916562 
L 325.312188 38.916562 
L 325.312188 31.916562 
L 305.312188 31.916562 
z
" style="fill:#d95f0e;opacity:0.5;"/>
    </g>
    <g id="text_17">
     <!-- mixed tags -->
     <g transform="translate(333.312188 38.916562)scale(0.1 -0.1)">
      <use xlink:href="#DejaVuSans-109"/>
      <use x="97.412109" xlink:href="#DejaVuSans-105"/>
      <use x="125.195312" xlink:href="#DejaVuSans-120"/>
      <use x="181.25" xlink:href="#DejaVuSans-101"/>
      <use x="242.773438" xlink:href="#DejaVuSans-100"/>
      <use x="306.25" xlink:href="#DejaVuSans-32"/>
      <use x="338.037109" xlink:href="#DejaVuSans-116"/>
      <use x="377.246094" xlink:href="#DejaVuSans-97"/>
      <use x="438.525391" xlink:href="#DejaVuSans-103"/>
      <use x="502.001953" xlink:href="#DejaVuSans-115"/>
     </g>
    </g>
    <g id="patch_109">
     <path d="M 305.312188 53.594687 
L 325.312188 53.594687 
L 325.312188 46.594687 
L 305.312188 46.594687 
z
" style="fill:#43a2ca;opacity:0.8;"/>
    </g>
    <g id="text_18">
     <!-- real tags -->
     <g transform="translate(333.312188 53.594687)scale(0.1 -0.1)">
      <use xlink:href="#DejaVuSans-114"/>
      <use x="38.863281" xlink:href="#DejaVuSans-101"/>
      <use x="100.386719" xlink:href="#DejaVuSans-97"/>
      <use x="161.666016" xlink:href="#DejaVuSans-108"/>
      <use x="189.449219" xlink:href="#DejaVuSans-32"/>
      <use x="221.236328" xlink:href="#DejaVuSans-116"/>
      <use x="260.445312" xlink:href="#DejaVuSans-97"/>
      <use x="321.724609" xlink:href="#DejaVuSans-103"/>
      <use x="385.201172" xlink:href="#DejaVuSans-115"/>
     </g>
    </g>
   </g>
  </g>
 </g>
 <defs>
  <clipPath id="p9c6cb6392c">
   <rect height="266.112" width="357.12" x="40.603125" y="22.318125"/>
  </clipPath>
 </defs>
</svg>
